<?xml version="1.0" encoding="iso-8859-1"?>
<!-- Generator: Adobe Illustrator 22.1.0, SVG Export Plug-In . SVG Version: 6.00 Build 0)  -->
<svg xmlns="http://www.w3.org/2000/svg" xmlns:xlink="http://www.w3.org/1999/xlink" version="1.1" id="Layer_1_1_" x="0px" y="0px" viewBox="0 0 64 64" style="enable-background:new 0 0 64 64;" xml:space="preserve" width="512" height="512">
<linearGradient id="SVGID_1_" gradientUnits="userSpaceOnUse" x1="32" y1="63" x2="32" y2="1">
	<stop offset="0" style="stop-color:#9F2FFF"/>
	<stop offset="1" style="stop-color:#0BB1D3"/>
</linearGradient>
<path style="fill:url(#SVGID_1_);" d="M48.91,40.579C47.643,37.394,47,34.043,47,30.615V30v-5v-5c0-1.965-0.39-3.839-1.08-5.56  l0.75-1c1.482-1.977,2.522-4.302,3.007-6.725C49.892,5.644,50,4.545,50,3.45V1h-2.459c-1.075,0-2.16,0.09-3.227,0.267  c-2.722,0.454-5.34,1.492-7.637,3.018C35.974,2.374,34.152,1,32,1s-3.974,1.374-4.678,3.284c-2.297-1.525-4.915-2.563-7.638-3.018  C18.619,1.09,17.534,1,16.459,1H14v2.45c0,1.095,0.108,2.193,0.323,3.266c0.484,2.423,1.524,4.748,3.007,6.724l0.75,1  C17.39,16.161,17,18.035,17,20v5v5v0.615c0,3.427-0.643,6.779-1.91,9.963c-2.435,1.123-4.09,3.57-4.09,6.34V63h42V46.919  C53,44.149,51.345,41.702,48.91,40.579z M46.527,39.886L38,38.181v-1.973c1.175-0.769,2.193-1.755,3-2.903v4.785l1.447-0.724  c1.165-0.582,2.132-1.418,2.882-2.409C45.583,36.629,45.982,38.275,46.527,39.886z M43.987,48.211C44.649,49.536,45,51.019,45,52.5  s-0.351,2.964-1.013,4.289L43,58.764V61h-7.197l2.584-1.723l-2.089-3.133l0.629,0.377C37.446,56.835,38.043,57,38.65,57  c1.847,0,3.35-1.503,3.35-3.35V48.35c0-1.847-1.503-3.35-3.35-3.35c-0.607,0-1.204,0.165-1.723,0.478l-1.022,0.613  c1.143-1.762,1.843-3.768,2.036-5.883L43,41.219v2.809C43,45.473,43.342,46.919,43.987,48.211z M20.013,56.789  C19.351,55.464,19,53.981,19,52.5s0.351-2.964,1.013-4.289C20.658,46.919,21,45.473,21,44.028v-2.809l5.059-1.012  c0.193,2.115,0.893,4.122,2.036,5.884l-1.021-0.613C26.554,45.165,25.957,45,25.35,45C23.503,45,22,46.503,22,48.35v5.301  c0,1.847,1.503,3.35,3.35,3.35c0.607,0,1.204-0.165,1.723-0.478l0.629-0.378l-2.088,3.132L28.197,61H21v-2.236L20.013,56.789z   M23,20.768l2.328,1.399l3.331-2.001l3.332,2l3.333-2l3.338,2L41,20.765V27c0,4.963-4.037,9-9,9s-9-4.037-9-9V20.768z M28,37.236  C29.242,37.723,30.588,38,32,38s2.758-0.277,4-0.764V39c0,2.957-1.151,5.737-3.242,7.828L32,47.586l-0.758-0.758  C29.151,44.737,28,41.957,28,39V37.236z M35.613,58.723l-0.987,0.658l-0.855-3.423L35.613,58.723z M30.229,55.958l-0.855,3.423  l-0.987-0.658L30.229,55.958z M32,52c-0.552,0-1-0.448-1-1s0.448-1,1-1s1,0.448,1,1S32.552,52,32,52z M29.54,52.709l-3.498,2.099  C25.833,54.934,25.594,55,25.35,55C24.605,55,24,54.395,24,53.65V48.35c0-0.744,0.605-1.35,1.35-1.35  c0.244,0,0.483,0.066,0.693,0.192l3.497,2.098C29.202,49.776,29,50.364,29,51S29.202,52.224,29.54,52.709z M34.46,49.291  l3.498-2.099C38.167,47.066,38.406,47,38.65,47c0.744,0,1.35,0.605,1.35,1.35v5.301c0,0.744-0.605,1.35-1.35,1.35  c-0.244,0-0.483-0.066-0.693-0.192l-3.497-2.098C34.798,52.224,35,51.636,35,51S34.798,49.776,34.46,49.291z M32,57.122L32.969,61  h-1.939L32,57.122z M44.644,3.239C45.601,3.08,46.575,3,47.541,3H48v0.45c0,0.963-0.096,1.93-0.284,2.873  c-0.427,2.132-1.341,4.178-2.646,5.917l-0.142,0.19c-1.673-2.846-4.25-5.094-7.343-6.34C39.696,4.645,42.119,3.661,44.644,3.239z   M32,3c1.408,0,2.583,0.978,2.905,2.288C33.965,5.102,32.994,5,32,5s-1.965,0.102-2.905,0.288C29.417,3.978,30.592,3,32,3z   M18.93,12.239c-1.305-1.738-2.219-3.784-2.646-5.916C16.096,5.38,16,4.413,16,3.45V3h0.459c0.966,0,1.94,0.08,2.896,0.239  c2.526,0.421,4.948,1.406,7.06,2.85c-3.093,1.246-5.67,3.494-7.343,6.34L18.93,12.239z M19,20c0-7.168,5.832-13,13-13  s13,5.832,13,13v5v5c0,1.777-0.738,3.421-2,4.581V17h-2v1.434l-2.338,1.4l-3.338-2l-3.333,2l-3.332-2l-3.331,1.999L23,18.434V17h-2  v17.581c-1.262-1.16-2-2.804-2-4.581v-5V20z M21.553,37.366L23,38.09v-4.785c0.807,1.148,1.825,2.134,3,2.903v1.973l-8.527,1.705  c0.545-1.61,0.945-3.256,1.198-4.929C19.42,35.948,20.388,36.784,21.553,37.366z M13,46.919c0-2.375,1.69-4.437,4.02-4.903L19,41.62  v2.409c0,1.136-0.269,2.272-0.776,3.288C17.423,48.918,17,50.71,17,52.5s0.423,3.582,1.224,5.184L19,59.236V61h-6V46.919z M51,61h-6  v-1.764l0.776-1.553C46.577,56.082,47,54.29,47,52.5s-0.423-3.582-1.224-5.184C45.269,46.301,45,45.164,45,44.028V41.62l1.98,0.396  C49.31,42.482,51,44.544,51,46.919V61z M36,24c0-0.552,0.448-1,1-1s1,0.448,1,1c0,0.552-0.448,1-1,1S36,24.552,36,24z M26,24  c0-0.552,0.448-1,1-1s1,0.448,1,1c0,0.552-0.448,1-1,1S26,24.552,26,24z M28,30h2c0,1.103,0.897,2,2,2s2-0.897,2-2h2  c0,2.206-1.794,4-4,4S28,32.206,28,30z"/>
</svg>
