<svg id="Capa_1" enable-background="new 0 0 512 512" height="512" viewBox="0 0 512 512" width="512" xmlns="http://www.w3.org/2000/svg"><g><g><g><g><path d="m314.379 148.333 42.789-30.121c3.313-2.332 7.878.037 7.878 4.089v40.854c0 17.776-14.41 32.187-32.187 32.187h-18.48z" fill="#f69583"/><path d="m354.23 187.22c-5.68 5.06-13.17 8.12-21.37 8.12h-18.48v-47.01l18-12.67c11.83 14.37 19.67 32.12 21.85 51.56z" fill="#ea806f"/></g><g><path d="m197.621 148.333-42.789-30.121c-3.313-2.332-7.878.037-7.878 4.089v40.854c0 17.776 14.41 32.187 32.187 32.187h18.48z" fill="#f69583"/><path d="m179.62 135.66 18 12.67v47.01h-18.48c-8.2 0-15.69-3.06-21.37-8.12 2.18-19.44 10.02-37.19 21.85-51.56z" fill="#ea806f"/></g></g><g><g><ellipse cx="256" cy="346.42" fill="#a3e440" rx="132.092" ry="158.08"/><path d="m348.4 233.47c-14.19 37.22-50.26 63.73-92.4 63.73s-78.21-26.51-92.4-63.73c23.81-27.91 56.42-45.13 92.4-45.13s68.59 17.22 92.4 45.13z" fill="#99d53b"/><path d="m312.472 246.016c-3.168-3.168-6.644-5.837-10.33-8.016h-92.283c-3.686 2.179-7.162 4.849-10.33 8.016-14.821 14.821-18.823 36.359-12.016 54.805 13.355 4.928 28.33 4.186 41.204-2.222 4.694 13.265 14.612 24.059 27.284 29.9 12.672-5.841 22.59-16.635 27.284-29.9 12.874 6.407 27.849 7.15 41.204 2.222 6.805-18.445 2.803-39.984-12.017-54.805z" fill="#eff5f6"/><path d="m325.67 268.39c-17.87 17.8-42.51 28.81-69.67 28.81s-51.8-11.01-69.67-28.81c2.34-8.19 6.75-15.92 13.2-22.37 3.17-3.17 6.64-5.84 10.33-8.02h92.28c3.69 2.18 7.16 4.85 10.33 8.02 6.45 6.45 10.86 14.18 13.2 22.37z" fill="#cbe5e7"/><path d="m388.09 346.42c0 87.31-59.14 158.08-132.09 158.08-4.99 0-9.91-.33-14.75-.98 66.01-8.77 117.34-75.76 117.34-157.1 0-81.33-51.33-148.33-117.34-157.1 4.84-.65 9.76-.98 14.75-.98 72.95 0 132.09 70.78 132.09 158.08z" fill="#99d53b"/><path d="m139.512 421c22.263 49.697 66.074 83.5 116.488 83.5s94.226-33.803 116.488-83.5z" fill="#fb4a59"/><g fill="#f82f40"><path d="m139.74 421.5c4.712 10.426 10.371 20.15 16.846 29h198.829c6.474-8.85 12.133-18.574 16.846-29z"/><path d="m342.989 421c-20.06 44.782-57.618 76.658-101.739 82.52 4.84.65 9.76.98 14.75.98 50.413 0 94.225-33.802 116.488-83.5z"/></g></g><g><path d="m389.62 406.04-9.1 21.13c-1.54 3.56-5.04 5.86-8.92 5.86h-231.2c-3.88 0-7.38-2.3-8.92-5.86l-9.1-21.13c-2.77-6.41 1.93-13.55 8.91-13.55h249.42c6.98 0 11.68 7.14 8.91 13.55z" fill="#fc9744"/><path d="m389.62 406.04-9.1 21.13c-1.54 3.56-5.04 5.86-8.92 5.86h-34.59c6.81-12.41 12.2-26.03 15.87-40.54h27.83c6.98 0 11.68 7.14 8.91 13.55z" fill="#fb8627"/></g></g><circle cx="256" cy="198.342" fill="#fdb0a0" r="78.86"/><path d="m325.81 161.667c-13.202-25.077-39.501-42.185-69.81-42.185s-56.608 17.108-69.81 42.185z" fill="#f69583"/><g><path d="m185.846 114.059s12.27-82.691 140.309-82.691v82.691z" fill="#a3e440"/></g><g><path d="m305 32.184v81.875h21.154v-82.691c-7.441 0-14.475.29-21.154.816z" fill="#99d53b"/></g><g><path d="m330.928 146.167h-149.856c-5.363 0-9.71-4.347-9.71-9.71v-17.499c0-5.363 4.347-9.71 9.71-9.71h149.857c5.363 0 9.71 4.347 9.71 9.71v17.499c-.001 5.363-4.348 9.71-9.711 9.71z" fill="#eff5f6"/><path d="m340.64 118.96v17.5c0 5.36-4.35 9.71-9.71 9.71h-25.97c5.36 0 9.71-4.35 9.71-9.71v-17.5c0-5.36-4.35-9.71-9.71-9.71h25.97c5.36 0 9.71 4.35 9.71 9.71z" fill="#cbe5e7"/></g><circle cx="328.339" cy="31.368" fill="#eff5f6" r="23.868"/><path d="m352.21 31.37c0 13.18-10.69 23.87-23.87 23.87-3.9 0-7.58-.93-10.83-2.6 7.74-3.94 13.04-11.99 13.04-21.27s-5.3-17.33-13.04-21.27c3.25-1.67 6.93-2.6 10.83-2.6 13.18 0 23.87 10.69 23.87 23.87z" fill="#cbe5e7"/><path d="m293 433.031h-74v-47.364c0-5.523 4.477-10 10-10h54c5.523 0 10 4.477 10 10z" fill="#557983"/></g><g fill="#fb8189"><ellipse cx="212.718" cy="203.18" rx="13.5" ry="8.996"/><ellipse cx="299.282" cy="203.18" rx="13.5" ry="8.996"/></g><g><path d="m395.084 392.741c-1.108-1.684-2.483-3.125-4.043-4.299 3.008-13.655 4.55-27.776 4.55-42.022 0-10.056-.773-20.162-2.297-30.037-.631-4.094-4.457-6.898-8.556-6.268-4.093.632-6.9 4.462-6.268 8.556 1.407 9.121 2.121 18.457 2.121 27.749 0 13.083-1.407 26.044-4.149 38.57h-75.977c-.36-9.335-8.045-16.823-17.466-16.823h-54c-9.421 0-17.106 7.489-17.466 16.823h-19.203c-4.142 0-7.5 3.358-7.5 7.5s3.358 7.5 7.5 7.5h19.17v25.541h-71.101c-.883 0-1.68-.524-2.029-1.335l-9.106-21.121c-.41-.952-.062-1.718.183-2.089.245-.372.81-.996 1.847-.996h27.376c4.142 0 7.5-3.358 7.5-7.5s-3.358-7.5-7.5-7.5h-23.112c-2.742-12.529-4.149-25.484-4.149-38.57 0-44.482 16.561-86.947 44.655-115.445 2.771 6.763 6.362 13.105 10.673 18.885-10.521 15.784-12.89 35.578-6.263 53.553.759 2.059 2.382 3.682 4.44 4.442 12.858 4.745 27.01 4.863 39.864.492 6.048 11.774 15.975 21.382 28.083 26.963.996.459 2.068.688 3.14.688s2.144-.229 3.14-.688c12.108-5.582 22.035-15.189 28.083-26.963 12.853 4.37 27.005 4.253 39.864-.492 2.059-.76 3.681-2.383 4.44-4.442 6.626-17.976 4.257-37.77-6.263-53.553 4.312-5.782 7.903-12.125 10.674-18.89 15.097 15.286 27.031 34.663 34.744 56.544 1.086 3.082 3.981 5.008 7.073 5.008.827 0 1.669-.138 2.494-.429 3.906-1.377 5.957-5.66 4.58-9.567-9.412-26.7-24.64-50.061-44.069-67.69.83-4.274 1.341-8.66 1.514-13.132 17.502-4.275 30.275-20.215 30.275-38.545v-40.859c0-4.685-2.584-8.936-6.744-11.094-4.16-2.159-9.123-1.824-12.953.871l-5.045 3.551c-1.383-7.021-7.05-12.504-14.154-13.642v-39.71c14.772-2.533 26.053-15.424 26.053-30.909 0-17.296-14.072-31.367-31.368-31.367-15.233 0-27.959 10.917-30.78 25.336-82.088 8.784-108.211 54.558-116.058 76.412h-.429c-8.35 0-15.324 5.979-16.88 13.879l-5.044-3.55c-3.831-2.697-8.795-3.03-12.954-.872-4.16 2.159-6.744 6.41-6.744 11.094v40.86c0 18.33 12.774 34.27 30.275 38.545.172 4.47.683 8.854 1.513 13.127-16.525 14.999-30.224 34.459-39.657 56.398-10.068 23.416-15.173 48.713-15.173 75.189 0 14.248 1.544 28.364 4.552 42.021-1.56 1.174-2.936 2.616-4.044 4.3-3.193 4.854-3.726 10.937-1.426 16.272l9.106 21.121c2.723 6.315 8.926 10.396 15.804 10.396h.723c26.098 44.776 68.943 71.472 114.877 71.472 45.974 0 88.77-26.684 114.874-71.469h.727c6.878 0 13.081-4.081 15.804-10.396l9.106-21.121c2.299-5.336 1.766-11.419-1.427-16.273zm-83.426-239.074c.046.061.085.125.133.185 10.186 12.749 15.569 28.132 15.569 44.488 0 39.348-32.012 71.36-71.36 71.36s-71.36-32.012-71.36-71.36c0-16.356 5.384-31.74 15.569-44.488.048-.06.087-.124.133-.185zm6.886 141.203c-10.586 2.973-22.039 1.935-31.922-2.984-1.923-.957-4.165-1.043-6.155-.238-1.991.806-3.541 2.426-4.257 4.451-3.59 10.149-10.859 18.729-20.209 23.986-9.35-5.258-16.62-13.837-20.209-23.986-.716-2.025-2.267-3.646-4.257-4.451-1.99-.806-4.231-.719-6.155.238-9.884 4.919-21.334 5.957-31.922 2.984-3.179-11.258-1.801-23.188 3.753-33.351 15.427 14.368 36.093 23.181 58.789 23.181s43.362-8.814 58.791-23.181c5.554 10.163 6.932 22.093 3.753 33.351zm39.006-167.756v36.046c0 10.41-6.63 19.562-16.063 23.101-1.638-11.521-5.582-22.64-11.59-32.594h1.031c9.49 0 17.21-7.72 17.21-17.21v-2.72zm-29.211-112.114c9.025 0 16.368 7.342 16.368 16.368s-7.343 16.368-16.368 16.368-16.368-7.343-16.368-16.368 7.342-16.368 16.368-16.368zm-149.477 103.958c0-1.219.991-2.21 2.21-2.21h34.098c4.142 0 7.5-3.358 7.5-7.5s-3.358-7.5-7.5-7.5h-17.526c8.843-20.078 33.565-53.958 100.642-61.407 2.947 9.853 10.615 17.683 20.368 20.857v40.549h-69.824c-4.142 0-7.5 3.358-7.5 7.5s3.358 7.5 7.5 7.5h82.098c1.219 0 2.21.991 2.21 2.21v17.499c0 1.219-.991 2.21-2.21 2.21h-149.856c-1.219 0-2.21-.991-2.21-2.21zm-24.412 44.202v-36.046l9.412 6.624v2.719c0 9.49 7.72 17.21 17.21 17.21h1.031c-6.008 9.954-9.953 21.073-11.59 32.594-9.433-3.539-16.063-12.691-16.063-23.101zm74.55 220.007h54c1.378 0 2.5 1.122 2.5 2.5v13.833h-8.25c-4.142 0-7.5 3.358-7.5 7.5s3.358 7.5 7.5 7.5h8.25v11.031h-59v-11.031h8.25c4.142 0 7.5-3.358 7.5-7.5s-3.358-7.5-7.5-7.5h-8.25v-13.833c0-1.379 1.122-2.5 2.5-2.5zm27 113.833c-37.915 0-73.625-20.932-97.218-56.469h194.434c-23.591 35.546-59.267 56.469-97.216 56.469zm126.736-93.925-9.106 21.122c-.35.811-1.146 1.334-2.029 1.334h-71.101v-25.541h80.206c1.037 0 1.602.624 1.847.996.244.371.593 1.137.183 2.089z"/><path d="m227.779 188.464h.101.038c4.125 0 7.479-3.334 7.499-7.463.02-4.142-3.321-7.517-7.463-7.537h-.101c-.013 0-.025 0-.038 0-4.125 0-7.479 3.334-7.499 7.463-.021 4.143 3.321 7.517 7.463 7.537z"/><path d="m284.047 188.464h.101.038c4.125 0 7.479-3.334 7.499-7.463.02-4.142-3.321-7.517-7.463-7.537h-.101c-.013 0-.025 0-.038 0-4.125 0-7.479 3.334-7.499 7.463-.02 4.143 3.321 7.517 7.463 7.537z"/><path d="m228.327 213.631c.894 14.603 13.049 26.042 27.673 26.042s26.779-11.439 27.673-26.042c.253-4.135-2.893-7.691-7.027-7.944-4.131-.258-7.691 2.893-7.944 7.027-.411 6.706-5.99 11.958-12.701 11.958s-12.291-5.253-12.701-11.958c-.253-4.134-3.809-7.286-7.944-7.027-4.136.252-7.282 3.809-7.029 7.944z"/></g></g></svg>