<svg height="512pt" viewBox="0 0 512 512" width="512pt" xmlns="http://www.w3.org/2000/svg"><path d="m429.402344 11.101562-32.402344 179.199219-36 60h-210l-36-60-32.402344-179.199219 109.503906 110.496094 63.898438-121.597656 63.898438 121.597656zm0 0" fill="#ffda2d"/><path d="m361 250.300781h-105v-250.300781l63.898438 121.597656 109.503906-110.496094-32.402344 179.199219zm0 0" fill="#fdbf00"/><path d="m508.699219 401.199219c-17.398438 69.300781-109.597657 110.800781-252.699219 110.800781s-235.300781-41.5-252.699219-110.800781l115-16.5h305.402344zm0 0" fill="#fff5f5"/><path d="m508.699219 401.199219c-17.398438 69.300781-109.597657 110.800781-252.699219 110.800781v-127.300781h167.699219zm0 0" fill="#efe2dd"/><path d="m510.5 359.199219c-4.199219-25.5-19.898438-45.300781-44.5-59.101563 15.253906-33.617187 36.3125-91.777344-28.199219-129-42.902343-24.898437-74.398437-6-104.398437 12.300782-22.5 13.5-45.601563 27.601562-77.402344 27.601562-31.5 0-54.902344-14.101562-77.402344-27.601562-30-18.300782-61.5-37.199219-104.398437-12.296876-62.398438 36-43.898438 96.597657-29.199219 129-24.601562 13.796876-39.300781 33.597657-43.5 59.097657-.898438 5.402343-1.5 10.800781-1.5 16.800781 0 8.699219.902344 17.398438 3.300781 25.199219 27.601563 16.800781 70.898438 27 117.699219 27 31.800781 0 62.101562-4.800781 87.300781-13.5 15.296875-5.097657 31.5-7.800781 47.699219-7.800781s32.402344 2.703124 47.699219 7.800781c25.199219 8.699219 55.5 13.5 87.300781 13.5 46.800781 0 90.398438-10.199219 117.699219-27 2.398437-7.800781 3.300781-16.5 3.300781-25.199219 0-6-.601562-11.398438-1.5-16.800781zm0 0" fill="#7fe881"/><path d="m512 376c0 8.699219-.902344 17.398438-3.300781 25.199219-27.300781 16.800781-70.898438 27-117.699219 27-31.800781 0-62.101562-4.800781-87.300781-13.5-15.296875-5.097657-31.5-7.800781-47.699219-7.800781v-195.898438c31.800781 0 54.902344-14.101562 77.402344-27.601562 30-18.300782 61.5-37.199219 104.398437-12.296876 64.511719 37.21875 43.453125 95.378907 28.199219 129 24.601562 13.800782 40.300781 33.597657 44.5 59.097657.898438 5.402343 1.5 10.800781 1.5 16.800781zm0 0" fill="#5bc980"/><path d="m241 151h30v30h-30zm0 0" fill="#ff641a"/><path d="m211 301h30v30h-30zm0 0" fill="#575f64"/><path d="m271 301h30v30h-30zm0 0" fill="#32393f"/><path d="m136 331c-24.8125 0-45-20.1875-45-45s20.1875-45 45-45 45 20.1875 45 45-20.1875 45-45 45zm0 0" fill="#fff5f5"/><path d="m376 331c-24.8125 0-45-20.1875-45-45s20.1875-45 45-45 45 20.1875 45 45-20.1875 45-45 45zm0 0" fill="#efe2dd"/><path d="m136 271c-8.277344 0-15 6.722656-15 15s6.722656 15 15 15 15-6.722656 15-15-6.722656-15-15-15zm0 0" fill="#575f64"/><path d="m376 271c-8.277344 0-15 6.722656-15 15s6.722656 15 15 15 15-6.722656 15-15-6.722656-15-15-15zm0 0" fill="#32393f"/><path d="m256 151h15v30h-15zm0 0" fill="#f03800"/></svg>