<?xml version="1.0" encoding="iso-8859-1"?>
<!-- Generator: Adobe Illustrator 19.0.0, SVG Export Plug-In . SVG Version: 6.00 Build 0)  -->
<svg version="1.1" id="Capa_1" xmlns="http://www.w3.org/2000/svg" xmlns:xlink="http://www.w3.org/1999/xlink" x="0px" y="0px"
	 viewBox="0 0 512 512" style="enable-background:new 0 0 512 512;" xml:space="preserve">
<path style="fill:#DDDDDD;" d="M391.103,160.823c-0.541-6.492-0.713-13.006-1.1-19.511C385.63,67.064,331.518,8.393,255.998,8.393
	l0,0c-75.52,0-129.628,58.67-134.01,132.919c-0.382,6.505-0.558,13.018-1.1,19.511l-24.366,309.21h33.574
	c0,18.541,15.033,33.574,33.574,33.574s33.574-15.033,33.574-33.574h25.18c0,18.541,15.033,33.574,33.574,33.574
	s33.574-15.033,33.574-33.574h25.18c0,18.541,15.033,33.574,33.574,33.574s33.574-15.033,33.574-33.574h33.574L391.103,160.823z"/>
<path d="M348.326,512c-20.266,0-37.225-14.441-41.124-33.574h-10.081C293.223,497.559,276.264,512,255.998,512
	s-37.225-14.441-41.124-33.574h-10.076C200.895,497.559,183.94,512,163.674,512s-37.225-14.441-41.124-33.574H96.522
	c-2.342,0-4.574-0.974-6.165-2.698c-1.586-1.716-2.388-4.025-2.203-6.358l24.366-309.21c0.34-4.096,0.529-8.163,0.722-12.229
	c0.113-2.371,0.222-4.742,0.361-7.113C118.425,59.22,178.308,0,255.998,0c77.698,0,137.577,59.224,142.382,140.817
	c0.147,2.438,0.264,4.881,0.382,7.327c0.189,3.999,0.378,7.995,0.709,11.982c0,0.013,0,0.025,0.004,0.038l24.37,309.21
	c0.185,2.333-0.613,4.637-2.203,6.358c-1.595,1.721-3.832,2.694-6.169,2.694h-26.024C385.551,497.559,368.592,512,348.326,512z
	 M289.572,461.639h25.18c4.633,0,8.393,3.76,8.393,8.393c0,13.887,11.293,25.18,25.18,25.18c13.887,0,25.18-11.293,25.18-25.18
	c0-4.633,3.76-8.393,8.393-8.393h24.492l-23.653-300.137c-0.348-4.184-0.55-8.372-0.751-12.565
	c-0.109-2.375-0.227-4.751-0.365-7.126c-4.264-72.448-57.101-125.025-125.625-125.025c-68.52,0-121.357,52.577-125.633,125.02
	c-0.134,2.304-0.243,4.612-0.353,6.916c-0.201,4.272-0.407,8.536-0.76,12.796L105.6,461.639h24.496c4.633,0,8.393,3.76,8.393,8.393
	c0,13.887,11.293,25.18,25.18,25.18s25.18-11.293,25.18-25.18c0-4.633,3.76-8.393,8.393-8.393h25.18c4.633,0,8.393,3.76,8.393,8.393
	c0,13.887,11.293,25.18,25.18,25.18c13.887,0,25.18-11.293,25.18-25.18C281.178,465.4,284.934,461.639,289.572,461.639z"/>
<ellipse style="fill:#EE5281;" cx="205.637" cy="176.262" rx="33.574" ry="44.766"/>
<path d="M205.637,229.422c-23.141,0-41.967-23.85-41.967-53.16s18.826-53.16,41.967-53.16s41.967,23.85,41.967,53.16
	S228.778,229.422,205.637,229.422z M205.637,139.889c-13.648,0-25.18,16.657-25.18,36.373s11.533,36.373,25.18,36.373
	s25.18-16.657,25.18-36.373S219.285,139.889,205.637,139.889z"/>
<ellipse style="fill:#EE5281;" cx="306.358" cy="176.262" rx="25.18" ry="33.574"/>
<path d="M306.358,218.229c-18.512,0-33.574-18.826-33.574-41.967s15.062-41.967,33.574-41.967s33.574,18.826,33.574,41.967
	S324.87,218.229,306.358,218.229z M306.358,151.082c-9.098,0-16.787,11.533-16.787,25.18s7.688,25.18,16.787,25.18
	s16.787-11.533,16.787-25.18S315.457,151.082,306.358,151.082z"/>
<path d="M172.47,94.766c-1.616,0-3.248-0.466-4.692-1.439c-3.84-2.594-4.851-7.81-2.258-11.654
	c20.35-30.116,54.171-48.099,90.477-48.099c4.633,0,8.393,3.76,8.393,8.393s-3.76,8.393-8.393,8.393
	c-30.72,0-59.342,15.217-76.565,40.712C177.813,93.469,175.165,94.766,172.47,94.766z"/>
<path d="M331.539,327.344H180.457c-4.633,0-8.393-3.76-8.393-8.393c0-4.633,3.76-8.393,8.393-8.393h151.082
	c4.633,0,8.393,3.76,8.393,8.393C339.932,323.584,336.172,327.344,331.539,327.344z"/>
<path d="M197.244,344.131c-4.633,0-8.393-3.76-8.393-8.393v-33.574c0-4.633,3.76-8.393,8.393-8.393c4.633,0,8.393,3.76,8.393,8.393
	v33.574C205.637,340.371,201.877,344.131,197.244,344.131z"/>
<path d="M222.424,344.131c-4.633,0-8.393-3.76-8.393-8.393v-33.574c0-4.633,3.76-8.393,8.393-8.393s8.393,3.76,8.393,8.393v33.574
	C230.818,340.371,227.057,344.131,222.424,344.131z"/>
<path d="M255.998,344.131c-4.633,0-8.393-3.76-8.393-8.393v-33.574c0-4.633,3.76-8.393,8.393-8.393s8.393,3.76,8.393,8.393v33.574
	C264.391,340.371,260.631,344.131,255.998,344.131z"/>
<path d="M281.178,344.131c-4.633,0-8.393-3.76-8.393-8.393v-33.574c0-4.633,3.76-8.393,8.393-8.393c4.633,0,8.393,3.76,8.393,8.393
	v33.574C289.572,340.371,285.811,344.131,281.178,344.131z"/>
<path d="M306.358,344.131c-4.633,0-8.393-3.76-8.393-8.393v-33.574c0-4.633,3.76-8.393,8.393-8.393c4.633,0,8.393,3.76,8.393,8.393
	v33.574C314.752,340.371,310.992,344.131,306.358,344.131z"/>
<g>
</g>
<g>
</g>
<g>
</g>
<g>
</g>
<g>
</g>
<g>
</g>
<g>
</g>
<g>
</g>
<g>
</g>
<g>
</g>
<g>
</g>
<g>
</g>
<g>
</g>
<g>
</g>
<g>
</g>
</svg>
