<svg id="Capa_1" enable-background="new 0 0 512 512" height="512" viewBox="0 0 512 512" width="512" xmlns="http://www.w3.org/2000/svg"><path d="m256 10c-65.96 49.48-113.44 123.49-135.65 203.38l.09.02h271.12l.09-.02c-22.21-79.89-69.69-153.9-135.65-203.38z" fill="#ff7b79"/><path d="m406 286c-4.45-24.794-6.143-43.081-14.35-72.62l-.09.02c-39.57-31.6-87.56-47.4-135.56-47.4s-95.99 15.8-135.56 47.4l-.09-.02c-8.198 29.508-9.935 48.018-14.35 72.62-17.14 85.69 32.21 176.74 115.12 204.37l34.88 11.63 34.88-11.63c82.91-27.63 132.26-118.68 115.12-204.37z" fill="#e2e9ee"/><path d="m256 226c-41.23 0-82.45 11.66-118.34 34.97l28.34 85.03c20.59-6.86 41.77-11.31 63.12-13.33h53.76c21.35 2.02 42.53 6.47 63.12 13.33l28.34-85.03c-35.89-23.31-77.11-34.97-118.34-34.97z" fill="#ffcebf"/><circle cx="256" cy="346" fill="#6d92ac" r="30"/><circle cx="316" cy="286" r="10"/><circle cx="196" cy="286" r="10"/><path d="m217.957 499.856 34.88 11.63c1.026.342 2.095.513 3.163.513s2.137-.171 3.163-.513l34.878-11.629c87.471-29.15 139.836-124.765 121.814-215.554l-5.331-31.987c-16.179-97.112-69.102-190.737-148.523-250.316-3.557-2.667-8.445-2.667-12.002 0-79.407 59.568-132.34 153.188-148.523 250.315l-5.331 31.988c-18.027 90.811 34.362 186.411 121.812 215.553zm69.76-18.973-31.717 10.576-31.719-10.576c-76.34-25.441-123.757-108.387-109.066-189.815 5.489-5.068 11.235-9.835 17.183-14.259l24.115 72.353c1.744 5.23 7.397 8.073 12.648 6.325 15.272-5.088 30.991-8.813 46.887-11.152-.023.555-.048 1.109-.048 1.665 0 22.056 17.944 40 40 40s40-17.944 40-40c0-.555-.025-1.11-.049-1.664 15.897 2.339 31.615 6.063 46.887 11.152 5.238 1.746 10.902-1.086 12.648-6.325l24.115-72.353c5.948 4.424 11.694 9.19 17.183 14.259 14.692 81.427-32.725 164.373-109.067 189.814zm-31.717-154.883c11.336 0 20 9.228 20 20 0 11.028-8.972 20-20 20s-20-8.972-20-20c0-10.795 8.673-20 20-20zm32.909-2.742c-7.398-10.768-19.554-17.258-32.909-17.258-13.365 0-25.53 6.501-32.914 17.259-17.136 1.925-34.134 5.352-50.707 10.254l-22.739-68.227c32.08-19.182 68.686-29.286 106.36-29.286s74.279 10.104 106.36 29.286l-22.739 68.227c-16.575-4.903-33.574-8.33-50.712-10.255zm-32.909-300.648c52.577 41.364 93.448 99.365 117.281 165.965-21.737-13.069-45.656-22.532-70.468-27.729-5.41-1.133-10.705 2.333-11.838 7.738-1.132 5.405 2.333 10.705 7.738 11.837 30.507 6.39 59.542 19.837 84.192 38.923 5.994 22.337 8.161 38.297 8.769 41.531-37.916-28.25-84.987-44.875-135.674-44.875-48.942 0-96.34 15.57-135.675 44.875.612-3.26 2.807-19.314 8.769-41.531 24.649-19.085 53.685-32.533 84.191-38.923 5.405-1.132 8.87-6.432 7.738-11.837-1.133-5.405-6.428-8.871-11.838-7.738-24.812 5.197-48.731 14.66-70.467 27.728 23.835-66.6 64.706-124.601 117.282-165.964z"/><circle cx="256" cy="166" r="10"/></svg>