<svg id="Capa_1" enable-background="new 0 0 512 512" height="512" viewBox="0 0 512 512" width="512" xmlns="http://www.w3.org/2000/svg"><path d="m472.619 410.61c.382-.329.761-.662 1.136-.998-.375.336-.754.669-1.136.998h-69.81l-20.073-86.304c-4.18-17.973 1.211-36.831 14.26-49.878l1.553-1.553-13.766-14.871c-9.856-10.647-20.883-20.121-32.859-28.248-3.904 15.859-10.408 28.182-19.849 37.872-16.351 16.783-41.236 24.942-76.075 24.942s-59.724-8.159-76.075-24.942c-9.441-9.69-15.946-22.014-19.849-37.872-11.976 8.128-23.003 17.601-32.86 28.249l-13.765 14.87 1.553 1.553c13.049 13.047 18.44 31.905 14.26 49.877l-20.073 86.305h-69.81c-16.02 10.338-25.697 28.101-25.697 47.166v50.632c0 1.983 1.608 3.591 3.591 3.591h477.45c1.983 0 3.591-1.608 3.591-3.591v-50.632c0-19.065-9.677-36.828-25.697-47.166z" fill="#e2bcaf"/><path d="m355.851 250.66c.833.9.806 2.297-.061 3.165-13.049 13.047-18.44 31.905-14.26 49.878l20.073 86.304h36.415l-15.28-65.698c-4.18-17.974 1.211-36.832 14.259-49.881l1.553-1.553-13.766-14.871c-9.856-10.647-20.883-20.121-32.859-28.248-1.089 4.425-2.381 8.574-3.883 12.469z" fill="#d8a595"/><path d="m472.619 410.61c.382-.329.761-.662 1.136-.998-.375.336-.754.669-1.136.998h-22.193c4.321 8.044 6.683 17.144 6.683 26.563v21.44c0 18.106-14.678 32.784-32.784 32.784h-410.641v17.012c0 1.983 1.608 3.591 3.591 3.591h477.45c1.983 0 3.591-1.608 3.591-3.591v-50.632c0-19.066-9.677-36.829-25.697-47.167z" fill="#d8a595"/><g fill="#d09080"><path d="m256 512v-101.39l-20.323-22.976c-8.167-9.233-19.902-14.52-32.23-14.52h-85.536l-8.721 37.496v101.39z"/><path d="m311.333 225.238c-.149.745-.803 1.282-1.563 1.282h-107.54c-.76 0-1.414-.537-1.563-1.282l-10.198-51.066c-.296-1.481-1.596-2.547-3.105-2.547h-29.477c-2.206 0-3.947 1.874-3.785 4.074l2.072 28.129c2.143 29.095 9.69 49.367 23.751 63.8 16.351 16.783 41.235 24.942 76.075 24.942s59.724-8.159 76.075-24.942c14.061-14.433 21.608-34.705 23.751-63.8l2.072-28.129c.162-2.2-1.579-4.074-3.785-4.074h-29.477c-1.51 0-2.81 1.066-3.105 2.547z"/><path d="m360.771 79.556c-.425-2.021-2.201-3.475-4.267-3.475h-201.008c-2.065 0-3.841 1.454-4.267 3.475-2.056 9.766-2.742 19.904-1.984 30.199l.58 7.872c.167 2.271 2.059 4.028 4.336 4.028h81.219v57.327c0 1.351 1.095 2.446 2.446 2.446h36.349c1.351 0 2.446-1.095 2.446-2.446v-57.327h81.218c2.277 0 4.168-1.757 4.336-4.028l.58-7.872c.758-10.295.071-20.432-1.984-30.199z"/></g><path d="m357.898 175.7c.162-2.2-1.579-4.074-3.785-4.074h-18.036l-.854 11.6c-2.143 29.095-9.69 49.367-23.751 63.8-16.352 16.783-41.236 24.942-76.075 24.942-27.204 0-48.338-4.975-64.08-15.145 2.54 3.929 5.405 7.519 8.608 10.807 16.351 16.781 41.235 24.94 76.075 24.94s59.724-8.159 76.075-24.942c14.061-14.433 21.608-34.705 23.751-63.8z" fill="#c67d66"/><path d="m360.771 79.556c-.425-2.021-2.201-3.475-4.267-3.475h-14.166c.196 4.317.137 8.68-.187 13.071-.494 6.709-6.081 11.9-12.809 11.9h-64.829c-4.692 0-8.496 3.804-8.496 8.496v42.781c0 4.692-3.804 8.496-8.496 8.496h-12.142v18.158c0 1.351 1.095 2.446 2.446 2.446h36.349c1.351 0 2.446-1.095 2.446-2.446v-57.327h81.218c2.277 0 4.168-1.757 4.336-4.028l.58-7.872c.759-10.296.072-20.433-1.983-30.2z" fill="#c67d66"/><path d="m276.621 121.656h80.093l-3.68 49.97h-28.397c-1.51 0-2.81 1.066-3.105 2.547l-10.198 51.066c-.149.745-.803 1.282-1.563 1.282h-107.541c-.76 0-1.414-.537-1.563-1.282l-10.198-51.066c-.296-1.481-1.596-2.547-3.105-2.547h-28.397l-3.68-49.97h80.093v57.327c0 1.351 1.095 2.446 2.446 2.446h36.349c1.351 0 2.446-1.095 2.446-2.446zm-20.621-121.656c-47.655 0-87.232 32.58-98.607 76.081h197.214c-11.375-43.501-50.952-76.081-98.607-76.081z" fill="#e2bcaf"/><path d="m318.432 40.348c3.136 7.13-2.163 15.13-9.953 15.13h-143.211c-3.337 6.503-5.992 13.404-7.875 20.604h197.214c-7.973-30.49-29.801-55.615-58.554-67.917 9.406 9.133 17.045 20.054 22.379 32.183z" fill="#d8a595"/><path d="m324.291 121.656-1.157 15.709c-.567 7.7-6.98 13.658-14.701 13.658h-5.212c-7.028 0-13.079 4.962-14.455 11.854l-6.228 31.187c-1.376 6.892-7.427 11.854-14.455 11.854h-71.275l3.858 19.322c.149.745.803 1.282 1.563 1.282h107.54c.76 0 1.414-.537 1.563-1.282l10.198-51.066c.296-1.481 1.596-2.547 3.105-2.547h28.397l3.68-49.97h-32.421z" fill="#d8a595"/><path d="m115.003 274.428-1.553-1.553c-14.043 3.423-26.486 6.457-44 10.727-32.73 7.98-55.767 37.303-55.767 70.992v.004c0 21.522 9.383 41.974 25.697 56.012h69.81l20.072-86.302c4.181-17.973-1.21-36.831-14.259-49.88z" fill="#d09080"/><path d="m256 512v-101.39l20.323-22.976c8.167-9.233 19.902-14.52 32.229-14.52h85.536l8.721 37.496v101.39z" fill="#d09080"/><path d="m235.677 387.634c-8.167-9.233-19.902-14.52-32.23-14.52h-3.597l8.456 9.56c4.179 4.725 6.486 10.815 6.486 17.122v65.757c0 14.273-11.57 25.843-25.843 25.843h-79.759v20.604h146.81v-101.39z" fill="#c67d66"/><path d="m394.089 373.114h-36.415l3.257 14.004c.446 1.919.672 3.884.672 5.854v72.581c0 14.273-11.57 25.843-25.843 25.843h-79.76v20.604h146.809v-101.39z" fill="#c67d66"/><path d="m396.997 274.428 1.553-1.553c14.043 3.423 26.486 6.457 44 10.727 32.73 7.98 55.767 37.303 55.767 70.992v.004c0 21.522-9.383 41.974-25.697 56.012h-69.81l-20.072-86.302c-4.181-17.973 1.21-36.831 14.259-49.88z" fill="#d09080"/><path d="m115.002 274.427-1.552-1.551c-8.587 2.093-16.576 4.041-25.492 6.215 1.918 7.962 2.012 16.381.097 24.615l-13.689 58.858c-3.738 16.071-18.06 27.444-34.559 27.444h-17.087c4.22 7.73 9.833 14.729 16.661 20.604h69.81l20.072-86.302c4.18-17.976-1.212-36.835-14.261-49.883z" fill="#c67d66"/><path d="m442.548 283.602c-2.555-.623-5.002-1.219-7.362-1.795 13.659 13.397 21.922 32.007 21.922 52.184v.004c0 14.174-4.07 27.885-11.509 39.604-6.497 10.235-17.806 16.408-29.929 16.408h-17.653l4.792 20.604h69.81c16.314-14.038 25.697-34.49 25.697-56.012v-.004c0-33.691-23.036-63.015-55.768-70.993z" fill="#c67d66"/><path d="m256.496 357.594c-25.924 0-38.49-21.305-41.513-32.57-1.106-4.121 1.339-8.358 5.46-9.465 4.108-1.095 8.336 1.326 9.456 5.427.267.948 6.205 21.156 26.597 21.156 20.681 0 26.531-20.91 26.588-21.122 1.105-4.121 5.345-6.559 9.465-5.461 4.121 1.107 6.566 5.344 5.46 9.465-3.023 11.265-15.588 32.57-41.513 32.57z" fill="#d8a595"/></svg>