<svg height="512pt" viewBox="0 -40 512 512" width="512pt" xmlns="http://www.w3.org/2000/svg"><path d="m495.019531 56.320312v5.207032c.003907 6.875-4.140625 13.074218-10.496093 15.699218l-23.125 3.328126-9.644532 1.109374c-4.476562.492188-7.800781 4.375-7.59375 8.875 0 0 7.679688 169.300782 7.679688 169.386719l-67.414063 1.367188c.425781-10.496094.941407-21.078125 1.367188-31.574219l3.070312-67.839844c.9375-21.335937 1.878907-42.582031 2.816407-63.914062.855468-18.433594.9375-36.867188.9375-55.296875.058593-17.996094 14.042968-32.875 32-34.046875.085937-.085938.085937-.085938.171874 0 .652344-.074219 1.308594-.101563 1.964844-.085938h4.433594c7.09375.195313 12.714844 6.046875 12.632812 13.140625.246094 5.734375 4.300782 10.59375 9.898438 11.859375l27.902344 6.144532c7.800781 1.742187 13.359375 8.648437 13.398437 16.640624zm0 0" fill="#549414"/><path d="m469.332031 56.746094v5.207031c.242188 6.488281-3.191406 12.5625-8.875 15.699219l-17.492187 2.988281-2.046875.339844-8.105469 1.109375c-4.089844.902344-6.871094 4.707031-6.488281 8.875 0 0 6.488281 169.300781 6.488281 169.386718l-56.917969 1.367188c.425781-10.496094.9375-21.078125 1.363281-31.574219l3.074219-67.839843c.9375-21.332032 1.875-42.582032 2.816407-63.914063.851562-18.433594.9375-36.863281.9375-55.296875.058593-17.996094 14.042968-32.875 32-34.046875.085937-.085937.085937-.085937.171874 0 6.085938 1.269531 10.285157 6.855469 9.8125 13.054687-.066406 5.347657 3.304688 10.128907 8.363282 11.863282l23.550781 6.144531c7.070313 2.394531 11.699219 9.179687 11.347656 16.636719zm0 0" fill="#60a917"/><path d="m503.464844 278.785156v136.53125c-.027344 9.414063-7.652344 17.039063-17.066406 17.070313h-460.796876c-9.414062-.03125-17.039062-7.65625-17.066406-17.070313v-136.53125zm0 0" fill="#283593"/><path d="m477.867188 278.785156v136.53125c-.027344 9.414063-7.652344 17.039063-17.066407 17.070313h-435.199219c-9.414062-.03125-17.039062-7.65625-17.066406-17.070313v-136.53125zm0 0" fill="#3f51b5"/><path d="m140.714844 260.523438-68.4375-8.960938c-9.214844-29.4375-.851563-67.839844 7.765625-94.804688.691406-2.304687 2.339843-4.207031 4.527343-5.21875 2.183594-1.011718 4.699219-1.035156 6.90625-.070312 2.78125.992188 4.761719 3.46875 5.121094 6.398438 5.546875 33.535156 17.835938 82.601562 44.117188 102.65625zm0 0" fill="#549414"/><path d="m123.640625 261.71875-60.332031-8.960938c-8.191406-29.441406-.765625-67.839843 6.828125-94.804687.546875-2.320313 2.117187-4.261719 4.265625-5.289063 2.78125.992188 4.761718 3.46875 5.121094 6.398438 5.546874 33.535156 17.835937 82.601562 44.117187 102.65625zm0 0" fill="#60a917"/><path d="m503.464844 244.652344v45.507812c-10.40625.347656-20.058594 5.519532-26.109375 13.996094-4.78125 5.234375-7.9375 8.761719-15.191407 8.761719-5.191406.070312-10.09375-2.394531-13.140624-6.597657l-2.132813-2.277343c-5.851563-8.714844-15.675781-13.925781-26.171875-13.878907-10.5.046876-20.277344 5.339844-26.050781 14.105469-1.835938 2.21875-3.894531 4.238281-6.144531 6.03125-2.621094 1.828125-5.769532 2.746094-8.960938 2.617188-7.167969 0-10.324219-3.414063-15.105469-8.761719-5.402343-7.296875-13.410156-12.226562-22.355469-13.765625-1.195312-.113281-2.476562-.226563-3.753906-.226563-10.414062.320313-20.078125 5.5-26.113281 13.992188-4.777344 5.234375-7.9375 8.761719-15.105469 8.761719-7.25 0-10.410156-3.527344-15.1875-8.761719-5.796875-8.738281-15.582031-13.992188-26.070312-13.992188-10.484375 0-20.273438 5.253907-26.070313 13.992188-4.777343 5.234375-7.933593 8.761719-15.1875 8.761719-7.167969 0-10.324219-3.527344-15.105469-8.761719-6.035156-8.492188-15.695312-13.671875-26.109374-13.992188-1.140626-.023437-2.28125.011719-3.414063.113282-9.085937 1.488281-17.234375 6.46875-22.699219 13.878906-4.777344 5.234375-7.9375 8.761719-15.105468 8.761719-7.25 0-10.410157-3.527344-15.1875-8.761719-6.015626-8.472656-15.640626-13.648438-26.027344-13.992188-10.414063.320313-20.074219 5.5-26.113282 13.992188-4.777343 5.234375-7.933593 8.761719-15.101562 8.761719-7.253906 0-10.410156-3.527344-15.191406-8.761719-6.011719-8.472656-15.640625-13.648438-26.023438-13.992188v-45.511718c7.167969 0 10.324219 3.527344 15.101563 8.757812 6.035156 8.496094 15.699219 13.671875 26.113281 13.996094 10.382812-.34375 20.011719-5.519531 26.027344-13.996094 4.777344-5.230468 7.933594-8.757812 15.1875-8.757812 7.167968 0 10.324218 3.527344 15.105468 8.757812 6.035157 8.496094 15.695313 13.671875 26.109376 13.996094 10.394531-.320312 20.03125-5.503906 26.027343-13.996094 3.050781-4.617187 7.863281-7.785156 13.3125-8.757812h1.195313c6.429687.054687 12.398437 3.347656 15.871094 8.757812 6.015624 8.476563 15.640624 13.652344 26.027343 13.996094 10.410157-.34375 20.0625-5.519531 26.113281-13.996094 4.777344-5.230468 7.933594-8.757812 15.1875-8.757812 7.167969 0 10.324219 3.527344 15.105469 8.757812 4.542969 5.917969 10.710938 10.386719 17.75 12.859375 2.722657.753907 5.535157 1.136719 8.359375 1.136719 10.386719-.34375 20.015625-5.519531 26.027344-13.996094 4.78125-5.230468 7.9375-8.757812 15.191406-8.757812.742188.015625 1.484375.089844 2.21875.226562 5.800782.570313 8.789063 3.980469 13.054688 8.53125 5.960937 8.488282 15.574218 13.675782 25.941406 13.996094 6.117188.117188 12.109375-1.757812 17.066406-5.347656 3.253906-2.550782 6.253906-5.410156 8.960938-8.535156 4.777344-5.34375 8.019531-8.871094 15.273437-8.871094 7.253907 0 10.410157 3.410156 15.191407 8.757812l2.300781 2.503906c5.824219 7.191407 14.558593 11.40625 23.808593 11.492188 10.410157-.34375 20.0625-5.519531 26.113282-13.996094 4.777344-5.230468 7.9375-8.757812 15.1875-8.757812zm0 0" fill="#02a9f4"/><path d="m341.332031 227.585938v17.234374c-.9375-.082031-1.960937-.167968-2.984375-.167968-9.761718-.148438-19.167968 3.636718-26.113281 10.496094-3.910156 4.183593-9.378906 6.5625-15.105469 6.570312-.625.015625-1.253906-.011719-1.875-.085938h-.171875c-1.683593-.132812-3.347656-.476562-4.949219-1.023437v-24.492187c-.015624-9.050782-3.605468-17.726563-9.984374-24.148438-4.960938-4.953125-11.34375-8.234375-18.261719-9.386719-.902344-.191406-1.8125-.332031-2.730469-.425781-1.023438-.085938-2.132812-.171875-3.15625-.171875s-2.132812.085937-3.15625.171875c-17.574219 1.570312-31.023438 16.320312-30.976562 33.960938v24.320312c-1.636719.65625-3.363282 1.058594-5.121094 1.195312h-.253906c-.625.074219-1.25.101563-1.878907.085938-5.726562-.007812-11.195312-2.386719-15.105469-6.570312-6.984374-6.796876-16.363281-10.566407-26.109374-10.496094-.941407 0-1.878907 0-2.730469.085937v-17.152343c.007812-43.980469 33.445312-80.742188 77.226562-84.90625 1.195313-.171876 2.472657-.257813 3.753907-.34375 1.449218 0 2.902343-.085938 4.351562-.085938s2.902344.085938 4.351562.085938c1.195313.085937 2.390626.171874 3.585938.34375 43.855469 4.058593 77.402344 40.859374 77.394531 84.90625zm0 0" fill="#549414"/><path d="m290.132812 247.125 6.914063 14.167969c-.589844.152343-1.1875.265625-1.792969.339843h-.171875c-1.683593-.132812-3.347656-.476562-4.949219-1.023437zm0 0" fill="#71c285"/><path d="m315.734375 229.804688v31.914062c-.855469-.085938-1.792969-.171875-2.644531-.171875-12.121094 0-18.519532-8.875-23.554688-4.179687-1.617187 1.554687-3.359375 2.984374-5.203125 4.265624v-21.675781c.089844-22.058593-15.796875-40.945312-37.546875-44.628906-1.195312-.171875-2.390625-.425781-3.671875-.511719-2.777343-.339844-5.585937-.339844-8.359375 0-23.367187 2.085938-41.257812 21.683594-41.21875 45.140625v21.761719c-1.964844-1.257812-3.796875-2.71875-5.460937-4.351562-5.988281-6.65625-14.511719-10.46875-23.464844-10.496094-.828125-.015625-1.652344.011718-2.476563.085937v-17.152343c0-44.03125 30.125-80.386719 68.695313-84.90625 1.191406-.171876 2.472656-.257813 3.753906-.34375 1.449219 0 2.902344-.085938 4.351563-.085938 1.449218 0 2.902344.085938 4.351562.085938 1.195313.085937 2.390625.171874 3.585938.34375 17.910156 2.304687 34.375 11.039062 46.335937 24.574218 14.691407 16.644532 22.710938 38.128906 22.527344 60.332032zm0 0" fill="#60a917"/><path d="m301.398438 259.414062v10.835938l-4.351563-8.957031c1.550781-.359375 3.023437-.996094 4.351563-1.878907zm0 0" fill="#4fba6f"/><path d="m441.015625 42.667969c0 7.871093-6.378906 14.25-14.25 14.25s-14.25-6.378907-14.25-14.25c0-7.871094 6.378906-14.25 14.25-14.25s14.25 6.378906 14.25 14.25zm0 0" fill="#fff"/><path d="m503.464844 295.851562-25.597656 8.535157v-51.203125l25.597656-8.53125zm0 0" fill="#0377bc"/><path d="m462.164062 270.25c-8.726562.164062-17.207031-2.914062-23.800781-8.636719l-2.324219-1.886719c-3.960937-4.191406-9.476562-6.558593-15.242187-6.539062-5.765625.015625-11.269531 2.414062-15.207031 6.625-2.773438 2.4375-5.785156 4.589844-8.992188 6.425781-5.246094 2.753907-11.109375 4.136719-17.035156 4.011719-9.699219.0625-19.03125-3.691406-25.984375-10.453125-3.445313-3.597656-8.035156-5.886719-12.980469-6.476563-.746094-.066406-1.496094-.136718-2.25-.136718-5.769531-.023438-11.28125 2.363281-15.214844 6.585937-14.554687 13.984375-37.558593 13.976563-52.101562-.027343-3.933594-4.1875-9.425781-6.5625-15.171875-6.558594-5.742187.003906-11.230469 2.386718-15.160156 6.582031-14.546875 13.980469-37.535157 13.980469-52.085938.007813-4.132812-4.332032-9.898437-6.722657-15.882812-6.589844-.429688 0-.84375.003906-1.234375.042968-5.074219.539063-9.792969 2.851563-13.320313 6.539063-14.550781 13.988281-37.558593 13.980469-52.097656-.023437-3.929687-4.1875-9.421875-6.5625-15.167969-6.558594s-11.230468 2.390625-15.15625 6.585937c-14.554687 13.984375-37.5625 13.976563-52.105468-.027343-3.902344-4.199219-9.382813-6.574219-15.113282-6.558594-4.714844 0-8.535156-3.820313-8.535156-8.53125 0-4.714844 3.820312-8.535156 8.535156-8.535156 9.707032-.054688 19.046875 3.710937 26.003906 10.484374 3.925782 4.195313 9.414063 6.578126 15.15625 6.582032 5.746094.007812 11.238282-2.367188 15.171876-6.558594 14.539062-14 37.542968-14.011719 52.097656-.027344 3.921875 4.195313 9.40625 6.582032 15.152344 6.585938 5.742187.007812 11.230468-2.367188 15.164062-6.554688 6.160156-5.945312 14.167969-9.613281 22.695312-10.398437.972657-.09375 2.199219-.113281 3.414063-.113281 9.746094-.0625 19.121094 3.714843 26.105469 10.507812 3.929687 4.191406 9.421875 6.5625 15.167968 6.558594 5.742188-.003906 11.230469-2.382813 15.15625-6.578125 14.550782-13.980469 37.539063-13.984375 52.09375-.007813 3.921876 4.195313 9.410157 6.582032 15.15625 6.585938 5.746094.007812 11.238282-2.367188 15.171876-6.558594 6.984374-6.792969 16.359374-10.570312 26.105468-10.507812 1.296875 0 2.59375.097656 3.777344.210937 8.390625.839844 16.253906 4.476563 22.332031 10.320313 3.90625 4.1875 9.378907 6.558593 15.105469 6.535156 3.09375.117187 6.164062-.558594 8.925781-1.960938 2.210938-1.3125 4.289063-2.832031 6.207031-4.542968 14.546876-14.023438 37.570313-14.082032 52.1875-.132813l2.132813 1.734375c3.566406 3.304688 8.292969 5.066406 13.148437 4.902344 5.769532.023437 11.285157-2.359375 15.21875-6.578125 6.984376-6.78125 16.351563-10.546875 26.082032-10.488281 4.714844 0 8.535156 3.820312 8.535156 8.535156 0 4.710937-3.820312 8.53125-8.535156 8.53125-5.765625-.023438-11.28125 2.363281-15.214844 6.582031-6.984375 6.777344-16.351562 10.546875-26.085938 10.484375zm0 0"/><path d="m462.164062 321.453125c-8.726562.160156-17.207031-2.917969-23.800781-8.640625l-2.324219-1.886719c-3.960937-4.1875-9.476562-6.554687-15.242187-6.539062s-11.269531 2.414062-15.207031 6.625c-2.773438 2.4375-5.785156 4.589843-8.992188 6.425781-5.246094 2.753906-11.109375 4.136719-17.035156 4.015625-9.699219.058594-19.03125-3.695313-25.984375-10.457031-3.445313-3.597656-8.035156-5.882813-12.980469-6.472656-.746094-.066407-1.496094-.136719-2.25-.136719-5.769531-.027344-11.28125 2.359375-15.214844 6.582031-14.554687 13.988281-37.558593 13.976562-52.101562-.023438-3.933594-4.191406-9.425781-6.566406-15.171875-6.5625-5.742187.003907-11.230469 2.386719-15.160156 6.582032-14.546875 13.980468-37.535157 13.984375-52.085938.007812-4.148437-4.308594-9.902343-6.695312-15.882812-6.585937-.429688 0-.84375.003906-1.234375.039062-5.074219.539063-9.792969 2.855469-13.320313 6.539063-14.550781 13.992187-37.558593 13.980468-52.097656-.019532-3.929687-4.191406-9.421875-6.566406-15.167969-6.5625-5.746094.007813-11.230468 2.390626-15.15625 6.585938-14.554687 13.988281-37.5625 13.976562-52.105468-.023438-3.902344-4.199218-9.382813-6.578124-15.113282-6.558593-4.714844 0-8.535156-3.824219-8.535156-8.535157 0-4.710937 3.820312-8.535156 8.535156-8.535156 9.707032-.054687 19.046875 3.710938 26.003906 10.484375 3.925782 4.195313 9.414063 6.578125 15.15625 6.585938 5.746094.003906 11.238282-2.371094 15.171876-6.5625 14.539062-13.996094 37.542968-14.011719 52.097656-.027344 3.921875 4.195313 9.40625 6.582031 15.152344 6.589844 5.742187.003906 11.230468-2.367188 15.164062-6.554688 6.160156-5.949219 14.167969-9.617187 22.695312-10.402343.972657-.09375 2.199219-.113282 3.414063-.113282 9.746094-.058594 19.121094 3.714844 26.105469 10.507813 3.929687 4.191406 9.421875 6.5625 15.167968 6.558593 5.742188-.003906 11.230469-2.382812 15.15625-6.578124 14.550782-13.980469 37.539063-13.984376 52.09375-.007813 3.921876 4.199219 9.410157 6.582031 15.15625 6.585937 5.746094.007813 11.238282-2.367187 15.171876-6.558593 6.984374-6.792969 16.359374-10.570313 26.105468-10.507813 1.296875 0 2.59375.097656 3.777344.210938 8.390625.839844 16.253906 4.476562 22.332031 10.320312 3.90625 4.191406 9.378907 6.558594 15.105469 6.539063 3.09375.113281 6.164062-.5625 8.925781-1.964844 2.210938-1.308594 4.289063-2.832031 6.207031-4.542969 14.546876-14.023437 37.570313-14.082031 52.1875-.132812l2.132813 1.734375c3.566406 3.304687 8.292969 5.066406 13.148437 4.90625 5.769532.019531 11.285157-2.363281 15.21875-6.582031 6.984376-6.78125 16.351563-10.546876 26.082032-10.488282 4.714844 0 8.535156 3.824219 8.535156 8.535156 0 4.710938-3.820312 8.535157-8.535156 8.535157-5.765625-.023438-11.28125 2.359375-15.214844 6.578125-6.984375 6.78125-16.351562 10.546875-26.085938 10.488281zm0 0"/><path d="m341.332031 253.355469c-4.710937 0-8.53125-3.820313-8.53125-8.535157v-17.234374c0-42.417969-34.386719-76.800782-76.800781-76.800782s-76.800781 34.382813-76.800781 76.800782v17.152343c0 4.710938-3.820313 8.53125-8.53125 8.53125-4.714844 0-8.535157-3.820312-8.535157-8.53125v-17.152343c0-51.84375 42.027344-93.867188 93.867188-93.867188s93.867188 42.023438 93.867188 93.867188v17.234374c0 4.714844-3.820313 8.535157-8.535157 8.535157zm0 0"/><path d="m290.132812 269.398438c-4.710937 0-8.53125-3.820313-8.53125-8.535157v-24.746093c0-14.136719-11.464843-25.597657-25.601562-25.597657s-25.601562 11.460938-25.601562 25.597657v24.746093c0 4.714844-3.820313 8.535157-8.53125 8.535157-4.714844 0-8.535157-3.820313-8.535157-8.535157v-24.746093c0-23.5625 19.105469-42.664063 42.667969-42.664063s42.667969 19.101563 42.667969 42.664063v24.746093c0 4.714844-3.820313 8.535157-8.535157 8.535157zm0 0"/><path d="m384.433594 269.824219-.390625-.007813c-2.261719-.101562-4.390625-1.097656-5.917969-2.769531-1.527344-1.667969-2.328125-3.878906-2.226562-6.136719l7.253906-163.296875c.828125-18.582031.933594-37.386719.929687-54.945312.027344-23.554688 19.113281-42.6406252 42.667969-42.667969h4.4375c11.65625.242188 21.019531 9.683594 21.160156 21.34375.050782 1.867188 1.371094 3.464844 3.203125 3.855469l27.902344 6.144531c11.738281 2.566406 20.105469 12.960938 20.097656 24.976562v5.207032c.035157 13.066406-9.800781 24.050781-22.789062 25.460937l-28.058594 3.125c7.671875 169.535157 7.671875 169.535157 7.671875 169.8125 0 4.640625-3.707031 8.429688-8.347656 8.527344l-.1875.007813c-4.570313-.003907-8.332032-3.609376-8.523438-8.175782-.066406-1.550781-7.660156-169.386718-7.660156-169.386718-.398438-8.984376 6.226562-16.738282 15.160156-17.746094l28.074219-3.125c4.332031-.472656 7.609375-4.140625 7.59375-8.5v-5.207032c-.015625-4.015624-2.828125-7.480468-6.757813-8.320312l-27.839843-6.132812c-9.402344-2.082032-16.21875-10.246094-16.585938-19.867188.191407-2.484375-1.632812-4.671875-4.113281-4.933594h-4.433594c-14.132812.015625-25.585937 11.46875-25.601562 25.601563 0 17.753906-.109375 36.792969-.945313 55.703125l-7.253906 163.304687c-.207031 4.554688-3.957031 8.144531-8.519531 8.148438zm0 0"/><path d="m435.300781 42.667969c0 4.710937-3.824219 8.53125-8.535156 8.53125s-8.535156-3.820313-8.535156-8.53125c0-4.714844 3.824219-8.535157 8.535156-8.535157s8.535156 3.820313 8.535156 8.535157zm0 0"/><path d="m140.707031 269.058594c-1.867187 0-3.683593-.617188-5.164062-1.75-27.890625-21.28125-41.152344-70.5-47.367188-108.046875-8.257812 25.921875-16.304687 62.441406-7.753906 89.753906.980469 2.925781.300781 6.15625-1.773437 8.445313-2.078126 2.285156-5.226563 3.273437-8.238282 2.578124-3.007812-.695312-5.40625-2.960937-6.273437-5.925781-9.882813-31.570312-1.226563-71.777343 7.773437-99.949219 2.375-7.527343 9.597656-12.445312 17.472656-11.894531 7.875.554688 14.339844 6.4375 15.632813 14.222657 8.070313 48.75 22.589844 83.292968 40.875 97.246093 2.910156 2.222657 4.082031 6.050781 2.90625 9.519531-1.171875 3.46875-4.429687 5.800782-8.089844 5.800782zm0 0"/><path d="m477.007812 87.382812c-1.636718 0-3.238281-.472656-4.617187-1.359374-6.304687-4.300782-12.203125-9.167969-17.625-14.539063-3.234375-3.347656-3.1875-8.671875.105469-11.960937 3.292968-3.292969 8.613281-3.339844 11.960937-.105469 4.570313 4.511719 9.523438 8.613281 14.808594 12.253906 3.1875 2.050781 4.636719 5.957031 3.566406 9.589844-1.070312 3.632812-4.410156 6.125-8.199219 6.117187zm0 0"/></svg>