<svg height="430pt" viewBox="-17 0 430 430.08" width="430pt" xmlns="http://www.w3.org/2000/svg"><path d="m211.664062 327.679688h163.84375v-238.933594c0-45.242188-36.679687-81.917969-81.921874-81.917969-45.242188 0-81.921876 36.675781-81.921876 81.917969zm0 0" fill="#f4a14e"/><path d="m375.507812 334.507812h-163.84375c-3.773437 0-6.824218-3.058593-6.824218-6.828124v-238.933594c0-48.9375 39.8125-88.746094 88.746094-88.746094 48.933593 0 88.746093 39.808594 88.746093 88.746094v238.933594c0 3.769531-3.050781 6.828124-6.824219 6.828124zm-157.015624-13.65625h150.1875v-232.105468c0-41.40625-33.6875-75.09375-75.09375-75.09375s-75.09375 33.6875-75.09375 75.09375zm0 0" fill="#54596e"/><path d="m54.652344 261.980469c0 88.925781 31.386718 161.273437 120.3125 161.273437h25.613281c86.707031 0 157.644531-68.773437 161.140625-154.636718 1.582031-38.875-27.554688-73.949219-66.449219-74.886719-38.472656-.921875-69.949219 29.984375-69.949219 68.25 0 6.574219-7.929687 18.898437-16.144531 29.90625-14.808593 19.847656-40.203125 26.726562-64.085937 20.179687-42.652344-11.691406-51.140625-82.59375-42.652344-100.441406 17.933594-37.683594 66.746094-76.902344 61.441406-81.917969-4.519531-4.277343-47.210937 24.53125-68.265625 27.304688-21.058593 2.777343-88.746093-27.304688-88.746093-27.304688l47.785156 81.917969zm0 0" fill="#55a6ff"/><path d="m200.578125 430.078125h-25.613281c-81.984375 0-127.140625-59.699219-127.140625-168.097656v-48.507813l-46.859375-80.324218c-1.484375-2.5625-1.160156-5.789063.816406-7.996094 1.980469-2.210938 5.144531-2.894532 7.859375-1.683594 25.496094 11.328125 71.226563 28.621094 85.078125 26.777344 9.859375-1.300782 26.59375-9.773438 40.042969-16.578125 19.933593-10.089844 28.1875-14.253907 33.804687-8.921875 7.203125 6.800781-.226562 14.902344-16.5 32.644531-14.257812 15.539063-33.777344 36.820313-43.460937 57.167969-4.140625 8.699218-3.300781 37.363281 7.414062 60.742187 5.1875 11.332031 14.753907 25.761719 30.882813 30.183594 21.972656 6.027344 44.292968-.90625 56.804687-17.679687 14.375-19.257813 14.789063-25.207032 14.789063-25.824219 0-20.398438 8.039062-39.488281 22.640625-53.738281 14.605469-14.253907 33.890625-21.945313 54.296875-21.332032 19.46875.464844 37.734375 8.773438 51.425781 23.382813 14.664063 15.636719 22.5625 36.996093 21.683594 58.601562-3.679688 90.386719-77.457031 161.183594-167.964844 161.183594zm-177.5-286.128906 37.472656 64.238281c.609375 1.042969.929688 2.230469.929688 3.4375v50.355469c0 70.457031 19.683593 154.445312 113.484375 154.445312h25.613281c83.15625 0 150.941406-65.046875 154.320313-148.085937.726562-17.972656-5.832032-35.726563-18-48.710938-11.171876-11.917968-26.011719-18.691406-41.796876-19.074218-16.667968-.332032-32.488281 5.800781-44.429687 17.453124-11.945313 11.664063-18.523437 27.277344-18.523437 43.972657 0 4.527343-1.8125 12.972656-17.492188 33.988281-15.90625 21.304688-43.894531 30.210938-71.367188 22.679688-16.78125-4.597657-30.507812-17.621094-39.679687-37.65625-12.066406-26.335938-13.546875-59.238282-7.335937-72.296876 10.566406-22.199218 30.886718-44.355468 45.734374-60.535156 1.59375-1.738281 3.234376-3.527344 4.832032-5.289062-2.039063 1.015625-4.050782 2.035156-5.910156 2.976562-15.121094 7.65625-32.253907 16.328125-44.421876 17.933594-15.621093 2.085938-51.0625-10.8125-73.429687-19.832031zm0 0" fill="#54596e"/><path d="m261.351562 143.359375h64.46875c34.980469 0 63.339844 28.355469 63.339844 63.339844v32.234375h-191.148437v-32.234375c0-34.984375 28.355469-63.339844 63.339843-63.339844zm0 0" fill="#ffd578"/><path d="m389.160156 245.761719h-191.148437c-3.773438 0-6.824219-3.058594-6.824219-6.828125v-32.238282c0-38.6875 31.476562-70.160156 70.164062-70.160156h64.464844c38.6875 0 70.167969 31.472656 70.167969 70.160156v32.238282c0 3.769531-3.050781 6.828125-6.824219 6.828125zm-184.320312-13.65625h177.492187v-25.410157c0-31.15625-25.355469-56.507812-56.511719-56.507812h-64.464843c-31.164063 0-56.515625 25.351562-56.515625 56.507812zm0 0" fill="#54596e"/><path d="m293.585938 163.839844c33.933593 0 61.441406-27.507813 61.441406-61.441406v-27.304688h-122.882813v27.304688c0 33.933593 27.507813 61.441406 61.441407 61.441406zm0 0" fill="#ffd578"/><path d="m293.585938 170.667969c-37.640626 0-68.265626-30.625-68.265626-68.269531v-27.304688c0-3.769531 3.050782-6.828125 6.824219-6.828125h122.882813c3.773437 0 6.824218 3.058594 6.824218 6.828125v27.304688c0 37.644531-30.625 68.269531-68.265624 68.269531zm-54.613282-88.746094v20.476563c0 30.117187 24.5 54.613281 54.613282 54.613281 30.113281 0 54.613281-24.496094 54.613281-54.613281v-20.476563zm0 0" fill="#54596e"/><path d="m293.585938 245.761719c-3.773438 0-6.828126-3.058594-6.828126-6.828125v-27.308594c0-3.769531 3.054688-6.824219 6.828126-6.824219 3.773437 0 6.828124 3.054688 6.828124 6.824219v27.308594c0 3.769531-3.054687 6.828125-6.828124 6.828125zm0 0" fill="#54596e"/><path d="m355.027344 218.453125h-122.882813c-3.773437 0-6.824219-3.054687-6.824219-6.828125 0-3.769531 3.050782-6.824219 6.824219-6.824219h122.882813c3.773437 0 6.824218 3.054688 6.824218 6.824219 0 3.773438-3.050781 6.828125-6.824218 6.828125zm0 0" fill="#54596e"/><path d="m293.585938 211.625c0-15.082031 12.226562-27.304688 27.308593-27.304688 15.078125 0 27.304688 12.222657 27.304688 27.304688zm0 0" fill="#55a6ff"/><path d="m348.199219 218.453125h-54.613281c-3.773438 0-6.828126-3.054687-6.828126-6.828125 0-18.816406 15.316407-34.132812 34.136719-34.132812 18.816407 0 34.132813 15.316406 34.132813 34.132812 0 3.773438-3.054688 6.828125-6.828125 6.828125zm-46.621094-13.652344h38.628906c-2.820312-7.945312-10.414062-13.652343-19.3125-13.652343-8.902343 0-16.496093 5.707031-19.316406 13.652343zm0 0" fill="#54596e"/><path d="m238.972656 211.625c0-15.082031 12.226563-27.304688 27.304688-27.304688 15.082031 0 27.308594 12.222657 27.308594 27.304688zm0 0" fill="#55a6ff"/><path d="m293.585938 218.453125h-54.613282c-3.773437 0-6.828125-3.054687-6.828125-6.828125 0-18.816406 15.316407-34.132812 34.132813-34.132812 18.820312 0 34.136718 15.316406 34.136718 34.132812 0 3.773438-3.054687 6.828125-6.828124 6.828125zm-46.621094-13.652344h38.628906c-2.820312-7.945312-10.414062-13.652343-19.316406-13.652343-8.898438 0-16.492188 5.707031-19.3125 13.652343zm0 0" fill="#54596e"/><g fill="#fff"><path d="m300.414062 307.199219c-11.292968 0-20.480468-9.1875-20.480468-20.480469 0-3.769531 3.050781-6.824219 6.824218-6.824219 3.773438 0 6.828126 3.054688 6.828126 6.824219 0 3.765625 3.058593 6.828125 6.828124 6.828125 3.765626 0 6.824219-3.0625 6.824219-6.828125 0-3.769531 3.054688-6.824219 6.828125-6.824219 3.773438 0 6.828125 3.054688 6.828125 6.824219 0 11.292969-9.1875 20.480469-20.480469 20.480469zm0 0"/><path d="m266.277344 273.066406c-11.292969 0-20.476563-9.1875-20.476563-20.480468 0-3.769532 3.050781-6.824219 6.824219-6.824219s6.828125 3.054687 6.828125 6.824219c0 3.765624 3.058594 6.828124 6.824219 6.828124 3.769531 0 6.828125-3.0625 6.828125-6.828124 0-3.769532 3.054687-6.824219 6.828125-6.824219 3.773437 0 6.824218 3.054687 6.824218 6.824219 0 11.292968-9.183593 20.480468-20.480468 20.480468zm0 0"/><path d="m109.265625 348.160156c-11.292969 0-20.480469-9.1875-20.480469-20.480468 0-3.769532 3.054688-6.828126 6.828125-6.828126 3.773438 0 6.824219 3.058594 6.824219 6.828126 0 3.761718 3.0625 6.828124 6.828125 6.828124s6.828125-3.066406 6.828125-6.828124c0-3.769532 3.050781-6.828126 6.824219-6.828126 3.773437 0 6.828125 3.058594 6.828125 6.828126 0 11.292968-9.1875 20.480468-20.480469 20.480468zm0 0"/><path d="m170.707031 361.8125c-11.292969 0-20.480469-9.1875-20.480469-20.480469 0-3.769531 3.050782-6.824219 6.824219-6.824219 3.773438 0 6.828125 3.054688 6.828125 6.824219 0 3.765625 3.058594 6.828125 6.828125 6.828125 3.765625 0 6.824219-3.0625 6.824219-6.828125 0-3.769531 3.054688-6.824219 6.828125-6.824219s6.828125 3.054688 6.828125 6.824219c0 11.292969-9.1875 20.480469-20.480469 20.480469zm0 0"/><path d="m191.1875 402.773438c-11.292969 0-20.480469-9.1875-20.480469-20.480469 0-3.769531 3.050781-6.828125 6.824219-6.828125s6.828125 3.058594 6.828125 6.828125c0 3.761719 3.058594 6.828125 6.828125 6.828125 3.765625 0 6.824219-3.066406 6.824219-6.828125 0-3.769531 3.054687-6.828125 6.828125-6.828125 3.773437 0 6.824218 3.058594 6.824218 6.828125 0 11.292969-9.183593 20.480469-20.476562 20.480469zm0 0"/><path d="m273.105469 361.8125c-11.292969 0-20.480469-9.1875-20.480469-20.480469 0-3.769531 3.054688-6.824219 6.828125-6.824219s6.824219 3.054688 6.824219 6.824219c0 3.765625 3.0625 6.828125 6.828125 6.828125s6.828125-3.0625 6.828125-6.828125c0-3.769531 3.050781-6.824219 6.824218-6.824219 3.773438 0 6.828126 3.054688 6.828126 6.824219 0 11.292969-9.1875 20.480469-20.480469 20.480469zm0 0"/><path d="m252.625 395.945312c-11.292969 0-20.480469-9.1875-20.480469-20.480468 0-3.769532 3.054688-6.824219 6.828125-6.824219 3.773438 0 6.828125 3.054687 6.828125 6.824219 0 3.765625 3.058594 6.828125 6.824219 6.828125s6.828125-3.0625 6.828125-6.828125c0-3.769532 3.050781-6.824219 6.824219-6.824219 3.773437 0 6.828125 3.054687 6.828125 6.824219 0 11.292968-9.1875 20.480468-20.480469 20.480468zm0 0"/><path d="m238.972656 320.851562c-11.292968 0-20.480468-9.183593-20.480468-20.476562 0-3.773438 3.054687-6.828125 6.828124-6.828125 3.773438 0 6.824219 3.054687 6.824219 6.828125 0 3.761719 3.0625 6.824219 6.828125 6.824219s6.828125-3.0625 6.828125-6.824219c0-3.773438 3.050781-6.828125 6.824219-6.828125s6.828125 3.054687 6.828125 6.828125c0 11.292969-9.1875 20.476562-20.480469 20.476562zm0 0"/></g><path d="m81.964844 191.148438c-.542969 0-1.105469-.066407-1.660156-.203126-3.660157-.914062-5.886719-4.621093-4.964844-8.28125l6.824218-27.308593c.914063-3.65625 4.613282-5.90625 8.277344-4.964844 3.660156.914063 5.882813 4.617187 4.964844 8.28125l-6.828125 27.304687c-.773437 3.101563-3.550781 5.171876-6.613281 5.171876zm0 0" fill="#54596e"/></svg>