<?xml version="1.0" encoding="iso-8859-1"?>
<!-- Generator: Adobe Illustrator 22.1.0, SVG Export Plug-In . SVG Version: 6.00 Build 0)  -->
<svg xmlns="http://www.w3.org/2000/svg" xmlns:xlink="http://www.w3.org/1999/xlink" version="1.1" id="Layer_3" x="0px" y="0px" viewBox="0 0 64 64" style="enable-background:new 0 0 64 64;" xml:space="preserve" width="512" height="512">
<g>
	<g>
		<polyline style="fill:#D1D8DB;" points="22,36 22,32 14,34 16.217,38.434   "/>
	</g>
	<g>
		<polyline style="fill:#D1D8DB;" points="11.114,21.771 9,26 16,29 18.072,24.855   "/>
	</g>
	<g>
		<path style="fill:#74564A;" d="M29,52v7c0,1.657-1.343,3-3,3h0c-1.657,0-3-1.343-3-3v-7"/>
	</g>
	<g>
		<path style="fill:#74564A;" d="M39,51v8c0,1.657-1.343,3-3,3h0c-1.657,0-3-1.343-3-3v-7"/>
	</g>
	<g>
		<path style="fill:#2C665C;" d="M47,19h6c1.657,0,3,1.343,3,3v0c0,1.657-1.343,3-3,3h-4"/>
	</g>
	<g>
		<path style="fill:#429488;" d="M49,25h6c1.657,0,3,1.343,3,3v0c0,1.657-1.343,3-3,3h-5"/>
	</g>
	<g>
		<path style="fill:#2C665C;" d="M50,31h5c1.657,0,3,1.343,3,3v0c0,1.657-1.343,3-3,3h-6"/>
	</g>
	<g>
		<path style="fill:#429488;" d="M49,37h4c1.657,0,3,1.343,3,3v0c0,1.657-1.343,3-3,3h-5"/>
	</g>
	<g>
		<path style="fill:#9E9C3D;" d="M46.662,18.183C47.513,16.879,48,15.473,48,14c0-6.627-9.402-12-21-12S6,7.373,6,14    c0,6.541,9.164,11.85,20.554,11.987C26.195,27.885,26,29.904,26,32c0,1.048,0.063,2.07,0.156,3.075C18.744,35.621,13,39.405,13,44    c0,4.971,6.716,9,15,9c2.88,0,5.56-0.495,7.845-1.339C36.545,51.873,37.263,52,38,52c6.627,0,12-8.954,12-20    C50,26.635,48.725,21.774,46.662,18.183z"/>
	</g>
	<g>
		<path style="fill:#D1DA59;" d="M47,32c0-5.365-1.275-10.226-3.338-13.817C44.513,16.879,45,15.473,45,14    c0-6.338-8.605-11.516-19.5-11.957C14.605,2.484,6,7.662,6,14c0,6.541,9.164,11.85,20.554,11.987C26.195,27.885,26,29.904,26,32    c0,1.048,0.063,2.07,0.156,3.075C18.744,35.621,13,39.405,13,44c0,4.971,6.716,9,15,9c2.88,0,5.56-0.495,7.845-1.339    c0.225,0.068,0.454,0.111,0.682,0.16C42.432,50.568,47,42.181,47,32z"/>
	</g>
	<g>
		<circle style="fill:#FFFFFF;" cx="20" cy="14" r="6"/>
	</g>
	<g>
		<circle style="fill:#39474E;" cx="19" cy="14" r="2"/>
	</g>
</g>
</svg>
