<?xml version="1.0" encoding="iso-8859-1"?>
<!-- Generator: Adobe Illustrator 22.1.0, SVG Export Plug-In . SVG Version: 6.00 Build 0)  -->
<svg xmlns="http://www.w3.org/2000/svg" xmlns:xlink="http://www.w3.org/1999/xlink" version="1.1" id="Layer_3" x="0px" y="0px" viewBox="0 0 64 64" style="enable-background:new 0 0 64 64;" xml:space="preserve" width="512" height="512">
<g>
	<g>
		<path style="fill:#9F2857;" d="M45,62L45,62c2.621-4.587,4-9.779,4-15.062V39l8,10l1.418-2.552C60.767,42.219,62,37.461,62,32.624    v0C62,16.799,49.994,3.21,34.21,2.079C16.642,0.821,2,14.701,2,32v0.624c0,4.837,1.233,9.595,3.582,13.824L7,49l8-10v7.938    c0,5.283,1.379,10.475,4,15.062l0,0l1.8-2.4C23.444,56.075,27.593,54,32,54h0c4.407,0,8.556,2.075,11.2,5.6L45,62L45,62z"/>
	</g>
	<g>
		<path style="fill:#D73964;" d="M57,49l1.418-2.552c2.123-3.822,3.325-8.077,3.538-12.432C61.175,18.888,49.456,6.171,34.21,5.079    C17.085,3.853,2.746,17.013,2.034,33.702c0.169,4.464,1.373,8.832,3.548,12.746L7,49l8-10v3v4.938c0,5.283,1.379,10.475,4,15.062    l1.8-2.4C23.444,56.075,27.593,54,32,54s8.556,2.075,11.2,5.6L45,62c2.621-4.587,4-9.779,4-15.062V42v-3L57,49z"/>
	</g>
	<g>
		<polyline style="fill:#FFFFFF;" points="21,40 25,46 27,37   "/>
	</g>
	<g>
		<polyline style="fill:#FFFFFF;" points="43,40 39,46 37,37   "/>
	</g>
	<g>
		<circle style="fill:#74564A;" cx="22" cy="21" r="9"/>
	</g>
	<g>
		<circle style="fill:#FFFFFF;" cx="43" cy="21" r="6"/>
	</g>
	<g>
		<circle style="fill:#39474E;" cx="22" cy="21" r="4"/>
	</g>
	<g>
		<circle style="fill:#39474E;" cx="43" cy="21" r="2"/>
	</g>
	<g>
		<g>
			<path style="fill:#9F2857;" d="M44.349,42.759l-2.444-2.096C39.148,38.301,35.631,37,32,37s-7.148,1.301-9.905,3.663     l-2.443,2.096l-1.303-1.518l2.444-2.096C23.912,36.472,27.892,35,32,35s8.088,1.472,11.206,4.146l2.445,2.096L44.349,42.759z"/>
		</g>
	</g>
</g>
</svg>
