<svg height="480pt" viewBox="0 0 480 480" width="480pt" xmlns="http://www.w3.org/2000/svg"><path d="m152 328h176c79.527344 0 144 64.472656 144 144h-464c0-79.527344 64.472656-144 144-144zm0 0" fill="#d1d3d4"/><path d="m470.71875 453.039062-268.160156-36.238281-191.839844 27.359375c-1.800781 9.171875-2.714844 18.492188-2.71875 27.839844h464c.019531-6.34375-.40625-12.679688-1.28125-18.960938zm0 0" fill="#e6e7e8"/><path d="m470.71875 453.039062c-3.367188-25.703124-13.652344-50.007812-29.757812-70.320312l-238.402344 34.082031zm0 0" fill="#d8d7da"/><path d="m292.601562 19.398438c-58.023437-26.339844-126.582031-5.824219-160.601562 48.058593l94.558594 17.984375zm0 0" fill="#d1d3d4"/><path d="m338.128906 53.871094c-12.394531-14.765625-27.953125-26.546875-45.527344-34.472656l-66.042968 66.042968 67.203125 12.796875zm0 0" fill="#e6e7e8"/><path d="m114.3125 112.097656c-1.515625 7.875-2.289062 15.878906-2.3125 23.902344v12.160156l128-12.160156zm0 0" fill="#d1d3d4"/><path d="m356.550781 284.710938c7.539063-16.550782 11.441407-34.523438 11.449219-52.710938v-27.199219l-168.800781-16.878906-87.199219-8.722656v52.800781c.027344 11.746094 1.675781 23.433594 4.894531 34.726562zm0 0" fill="#f1f2f2"/><path d="m368 171.839844v-11.441406l-128-24.398438-128 12.160156v31.039063l87.160156 8.722656zm0 0" fill="#e6e7e8"/><path d="m368 160.398438v-24.398438c-.015625-8.089844-.800781-16.15625-2.34375-24.097656l-71.878906-13.679688-161.777344-30.765625c-8.6875 13.617188-14.699219 28.769531-17.710938 44.640625l125.710938 23.902344zm0 0" fill="#f1f2f2"/><path d="m368 204.800781v-32.960937l-168.839844 16.082031zm0 0" fill="#d1d3d4"/><path d="m240 360c11.425781-.035156 22.796875-1.601562 33.808594-4.65625l-153.753906-78.992188c18.535156 50.238282 66.398437 83.617188 119.945312 83.648438zm0 0" fill="#f1f2f2"/><path d="m291.832031 300.542969-45.839843-24.128907-129.097657-9.6875c.921875 3.273438 1.992188 6.464844 3.203125 9.601563l153.75 78.992187c21.894532-5.992187 41.796875-17.703124 57.664063-33.9375zm0 0" fill="#e6e7e8"/><path d="m331.816406 321.070312c10.277344-10.601562 18.648438-22.902343 24.734375-36.359374l-110.558593-8.296876 45.839843 24.128907zm0 0" fill="#d1d3d4"/><path d="m291.832031 300.542969 39.640625 20.863281c.113282-.117188.230469-.222656.34375-.335938zm0 0" fill="#e6e7e8"/><path d="m365.65625 111.902344c-4.070312-21.375-13.546875-41.351563-27.527344-58.03125l-44.351562 44.351562zm0 0" fill="#d1d3d4"/><path d="m440.960938 382.71875c-13.671876-17.300781-31.136719-31.230469-51.039063-40.71875l-358.402344 51.199219c-.160156.160156-.238281.242187-.238281.402343-10.074219 15.355469-17.058594 32.53125-20.5625 50.558594l191.839844-27.359375zm0 0" fill="#e0e0e2"/><path d="m29.921875 393.441406 1.359375.160156c0-.160156.078125-.242187.238281-.402343zm0 0" fill="#bddbff"/><path d="m479.65625 461.6875c-.222656-3.359375-.566406-6.632812-1.015625-9.785156v-.0625c-3.597656-27.078125-14.464844-52.679688-31.441406-74.078125-1.792969-2.273438-3.65625-4.496094-5.597657-6.664063-3.761718-4.214844-7.75-8.222656-11.945312-12l-1-.882812c-8.460938-7.492188-17.726562-14.027344-27.625-19.488282-.984375-.535156-1.992188-1.007812-2.984375-1.527343-1.597656-.800781-3.125-1.65625-4.71875-2.398438-15.882813-7.617187-32.992187-12.363281-50.527344-14.023437 21.40625-24.625 33.195313-56.152344 33.199219-88.777344v-96c0-75.109375-60.890625-136-136-136s-136 60.890625-136 136v96c0 32.601562 11.769531 64.109375 33.152344 88.71875-35.039063 3.375-67.804688 18.859375-92.65625 43.785156-7.410156 7.398438-14.015625 15.5625-19.695313 24.359375-.097656.144531-.183593.296875-.28125.449219-2.070312 3.199219-3.902343 6.449219-5.71875 9.734375-.503906.90625-1.097656 1.769531-1.601562 2.679687-1.710938 3.257813-3.199219 6.617188-4.640625 9.976563-.453125 1.050781-1.015625 2.058594-1.445313 3.121094-1.417969 3.480469-2.585937 7.054687-3.738281 10.640625-.328125 1.015625-.75 1.984375-1.054688 3.007812-1.375 4.628906-2.535156 9.347656-3.480468 14.152344-1.886719 9.675781-2.839844 19.515625-2.839844 29.375 0 4.417969 3.582031 8 8 8h464c4.417969 0 8-3.582031 8-8 0-3.519531-.113281-6.96875-.34375-10.3125zm-458.136719-28c.242188-.800781.519531-1.597656.800781-2.398438.921876-2.945312 1.941407-5.851562 3.054688-8.722656.417969-1.046875.800781-2.09375 1.265625-3.125 1.320313-3.152344 2.75-6.257812 4.3125-9.289062.207031-.398438.382813-.800782.589844-1.214844 1.503906-2.859375 3.199219-5.601562 4.929687-8.363281l352-50.277344c3.75 1.855469 7.4375 3.832031 11.007813 6.039063.800781.519531 1.597656 1.097656 2.398437 1.601562 3.132813 2.03125 6.171875 4.183594 9.121094 6.460938 1.089844.847656 2.175781 1.707031 3.238281 2.578124 3.027344 2.488282 5.941407 5.097657 8.746094 7.824219.550781.542969 1.144531 1.039063 1.6875 1.597657.152344.152343.28125.335937.433594.488281l-403.800781 57.679687c.078124-.285156.136718-.589844.214843-.878906zm116.183594-139.289062 111.199219 57.144531c-2.949219.21875-5.902344.449219-8.910156.449219-41.804688-.050782-80.5625-21.875-102.289063-57.59375zm-16.734375-172.894532 62.230469 11.855469-63.199219 6v-3.359375c.027344-4.847656.347656-9.6875.96875-14.496094zm237.640625-2.800781c.878906 5.726563 1.34375 11.503906 1.390625 17.296875v14.726562l-236-44.933593c2.667969-10.304688 6.703125-20.203125 12-29.433594zm-7.203125 46.679687-152 14.511719-79.40625-7.894531v-16.558594l119.535156-11.363281zm8.59375 15.257813v15.359375l-78.480469-7.847656zm-49.886719-87.449219 27.199219-27.199218c7.839844 10.828124 13.8125 22.894531 17.664062 35.695312zm19.863281 217.9375-46.527343-23.882812 60.445312 4.539062c-3.984375 6.890625-8.648437 13.371094-13.917969 19.34375zm-1.976562 24.871094c9.179688.03125 18.332031.988281 27.320312 2.863281l-38.90625 5.601563c3.824219-2.632813 7.507813-5.457032 11.042969-8.464844zm-85.601562-51.832031 75.617187 38.816406c-12.613281 10.867187-27.351563 18.992187-43.28125 23.847656l-137.277344-70.542969zm194.960937 107.144531c11.511719 15.558594 19.550781 33.40625 23.585937 52.335938l-200.394531-27.089844zm-85.933594-115.007812-228.226562-17.105469c-2.105469-8.914063-3.179688-18.039063-3.199219-27.199219v-44l240 24v20c-.015625 15.179688-2.925781 30.214844-8.574219 44.304688zm-24.386719-222.664063-35.933593 35.960937-48.203125-9.167968 51.320312-51.320313c12.257813 6.242188 23.359375 14.539063 32.816406 24.527344zm-87.039062-37.640625c13.03125.023438 25.972656 2.183594 38.304688 6.398438l-54.402344 54.402343-78.125-14.863281c22.679687-28.980469 57.425781-45.917969 94.222656-45.9375zm-88 320h.542969c13.40625 11.300781 28.875 19.902344 45.554687 25.320312l-148.3125 21.191407c1.976563-2.253907 3.886719-4.550781 6.023438-6.679688 25.472656-25.566406 60.101562-39.90625 96.191406-39.832031zm-135.761719 128c.257813-4.257812.800781-8.511719 1.433594-12.753906l184.800781-26.398438 260.933594 35.265625c.121094 1.300781.3125 2.535157.394531 3.878907zm0 0"/></svg>