<svg height="512pt" viewBox="-13 0 512 512.0006" width="512pt" xmlns="http://www.w3.org/2000/svg"><path d="m284.691406 199.503906 56.101563 56.925782c9.222656 9.355468 23.765625 10.90625 34.753906 3.703124l21.160156-13.867187c8.890625-5.828125 20.878907-1.34375 23.765625 8.890625l3.113282 11.035156c1.765624 6.257813-1.878907 12.761719-8.136719 14.527344l-23.316407 6.574219 7.949219 19.175781c4.222657 10.191406 16.527344 14.226562 25.964844 8.519531l25.839844-15.628906c6.105469-3.691406 9.308593-10.765625 8.050781-17.792969l-11.601562-64.796875c-1.316407-7.34375-7.203126-13.007812-14.59375-14.039062l-70.90625-9.882813-25.875-42.949218zm0 0" fill="#d0cfd1"/><path d="m215.730469 274.449219s30.132812 99.3125-41.121094 117.328125c-12.984375 3.28125-20.628906 16.730468-17.066406 29.640625l14.457031 52.414062 33.566406 17.6875c6.363282 3.351563 3.953125 12.988281-3.238281 12.949219l-40.417969-.214844c-7.523437-.042968-14.699218-3.15625-19.863281-8.625l-6.898437-7.300781c-3.707032-3.925781-6.300782-8.765625-7.515626-14.027344l-14.464843-62.550781c-1.273438-5.5-1.195313-11.230469.222656-16.695312l27.152344-104.648438c.003906 0 71.425781-32.707031 75.1875-15.957031zm0 0" fill="#d0cfd1"/><path d="m7.53125 105.46875 17.855469 24.925781c7.191406 10.039063 8.636719 23.097657 3.808593 34.464844-9.496093 22.371094-1.007812 48.316406 19.875 60.742187l47.070313 28.007813-20.863281-48.777344c-5.519532-12.902343-7.246094-27.109375-4.976563-40.960937l2.828125-17.277344c4.949219-23.515625-14.097656-45.183594-38.054687-43.292969zm0 0"/><path d="m7.53125 105.46875 17.855469 24.925781c7.191406 10.039063 8.636719 23.097657 3.808593 34.464844-9.496093 22.371094-1.007812 48.316406 19.875 60.742187l47.070313 28.007813-20.863281-48.777344c-5.519532-12.902343-7.246094-27.109375-4.976563-40.960937l2.828125-17.277344c4.949219-23.515625-14.097656-45.183594-38.054687-43.292969zm0 0" fill="#4890e3"/><path d="m338.429688 35.320312s-56.871094-20.203124-71.089844 9.726563c-14.214844 29.933594-6.71875 53.625-17.449219 64.355469-10.730469 10.730468-67.855469 22.449218-82.074219 36.667968-14.21875 14.214844-4.492187 48.636719-4.492187 48.636719l129.371093-35.917969zm0 0" fill="#4890e3"/><path d="m477.125 75.910156-107.488281-37.890625s-7.742188-29.910156-18.464844-30.476562c-10.722656-.570313-13.878906 20.710937-14.730469 36.753906 0 0-63.136718 14.914063-68.089844 108.078125l-165.207031 35.035156c-3.171875.742188-6.273437 1.664063-9.289062 2.78125l-7.980469 3.472656c-24.492188 12.277344-41.890625 36.980469-43.449219 66.296876-.042969.773437-.070312 1.550781-.089843 2.320312-.570313 23.570312 9.726562 44.121094 25.777343 58.007812l-19.203125 74.007813c-1.421875 5.46875-1.496094 11.195313-.222656 16.699219l14.460938 62.546875c1.21875 5.261719 3.8125 10.101562 7.519531 14.027343l6.898437 7.300782c5.164063 5.46875 12.339844 8.582031 19.863282 8.625l40.417968.214844c7.191406.039062 9.601563-9.597657 3.238282-12.949219l-33.566407-17.6875-14.457031-52.414063c-3.5625-12.910156 4.082031-26.359375 17.066406-29.640625 32.84375-8.304687 44.136719-33.878906 46.78125-59.042969l146.933594-32.847656 7.132812 12.960938c6.335938 11.507812 19.914063 16.949218 32.441407 12.996094l24.132812-7.601563c10.136719-3.199219 20.460938 4.375 20.460938 15.003906v11.464844c0 6.503906-5.269531 11.777344-11.773438 11.777344h-24.226562l2.445312 20.613281c1.300781 10.953125 12.050781 18.175781 22.679688 15.246094l29.113281-8.027344c6.878906-1.898438 11.878906-7.839844 12.574219-14.941406l6.421875-65.515625c.726562-7.425781-3.402344-14.476563-10.234375-17.472657l-56.589844-24.820312c6.742187-12.011719 10.335937-25.886719 9.859375-40.382812l-3.191406-97.164063 98.4375 11.703125c17.851562-16.207031 13.597656-59.058594 13.597656-59.058594zm0 0" fill="#fff4f1"/><g fill="#ecedef"><path d="m344.453125 317.480469-20.535156 6.472656c5.980469 2.660156 12.878906 3.21875 19.496093 1.132813l15.566407-4.90625c-3.898438-3.097657-9.234375-4.367188-14.527344-2.699219zm0 0"/><path d="m110.125 391.015625c32.84375-8.300781 44.140625-33.878906 46.78125-59.042969l126.375-28.25-2.53125-4.59375-146.933594 32.84375c-2.644531 25.164063-13.9375 50.742188-46.78125 59.042969-12.984375 3.285156-20.628906 16.734375-17.066406 29.640625l14.457031 52.417969 33.566407 17.683593c5.945312 3.136719 4.226562 11.753907-1.894532 12.835938l21.746094.117188c7.191406.039062 9.601562-9.597657 3.238281-12.953126l-33.566406-17.683593-14.457031-52.417969c-3.558594-12.90625 4.085937-26.355469 17.066406-29.640625zm0 0"/><path d="m477.125 75.910156-107.488281-37.890625s-7.742188-29.910156-18.464844-30.476562c-5.453125-.292969-8.945313 5.078125-11.179687 12.53125 4.082031 8.40625 6.554687 17.945312 6.554687 17.945312l107.484375 37.890625s3.863281 38.90625-11.21875 56.59375l20.710938 2.460938c17.855468-16.203125 13.601562-59.054688 13.601562-59.054688zm0 0"/><path d="m415.007812 285.628906-56.589843-24.820312c6.742187-12.011719 10.335937-25.886719 9.859375-40.382813l-3.101563-94.40625-23.179687-2.757812 3.191406 97.164062c.476562 14.496094-3.117188 28.371094-9.859375 40.382813l56.585937 24.820312c6.832032 3 10.964844 10.050782 10.238282 17.476563l-6.421875 65.511719c-.695313 7.101562-5.695313 13.042968-12.578125 14.941406l-20.703125 5.710937c4.15625 2.734375 9.433593 3.765625 14.683593 2.316407l29.113282-8.027344c6.878906-1.898438 11.878906-7.839844 12.574218-14.941406l6.421876-65.511719c.730468-7.425781-3.402344-14.476563-10.234376-17.476563zm0 0"/></g><path d="m380.984375 72.902344c0 4.714844-3.820313 8.535156-8.535156 8.535156-4.714844 0-8.535157-3.820312-8.535157-8.535156s3.820313-8.535156 8.535157-8.535156c4.714843 0 8.535156 3.820312 8.535156 8.535156zm0 0"/><path d="m260 180.992188c-29.734375-4.660157-54.441406-31.730469-58.300781-66.859376-2.488281-22.644531 4.210937-43.890624 16.78125-59.09375-5.070313-.792968-10.285157-.957031-15.566407-.375-29.011718 3.1875-51.269531 27.222657-56.714843 57.753907-.8125.753906-1.617188 1.53125-2.40625 2.339843-26.648438 27.445313-27.972657 74.730469-2.949219 105.609376 25.019531 30.878906 66.910156 33.664062 93.5625 6.21875 10.4375-10.75 23.566406-36.203126 25.59375-45.59375zm0 0" fill="#ecedef"/><path d="m201.699219 114.132812c-2.488281-22.644531 4.210937-43.890624 16.78125-59.09375-5.070313-.792968-10.285157-.957031-15.566407-.375-2.894531.320313-5.710937.851563-8.460937 1.570313-11.953125 15.109375-18.269531 35.835937-15.84375 57.898437 3.859375 35.132813 30.484375 71.574219 60.222656 76.234376-2.027343 9.390624-14.074219 27.320312-24.511719 38.070312-9.253906 9.527344-23.355468 13.554688-34.9375 15.886719 19.308594 3.816406 39.6875-1.945313 55.023438-17.738281 10.4375-10.746094 23.566406-36.203126 25.59375-45.59375-29.734375-4.660157-54.441406-31.730469-58.300781-66.859376zm0 0" fill="#d9e8f9"/><path d="m456.367188 218.90625c-2.265626-12.652344-12.339844-22.34375-25.070313-24.121094l-56.585937-7.886718-.480469-14.585938c-.136719-4.15625-3.625-7.414062-7.769531-7.277344-4.160157.136719-7.417969 3.617188-7.28125 7.773438l1.574218 47.867187c.417969 12.726563-2.660156 25.332031-8.898437 36.449219-1.042969 1.851562-1.25 4.058594-.574219 6.074219.671875 2.015625 2.167969 3.652343 4.113281 4.507812l56.589844 24.820313c3.859375 1.691406 6.175781 5.648437 5.765625 9.84375l-6.417969 65.511718c-.390625 3.972657-3.238281 7.355469-7.085937 8.417969l-29.109375 8.027344c-2.996094.824219-6.0625.324219-8.636719-1.40625-2.578125-1.730469-4.199219-4.382813-4.566406-7.46875l-1.445313-12.195313h15.75c10.644531 0 19.304688-8.660156 19.304688-19.304687v-11.464844c0-7.492187-3.464844-14.332031-9.507813-18.761719-6.039062-4.429687-13.605468-5.679687-20.75-3.425781l-24.128906 7.605469c-9.078125 2.863281-18.992188-1.113281-23.582031-9.449219l-7.136719-12.957031c-1.613281-2.933594-4.96875-4.449219-8.238281-3.71875l-146.9375 32.84375c-3.152344.707031-5.507813 3.347656-5.84375 6.5625-3.015625 28.71875-16.855469 46.390625-41.140625 52.53125-8.1875 2.070312-15.050782 7.25-19.320313 14.589844-4.320312 7.421875-5.441406 16.070312-3.160156 24.351562l14.460937 52.414063c.550782 2.003906 1.90625 3.691406 3.746094 4.660156l25.28125 13.320313c.132813.144531.257813.300781.390625.445312l2.507813 2.652344-34.714844-.1875c-5.4375-.027344-10.695312-2.3125-14.429688-6.265625l-6.898437-7.300781c-2.785156-2.949219-4.738281-6.597657-5.652344-10.550782l-14.464843-62.550781c-.996094-4.300781-.933594-8.835937.175781-13.109375l19.203125-74.003906c.71875-2.773438-.195313-5.710938-2.363282-7.585938-5.332031-4.617187-9.878906-9.964844-13.511718-15.898437-2.171875-3.546875-6.804688-4.664063-10.355469-2.492188-3.546875 2.171875-4.660156 6.804688-2.488281 10.351563 3.625 5.921875 7.988281 11.363281 13.003906 16.222656l-18.066406 69.625c-1.71875 6.613281-1.8125 13.628906-.269532 20.285156l14.460938 62.550782c1.515625 6.554687 4.761719 12.605468 9.382812 17.5l6.894532 7.300781c6.542968 6.925781 15.765625 10.929687 25.296875 10.980469l40.417969.21875h.082031c3.355469 0 6.429687-1.089844 8.875-2.992188 4.675781 2.265625 9.84375 3.503906 15.109375 3.535156l40.414062.214844h.082032c6.726562 0 12.332031-4.371094 13.96875-10.90625 1.636718-6.558594-1.277344-13.082031-7.257813-16.234375l-30.6875-16.167969-13.589844-49.277344c-1.199219-4.34375-.609375-8.878906 1.65625-12.773437 2.214844-3.808594 5.765625-6.496094 9.996094-7.5625 33.308594-8.421875 51.652344-34.183594 53.046875-74.507813.011719-.371093-.011719-.738281-.050781-1.097656l70.519531-15.761718 4.410156 8.007812c8.035156 14.601562 25.40625 21.558594 41.300782 16.550781l24.128906-7.605469c2.519531-.796874 5.1875-.355468 7.320312 1.207032 2.128906 1.5625 3.351563 3.972656 3.351563 6.613281v11.46875c0 2.339844-1.90625 4.246094-4.246094 4.246094h-24.226563c-2.148437 0-4.199218.917969-5.628906 2.527343-1.425781 1.609376-2.101562 3.75-1.847656 5.886719l2.445312 20.613281c.878907 7.402344 4.929688 14.035157 11.117188 18.191407 6.1875 4.160156 13.855469 5.410156 21.042969 3.425781l29.113281-8.027344c9.8125-2.707031 17.074219-11.332031 18.066406-21.464844l4.878906-49.777343c1.226563-.050781 2.453126-.386719 3.578126-1.066407l18.15625-10.980468c10.417968-6.300782 15.976562-18.585938 13.828124-30.570313zm-356.050782 199.75c-1.195312-4.34375-.609375-8.878906 1.65625-12.773438.78125-1.34375 1.734375-2.535156 2.816406-3.574218-.136718 3.738281.199219 7.492187 1.042969 11.140625l13.222657 57.195312-5.148438-2.714843zm72.445313-34.179688c-8.1875 2.070313-15.050781 7.25-19.320313 14.589844-4.320312 7.421875-5.441406 16.070313-3.15625 24.351563l14.457032 52.414062c.550781 2.003907 1.90625 3.691407 3.746093 4.660157l31.1875 16.433593-37.722656-.203125c-3.5-.019531-6.921875-.980468-9.914063-2.710937-.796874-4.152344-3.425781-7.796875-7.445312-9.914063l-5.679688-2.992187c-1.878906-2.523438-3.234374-5.417969-3.945312-8.5l-14.464844-62.550781c-.996094-4.300782-.933594-8.835938.175782-13.109376.125-.488281.199218-.972656.226562-1.457031 23.730469-9.09375 38.394531-28.6875 42.789062-57.316406l50.621094-11.316406c-1.832031 31.726562-15.800781 51.109375-41.554687 57.621093zm236.140625-109.746093-25.097656-11.007813 11.496093-7.53125c3.515625-2.308594 7.789063-2.785156 11.726563-1.3125s6.851562 4.640625 7.992187 8.683594c1.34375 4.773438-1.394531 9.738281-6.117187 11.167969zm36.234375 19.910156-12.296875 7.4375c.210937-7.664063-3.125-14.847656-8.855469-19.636719 5.511719-5.972656 7.894531-14.585937 5.53125-22.964844-2.457031-8.714843-8.730469-15.53125-17.210937-18.703124-8.480469-3.171876-17.6875-2.144532-25.261719 2.820312l-12.300781 8.0625c-1.535157 1.007812-3.148438 1.832031-4.832032 2.46875 4.25-10.761719 6.277344-22.308594 5.894532-33.945312l-.59375-18.003907 54.003906 7.527344c6.261718.871094 11.214844 5.636719 12.328125 11.855469l10.394531 58.050781c1.050781 5.894531-1.679688 11.933594-6.800781 15.03125zm0 0" fill="#18191b"/><path d="m484.617188 75.164062c-.289063-2.90625-2.234376-5.386718-4.988282-6.355468l-103.832031-36.601563c-.949219-3.089843-2.46875-7.621093-4.464844-12.210937-5.65625-13.035156-12.117187-19.566406-19.757812-19.9726565-5.96875-.3124995-14.042969 2.4531245-18.664063 17.4492185-.722656 2.339844-1.351562 4.960938-1.894531 7.820313-18.871094-4.804688-57.527344-10.742188-70.476563 16.523437-7.882812 16.589844-9.519531 31.140625-10.835937 42.835938-1.011719 8.992187-1.8125 16.097656-5.136719 19.425781-3.765625 3.765625-20.09375 9.421875-33.214844 13.964844-.464843.164062-.941406.332031-1.410156.492187-.304687-1.71875-.566406-3.460937-.757812-5.222656-2.171875-19.753906 3.332031-39.242188 15.097656-53.472656 1.722656-2.085938 2.195312-4.9375 1.238281-7.464844-.960937-2.53125-3.203125-4.351562-5.875-4.773438-5.855469-.917968-11.761719-1.058593-17.554687-.421874-30.917969 3.398437-55.898438 27.960937-62.832032 61.460937-.296874.292969-.585937.585937-.867187.871094-17.15625 17.671875-24.742187 42.882812-22.535156 67.507812l-14.273438 3.027344c-.054687.011719-.105469.019531-.15625.035156-3.5.816407-6.925781 1.84375-10.183593 3.046875-.132813.046875-.265626.101563-.394532.15625l-7.980468 3.472656c-.125.054688-.246094.113282-.371094.175782-1.445313.726562-2.863282 1.5-4.261719 2.300781-1.636719-7.910156-1.824219-16.082031-.503906-24.144531l2.804687-17.117188c2.78125-13.496094-.835937-27.164062-9.941406-37.523437-9.140625-10.402344-22.300781-15.746094-36.113281-14.65625l-27.542969 2.171875c-2.707031.210937-5.089844 1.867187-6.234375 4.332031-1.144531 2.460937-.875 5.351563.707031 7.558594l17.855469 24.925781c5.625 7.847656 6.773437 18.246094 3 27.136719-10.398437 24.484375-1.929687 52.996093 19.632813 67.996093-4.015626 9.265626-6.441407 19.28125-6.996094 29.644532-.042969.851562-.078125 1.695312-.097656 2.539062-.097657 4.050782.097656 8.117188.585937 12.089844.464844 3.816406 3.714844 6.617188 7.464844 6.617188.304687 0 .613281-.019532.921875-.058594 4.128906-.503906 7.066406-4.261719 6.5625-8.386719-.398438-3.246094-.558594-6.578125-.476563-9.898437.015625-.699219.042969-1.398438.078125-2.101563 1.355469-25.449219 16.339844-48.371094 39.128906-59.875l7.585938-3.304687c2.59375-.945313 5.328125-1.761719 8.128906-2.417969l13.636719-2.894531c3.082031 11.964843 8.585937 23.382812 16.570313 33.238281 13.804687 17.035156 32.609374 26.921875 52.953124 27.835937 1.011719.046875 2.019532.070313 3.027344.070313 18.261719 0 35.503906-7.453125 48.832032-21.179688 11.804687-12.152343 25.320312-38.894531 27.554687-49.25.4375-2.023437.023437-4.140625-1.152344-5.847656-1.171875-1.710937-2.996093-2.859375-5.042969-3.179687-7.304687-1.144532-14.1875-3.785157-20.421874-7.625l29.171874-6.183594c3.332032-.707032 5.773438-3.566406 5.957032-6.96875 1.925781-36.230469 12.996094-64.253906 32.90625-83.289063 14.789062-14.140625 29.285156-17.832031 29.394531-17.859375 3.253906-.769531 5.609375-3.589844 5.789063-6.929687 1.128906-21.230469 5.167968-28.4375 6.738281-29.5625 3.1875 1.84375 8.738281 13.589843 11.648437 24.769531.628906 2.429688 2.421875 4.382812 4.785156 5.214844l102.816407 36.246094c.542969 12.3125-.492188 34.671874-9.292969 45.679687l-94.683594-11.257813c-2.175781-.257812-4.363281.445313-5.980468 1.929688-1.617188 1.484375-2.503907 3.601562-2.433594 5.796875l.601562 18.234375c.136719 4.15625 3.613282 7.410156 7.773438 7.28125 4.15625-.136719 7.414062-3.617188 7.277344-7.773438l-.3125-9.480468 89.738281 10.667968c2.164062.261719 4.332031-.433593 5.949219-1.898437 20.082031-18.230469 16.503906-60.609375 16.03125-65.382813zm-435.484376 141.398438c-14.769531-11.203125-20.390624-31.367188-13.003906-48.761719 5.8125-13.6875 4.042969-29.703125-4.621094-41.792969l-10.085937-14.078124 14.246094-1.125c9.035156-.710938 17.636719 2.78125 23.617187 9.585937 5.980469 6.804687 8.339844 15.789063 6.476563 24.65625-.023438.109375-.042969.21875-.0625.332031l-2.828125 17.277344c-1.972656 12.039062-1.207032 24.269531 2.183594 35.882812-6.144532 5.261719-11.5 11.335938-15.921876 18.023438zm201.046876-30.066406c-4.507813 10.691406-13.859376 27.308594-21.175782 34.84375-11.023437 11.351562-25.367187 17.230468-40.382812 16.558594-15.980469-.71875-30.871094-8.628907-41.925782-22.273438-7.9375-9.792969-12.945312-21.414062-15.082031-33.449219-.027343-.257812-.066406-.515625-.125-.773437-.003906-.019532-.007812-.035156-.011719-.054688-2.808593-16.851562 0-34.433594 8.34375-48.882812.546876 3.089844 1.285157 6.371094 2.289063 9.714844 6.261719 20.824218 19.546875 33.882812 38.417969 37.757812.511718.105469 1.019531.15625 1.523437.15625 3.5-.003906 6.632813-2.457031 7.367188-6.019531.835937-4.074219-1.789063-8.050781-5.863281-8.890625-13.191407-2.707032-22.246094-11.785156-26.910157-26.976563-3.359375-10.9375-3.277343-21.445312-3.207031-23.796875.0625-.222656.136719-.441406.175781-.671875 5.015625-28.113281 25.160157-48.84375 50.125-51.589843.285157-.03125.570313-.058594.859375-.085938-8.699218 15.542969-12.441406 34.160156-10.382812 52.894531 3.808594 34.652344 26.296875 62.855469 55.964844 71.539063zm48.925781-128.589844c-26.996094 25.300781-35.636719 60.929688-37.882813 88.285156l-34.902344 7.402344c-5.105468-5.902344-9.289062-12.847656-12.296874-20.53125.753906-.261719 1.511718-.527344 2.261718-.789062 20.285156-7.027344 33.015625-11.632813 38.929688-17.546876 7.054687-7.054687 8.167968-16.941406 9.457031-28.390624 1.25-11.128907 2.671875-23.742188 9.472656-38.058594 3.8125-8.027344 12.839844-12.09375 26.84375-12.09375h.367188c9.335937.046875 18.800781 1.914062 25.367187 3.5625-6.816406 2.863281-17.136718 8.335937-27.617187 18.160156zm0 0" fill="#18191b"/></svg>