<svg height="512pt" viewBox="-64 0 511 512" width="512pt" xmlns="http://www.w3.org/2000/svg"><path d="m301.644531 504.5h-219.1875c-25.546875 0-46.261719-20.710938-46.261719-46.261719v-26.347656c0-40.921875 33.175782-74.097656 74.097657-74.097656h163.515625c40.921875 0 74.097656 33.175781 74.097656 74.097656v26.347656c0 25.550781-20.714844 46.261719-46.261719 46.261719zm0 0" fill="#ff83b4"/><path d="m234.933594 394.265625v-36.472656h-124.640625c-40.921875 0-74.097657 33.175781-74.097657 74.097656v26.347656s127.65625 13.761719 198.738282-63.972656zm0 0" fill="#ff5d9c"/><path d="m60.578125 386.6875c17.546875 20.375 44.902344 61.121094 45.71875 117.8125h42.136719s12.039062-91.734375-61.398438-146.707031c-1.65625.1875-7.617187-.78125-14.863281-.074219-14.179687 1.386719-20.894531 18.171875-11.59375 28.96875zm0 0" fill="#76e7e7"/><path d="m87.035156 357.792969c-1.65625.1875-7.617187-.78125-14.863281-.074219-14.179687 1.386719-20.894531 18.171875-11.59375 28.96875 12.136719 14.09375 28.972656 37.949219 38.464844 70.074219 14.078125-1.714844 29.542969-4.539063 45.335937-9.09375-6.710937-29.019531-22.289062-63.632813-57.34375-89.875zm0 0" fill="#2eddda"/><path d="m323.523438 386.6875c-17.546876 20.375-44.902344 61.121094-45.71875 117.8125h-42.140626s-12.039062-91.734375 61.402344-146.707031c1.65625.1875 7.617188-.78125 14.859375-.074219 14.183594 1.386719 20.898438 18.171875 11.597657 28.96875zm0 0" fill="#76e7e7"/><path d="m124.4375 157.867188s-31.203125-43.542969-97.730469-46.496094c-12.601562-.558594-21.816406 11.84375-17.746093 23.78125 5.546874 16.265625 11.683593 38.554687 12.046874 57.730468.875 46.234376 58.652344 52.570313 58.652344 52.570313zm0 0" fill="#ff83b4"/><path d="m79.660156 245.453125 20.226563-39.5625c-28.960938-40.542969-85.808594-54.226563-85.808594-54.226563 3.667969 13.214844 6.675781 27.960938 6.929687 41.21875.875 46.234376 58.652344 52.570313 58.652344 52.570313zm0 0" fill="#ff5d9c"/><path d="m259.664062 157.867188s31.203126-43.542969 97.730469-46.496094c12.601563-.558594 21.816407 11.84375 17.746094 23.78125-5.550781 16.265625-11.683594 38.554687-12.046875 57.730468-.875 46.234376-58.652344 52.570313-58.652344 52.570313zm0 0" fill="#ff83b4"/><path d="m304.441406 245.453125-20.226562-39.5625c28.960937-40.542969 85.808594-54.226563 85.808594-54.226563-3.667969 13.214844-6.679688 27.960938-6.929688 41.21875-.875 46.234376-58.652344 52.570313-58.652344 52.570313zm0 0" fill="#ff5d9c"/><path d="m331.230469 249.632812c-12.289063-16.140624-21.238281-34.410156-25.914063-53.917968-12.238281-51.054688-41.957031-106.242188-113.265625-106.242188-71.308593 0-101.027343 55.1875-113.265625 106.242188-4.675781 19.507812-13.625 37.777344-25.914062 53.917968-10.820313 14.210938-16.925782 30.300782-16.925782 47.34375 0 57.691407 69.890626 104.460938 156.105469 104.460938 86.214844 0 156.105469-46.769531 156.105469-104.460938 0-17.042968-6.105469-33.132812-16.925781-47.34375zm0 0" fill="#ffabcd"/><path d="m260.425781 306.894531c0-28.109375-30.613281-50.894531-68.375-50.894531s-68.375 22.785156-68.375 50.894531 30.613281 50.898438 68.375 50.898438 68.375-22.789063 68.375-50.898438zm0 0" fill="#ffd2e3"/><path d="m242.09375 38.574219c3.726562-9.09375-.992188-19.488281-10.25-22.78125-11.605469-4.128907-27.339844-8.292969-43.605469-8.292969s-32 4.164062-43.601562 8.292969c-9.257813 3.292969-13.976563 13.6875-10.25 22.78125 10.273437 25.070312 4.308593 53.863281 4.308593 53.863281h99.085938s-5.960938-28.792969 4.3125-53.863281zm0 0" fill="#dd6642"/><path d="m224.671875 92.4375c-18.433594-7.191406-33.019531-16.386719-43.269531-24.011719-9.878906-7.34375-17.074219-17.785156-20.183594-29.695312-3.714844-14.246094-9.765625-25.199219-9.765625-25.199219-2.398437.738281-4.679687 1.5-6.816406 2.261719-9.257813 3.292969-13.976563 13.6875-10.25 22.78125 10.273437 25.070312 4.3125 53.863281 4.3125 53.863281zm0 0" fill="#b24e2f"/><path d="m188.238281 120.695312c-20.011719 0-40.023437-3.945312-59.070312-11.835937-10.207031-4.226563-15.050781-15.925781-10.824219-26.128906 4.226562-10.207031 15.925781-15.050781 26.128906-10.824219 28.222656 11.691406 59.308594 11.691406 87.53125 0 10.207032-4.226562 21.902344.617188 26.128906 10.824219 4.230469 10.203125-.617187 21.902343-10.820312 26.128906-19.046875 7.890625-39.058594 11.835937-59.074219 11.835937zm0 0" fill="#e7896e"/><path d="m182.089844 306.894531c0 10.074219-8.167969 18.242188-18.238282 18.242188-10.074218 0-18.242187-8.167969-18.242187-18.242188 0-10.070312 8.167969-18.238281 18.242187-18.238281 10.070313 0 18.238282 8.167969 18.238282 18.238281zm0 0" fill="#ff5d9c"/><path d="m238.492188 306.894531c0 10.074219-8.167969 18.242188-18.242188 18.242188-10.070312 0-18.238281-8.167969-18.238281-18.242188 0-10.070312 8.167969-18.238281 18.238281-18.238281 10.074219 0 18.242188 8.167969 18.242188 18.238281zm0 0" fill="#ff5d9c"/><path d="m153.039062 98.292969c1.085938-18.023438 25.839844-18.007813 25.839844-18.007813-11.679687-.972656-23.261718-3.765625-34.402344-8.378906-10.203124-4.226562-21.90625.617188-26.132812 10.824219-4.226562 10.203125.621094 21.902343 10.824219 26.128906 9.917969 4.109375 20.109375 7.152344 30.414062 9.121094-3.53125-3.90625-7.109375-10.257813-6.542969-19.6875zm0 0" fill="#dd6642"/><path d="m261.355469 245.46875v-12.449219c0-4.144531-3.355469-7.5-7.5-7.5-4.140625 0-7.5 3.355469-7.5 7.5v12.449219c0 4.140625 3.359375 7.5 7.5 7.5 4.144531 0 7.5-3.359375 7.5-7.5zm0 0"/><path d="m137.746094 245.46875v-12.449219c0-4.144531-3.359375-7.5-7.5-7.5-4.144532 0-7.5 3.355469-7.5 7.5v12.449219c0 4.140625 3.355468 7.5 7.5 7.5 4.140625 0 7.5-3.359375 7.5-7.5zm0 0"/><path d="m139.222656 348.902344c14.199219 10.570312 32.960938 16.390625 52.828125 16.390625 19.867188 0 38.625-5.820313 52.828125-16.390625 14.863282-11.066406 23.046875-25.980469 23.046875-42.007813 0-16.023437-8.183593-30.941406-23.046875-42.003906-14.199218-10.570313-32.960937-16.390625-52.828125-16.390625-19.867187 0-38.628906 5.820312-52.828125 16.390625-14.863281 11.0625-23.046875 25.980469-23.046875 42.003906 0 16.023438 8.183594 30.945313 23.046875 42.007813zm52.828125-85.402344c33.566407 0 60.875 19.46875 60.875 43.398438 0 23.925781-27.308593 43.394531-60.875 43.394531-33.566406 0-60.875-19.46875-60.875-43.394531 0-23.929688 27.308594-43.398438 60.875-43.398438zm0 0"/><path d="m163.851562 332.636719c14.191407 0 25.738282-11.546875 25.738282-25.742188 0-14.191406-11.546875-25.738281-25.738282-25.738281-14.195312 0-25.742187 11.546875-25.742187 25.738281 0 14.195313 11.546875 25.742188 25.742187 25.742188zm0-36.480469c5.917969 0 10.738282 4.816406 10.738282 10.738281s-4.816406 10.742188-10.738282 10.742188c-5.925781 0-10.742187-4.820313-10.742187-10.742188 0-5.917969 4.816406-10.738281 10.742187-10.738281zm0 0"/><path d="m220.25 332.636719c14.195312 0 25.742188-11.546875 25.742188-25.742188 0-14.191406-11.546876-25.738281-25.742188-25.738281-14.191406 0-25.738281 11.546875-25.738281 25.738281 0 14.195313 11.546875 25.742188 25.738281 25.742188zm0-36.480469c5.921875 0 10.742188 4.816406 10.742188 10.738281s-4.820313 10.742188-10.742188 10.742188c-5.917969 0-10.738281-4.820313-10.738281-10.742188 0-5.917969 4.820312-10.738281 10.738281-10.738281zm0 0"/><path d="m378.488281 114.035156c-5.042969-6.730468-13.050781-10.523437-21.425781-10.15625-33.003906 1.464844-57.65625 12.605469-73.765625 23.011719-6.152344-8.292969-13.019531-15.476563-20.589844-21.535156 4.753907-7.339844 5.953125-16.824219 2.359375-25.496094-3.726562-8.996094-11.871094-15.136719-21.085937-16.628906.730469-8.058594 2.417969-15.375 5.054687-21.816407 2.574219-6.285156 2.460938-13.175781-.324218-19.40625-2.757813-6.179687-7.988282-11.019531-14.351563-13.28125-11.191406-3.980468-28.273437-8.726562-46.121094-8.726562-17.84375 0-34.925781 4.746094-46.117187 8.726562-6.363282 2.261719-11.59375 7.105469-14.355469 13.28125-2.78125 6.230469-2.894531 13.125-.320313 19.410157 2.636719 6.4375 4.324219 13.753906 5.054688 21.816406-9.121094 1.46875-17.300781 7.484375-21.085938 16.625-4.265624 10.304687-1.78125 21.742187 5.402344 29.382813-5.777344 5.183593-11.117187 11.070312-16.003906 17.65625-16.105469-10.410157-40.761719-21.550782-73.773438-23.015626-8.367187-.371093-16.382812 3.425782-21.425781 10.152344-5.070312 6.761719-6.46875 15.5625-3.75 23.539063 5.117188 15.003906 11.292969 36.804687 11.644531 55.453125.417969 22.023437 12.59375 39.695312 34.527344 50.539062-11.839844 12.433594-19.589844 35.324219-19.589844 53.410156 0 4.144532 3.359376 7.5 7.5 7.5 4.144532 0 7.5-3.355468 7.5-7.5 0-14.984374 5.179688-29.386718 15.394532-42.796874 13.214844-17.359376 22.378906-36.441407 27.242187-56.714844 8.722657-36.402344 23.613281-63.304688 44.273438-80.058594 18.644531 7.160156 38.09375 10.789062 57.886719 10.789062 21.226562 0 42.070312-4.171874 61.941406-12.402343.324218-.136719.640625-.28125.957031-.425781 22.019531 16.558593 37.785156 44.144531 46.882813 82.097656 4.859374 20.273437 14.023437 39.355468 27.242187 56.714844 10.210937 13.410156 15.390625 27.8125 15.390625 42.796874 0 36.304688-30.742188 68.003907-76.121094 84.617188-.636718.140625-35.738281 12.34375-72.484375 12.34375-32.65625 0-63.671875-6.839844-89.695312-19.785156-24.652344-12.265625-43.238281-29.570313-52.335938-48.734375-1.773437-3.742188-6.25-5.332031-9.992187-3.558594-3.742188 1.777344-5.335938 6.25-3.558594 9.992187 4.558594 9.601563 10.882812 18.542969 18.675781 26.691407-6.871093 7.710937-6.53125 16.691406-6.199219 19.574219-13.085937 14.886718-20.25 33.78125-20.25 53.773437v26.347656c0 29.644531 24.117188 53.761719 53.761719 53.761719h219.1875c29.644531 0 53.761719-24.117188 53.761719-53.761719v-26.347656c0-19.996094-7.164062-38.886719-20.246094-53.773437.328125-2.882813 1.457032-12.824219-6.210937-19.582032 17.378906-18.066406 26.707031-39.265625 26.707031-61.558594 0-30.460937-19.210938-52.902343-19.589844-53.410156 21.933594-10.84375 34.109375-28.515625 34.527344-50.542968.355469-18.644532 6.527344-40.445313 11.644531-55.449219 2.71875-7.976563 1.320313-16.777344-3.75-23.539063zm-322.074219 116.933594c-18.203124-8.320312-27.585937-21.15625-27.910156-38.230469-.183594-9.714843-1.757812-20.054687-3.933594-29.957031 12.136719 4.3125 31.296876 12.523438 48.257813 25.886719-.457031 1.75-9.488281 30.597656-16.414063 42.300781zm20.980469-57.65625c-22.886719-16.632812-47.507812-24.921875-57.269531-27.773438-1.351562-4.601562-2.742188-8.925781-4.0625-12.808593-1.136719-3.328125-.570312-6.863281 1.550781-9.699219 2.101563-2.800781 5.296875-4.320312 8.761719-4.167969 29.664062 1.316407 51.75 11.253907 66.171875 20.550781-5.890625 10.042969-10.945313 21.355469-15.152344 33.898438zm110.84375-60.117188c-19.25 0-38.15625-3.789062-56.203125-11.265624-6.367187-2.636719-9.402344-9.960938-6.761718-16.332032 2.636718-6.367187 9.960937-9.402344 16.332031-6.761718 21.488281 8.898437 44.835937 11.5 67.515625 7.511718 4.082031-.714844 6.808594-4.605468 6.089844-8.683594-.71875-4.078124-4.601563-6.804687-8.683594-6.089843-19.75 3.472656-40.089844 1.230469-58.847656-6.464844-.667969-10.820313-2.792969-20.683594-6.355469-29.378906-1.003907-2.457031-.957031-5.15625.136719-7.605469 1.113281-2.488281 3.132812-4.359375 5.6875-5.269531 10.078124-3.582031 25.386718-7.855469 41.089843-7.855469 15.707031 0 31.015625 4.273438 41.089844 7.859375 2.558594.910156 4.578125 2.78125 5.6875 5.269531 1.09375 2.445313 1.046875 5.109375.136719 7.601563-7.125 19.527343-6.851563 35.285156-6.632813 36.433593.785157 4.066407 4.71875 6.722657 8.789063 5.941407 5.785156-1.117188 11.636718 2.03125 13.898437 7.496093 2.636719 6.367188-.394531 13.695313-6.765625 16.332032-18.042968 7.472656-36.953125 11.261718-56.203125 11.261718zm60.699219 288.847657c-21.152344 38.621093-22.148438 78.042969-21.375 94.957031h-71.023438c.773438-16.914062-.222656-56.339844-21.378906-94.964844 17.824219 4.484375 37.019532 6.902344 56.890625 6.902344 19.71875 0 38.917969-2.371094 56.886719-6.894531zm-205.242188 56.195312v-26.347656c0-14.117187 4.382813-27.566406 12.476563-38.804687 15.394531 18.285156 39.386719 54.359374 42.328125 103.914062h-16.042969c-21.371093 0-38.761719-17.386719-38.761719-38.761719zm69.847657 38.761719c-3.035157-55.789062-30.625-95.867188-47.285157-115.207031-2.949218-3.425781-3.769531-8.691407-.101562-13.058594 13.132812 10.800781 29.117188 19.773437 47.0625 26.484375 28.03125 39.585938 29.003906 85.128906 28.261719 101.78125zm226.863281-38.761719c0 21.375-17.390625 38.761719-38.761719 38.761719h-59.023437c-.742188-16.664062.234375-62.203125 28.265625-101.789062 12.917969-4.851563 24.933593-10.921876 35.71875-18.136719 4-2.679688 7.773437-5.472657 11.3125-8.375 3.210937 4.148437 2.871093 9.667969-.078125 13.09375-15.875 18.433593-36.460938 49.175781-44.347656 90.929687-.769532 4.070313 1.863281 8.28125 5.976562 8.761719 5.625.660156 8.082031-2.378906 8.761719-5.976563 7.0625-37.378906 25.210937-65.238281 39.695312-82.425781 8.097657 11.238281 12.476563 24.683594 12.476563 38.808594v26.347656zm-48.851562-318.828125c14.425781-9.296875 36.511718-19.230468 66.171874-20.546875 3.457032-.160156 6.65625 1.367188 8.757813 4.167969 2.125 2.835938 2.691406 6.371094 1.554687 9.699219-1.324218 3.882812-2.710937 8.207031-4.0625 12.808593-9.761718 2.851563-34.382812 11.140626-57.265624 27.769532-4.207032-12.546875-9.265626-23.855469-15.15625-33.898438zm36.132812 91.558594c-6.925781-11.703125-15.957031-40.550781-16.414062-42.296875 16.960937-13.367187 36.125-21.578125 48.257812-25.890625-2.175781 9.902344-3.75 20.242188-3.933594 29.960938-.324218 17.070312-9.707031 29.910156-27.910156 38.226562zm0 0"/></svg>