<?xml version="1.0" encoding="iso-8859-1"?>
<!-- Generator: Adobe Illustrator 19.0.0, SVG Export Plug-In . SVG Version: 6.00 Build 0)  -->
<svg version="1.1" id="Capa_1" xmlns="http://www.w3.org/2000/svg" xmlns:xlink="http://www.w3.org/1999/xlink" x="0px" y="0px"
	 viewBox="0 0 512 512" style="enable-background:new 0 0 512 512;" xml:space="preserve">
<linearGradient id="SVGID_1_" gradientUnits="userSpaceOnUse" x1="98" y1="258" x2="414" y2="258" gradientTransform="matrix(1 0 0 -1 0 514)">
	<stop  offset="0" style="stop-color:#80D8FF"/>
	<stop  offset="1" style="stop-color:#EA80FC"/>
</linearGradient>
<path style="fill:url(#SVGID_1_);" d="M409.493,197.353L354.51,130H356c11.046,0,20-8.954,20-20V20c0-11.046-8.954-20-20-20H156
	c-11.046,0-20,8.954-20,20v90c0,11.046,8.954,20,20,20h1.49l-54.983,67.353C99.592,200.923,98,205.391,98,210v282
	c0,11.046,8.954,20,20,20h276c11.046,0,20-8.954,20-20V210C414,205.391,412.408,200.923,409.493,197.353z M176,40h160v50
	c-19.884,0-140.292,0-160,0V40z M374,472H138V217.127L209.126,130h93.748L374,217.127V472z"/>
<g>
</g>
<g>
</g>
<g>
</g>
<g>
</g>
<g>
</g>
<g>
</g>
<g>
</g>
<g>
</g>
<g>
</g>
<g>
</g>
<g>
</g>
<g>
</g>
<g>
</g>
<g>
</g>
<g>
</g>
</svg>
