<svg id="Flat" enable-background="new 0 0 512 512" height="512" viewBox="0 0 512 512" width="512" xmlns="http://www.w3.org/2000/svg"><g><g><path d="m184 328s8 24 72 24 72-24 72-24l24 16s-16 40-96 40-96-40-96-40z" fill="#fcc200"/><circle cx="352" cy="216" fill="#63c4f8" r="16"/><circle cx="160" cy="216" fill="#e22526" r="16"/><path d="m240 24h32l16 16-16 40-16-16-16 16-16-40z" fill="#f249b4"/><path d="m280 56 24 32-16 32h-64l-16-32 24-32 8 24 16-16 16 16z" fill="#f8f117"/><path d="m232 120-8 16 8 16h8v280h32v-280h8l8-16-8-16z" fill="#f98800"/><path d="m256 488-32-40 16-16h32l16 16z" fill="#f8f117"/><g fill="#aedef8"><path d="m424 104-40-48-6.2090759 37.2545013c-1.0805969 6.4836044 1.914032 12.9684753 7.550354 16.3502731l30.6587219 18.3952256-24 32h24l16 16 8-40 27.9455872-4.6575928c11.5725097-1.9287567 20.0544128-11.9413147 20.0544128-23.6734543v-19.6689529l-32 16v-16l8-16h-19.5075684c-7.3418884 0-13.7416077 4.9967575-15.5222778 12.1194305z"/><path d="m424 384-2.9355774-1.4677734c-14.4425964-7.2213135-31.7519836 1.5930481-34.4065857 17.5206604l-2.6578369 15.947113 32-8-24 32h24l16 16 8-40 16 24 9.8622131-7.3966675c11.6841431-8.763092 12.8979797-25.8431396 2.5705566-36.1705627l-12.4327697-12.4327698v-16l8-16h-19.5075684c-7.3418884 0-13.7416077 4.9967651-15.5222778 12.1194153z"/><path d="m75 121 2.9355698-1.4677811c14.4426041-7.2213058 31.751976 1.5930557 34.4065781 17.520668l2.6578521 15.9471131-32-8 24 32h-24l-16 16-8-40-16 24-9.8622131-7.3966675c-11.6841488-8.7631073-12.8979893-25.8431244-2.5705643-36.1705627l12.4327774-12.4327698v-16l-8-16h19.507576c7.3418846 0 13.7416153 4.9967575 15.5222778 12.1194305z"/><path d="m88 416 40-48 6.2090912 37.2545166c1.0805969 6.4835815-1.9140472 12.9684448-7.5503769 16.3502502l-30.6587143 18.3952332 24 32h-24l-16 16-8-40-27.9455757-4.6575928c-11.5725098-1.9287414-20.0544243-11.9413147-20.0544243-23.6734619v-19.6689453l32 16v-16l-8-16h19.507576c7.3418808 0 13.7416153 4.9967651 15.5222778 12.1194153z"/></g><path d="m256 344 24-24h.0000305c25.9644165 0 51.2284241 8.4213257 71.999939 23.9999695l.0000305.0000305 16-24-24-24 8-64-40 40-24-8-32-64-32 64-24 8-40-40 8 64-24 24 16 24 .0000305-.0000305c20.7715149-15.5786438 46.0355225-23.9999695 71.9999237-23.9999695h.0000458z" fill="#f8f117"/><circle cx="256" cy="184" fill="#389a0c" r="16"/><path d="m256 264-16 16v24l16 16 16-16v-24z" fill="#389a0c"/><path d="m256 272 8 8v24l-8 8-8-8v-24z" fill="#acdd12"/><path d="m264 280-16 24 8 8 8-8z" fill="#389a0c"/></g><g fill="#931d5b"><path d="m272 24-8 16h24z"/><path d="m240 80 8-40h-24z"/><path d="m240 24 8 16h16z"/></g><path d="m264 40 8 40-16-16-16 16 8-40z" fill="#f98dd4"/><path d="m208 88 24 16 8-24 16-16 16 16 8 24 24-16-16 32-8-8-24 8-24-8-8 8z" fill="#fcc200"/><path d="m256 64-8 24 8 32 8-32z" fill="#f8f117"/><path d="m224 136h64l-8 16h-48z" fill="#f8f117"/></g></svg>