<svg height="511pt" viewBox="-83 1 511 511.99999" width="511pt" xmlns="http://www.w3.org/2000/svg"><path d="m188 296.03125v88.46875c0 8.28125 6.714844 15 15 15 8.28125 0 15-6.71875 15-15v-88.46875zm0 0" fill="#869e47"/><path d="m128 384.5c0 8.28125 6.714844 15 15 15s15-6.71875 15-15v-88.46875h-30zm0 0" fill="#9db55f"/><path d="m218 22.5c0-8.285156-6.71875-15-15-15-24.851562 0-45 20.148438-45 45v30h30v-30c0-8.285156 6.71875-15 15-15s15-6.714844 15-15zm0 0" fill="#9db55f"/><path d="m173 62.5v80c24.851562 0 45-20.148438 45-45 0-5.261719-.914062-10.308594-2.574219-15zm0 0" fill="#ffb4a9"/><path d="m173 52.5 14.140625 30h28.285156c-6.175781-17.476562-22.835937-30-42.425781-30zm0 0" fill="#ff6337"/><path d="m130.570312 82.5c-1.660156 4.691406-2.574218 9.738281-2.574218 15 0 24.851562 20.148437 45 45 45 8.285156 0 15-20.148438 15-45 0-5.261719-.304688-10.308594-.855469-15l-14.140625-20zm0 0" fill="#ffd9d4"/><path d="m173 52.5c-19.59375 0-36.25 12.523438-42.429688 30h56.570313c-2.058594-17.476562-7.613281-30-14.140625-30zm0 0" fill="#ff8646"/><path d="m173 255c0-45.5625-26.863281-82.5-60-82.5s-60 36.9375-60 82.5 26.863281 82.5 60 82.5 60-36.9375 60-82.5zm0 0" fill="#ffa754"/><path d="m233 172.5v165c33.136719 0 60-36.9375 60-82.5s-26.863281-82.5-60-82.5zm0 0" fill="#ff6337"/><path d="m263 255c0-45.5625-13.433594-82.5-30-82.5-33.136719 0-60 36.9375-60 82.5s26.863281 82.5 60 82.5c16.566406 0 30-36.9375 30-82.5zm0 0" fill="#ff8646"/><path d="m173 172.5v165c33.136719 0 60-36.9375 60-82.5s-26.863281-82.5-60-82.5zm0 0" fill="#ff6337"/><path d="m203 255c0-45.5625-13.433594-82.5-30-82.5-33.136719 0-60 36.9375-60 82.5s26.863281 82.5 60 82.5c16.566406 0 30-36.9375 30-82.5zm0 0" fill="#ff8646"/><path d="m345.5 147.5c0-4.144531-3.359375-7.5-7.5-7.5-4.144531 0-7.5 3.355469-7.5 7.5 0 20.675781-16.824219 37.5-37.5 37.5h-17.472656c-11.949219-12.953125-26.773438-20-42.527344-20-10.441406 0-20.6875 3.203125-29.953125 9.289062-9.195313-6.070312-19.410156-9.289062-30.046875-9.289062-10.640625 0-20.851562 3.21875-30.046875 9.289062-9.265625-6.085937-19.515625-9.289062-29.953125-9.289062-15.753906 0-30.578125 7.046875-42.527344 20h-17.472656c-20.679688 0-37.5-16.824219-37.5-37.5 0-4.144531-3.355469-7.5-7.5-7.5s-7.5 3.355469-7.5 7.5c0 28.949219 23.550781 52.5 52.5 52.5h6.5c-9.066406 15.667969-14 34.84375-14 55 0 23.609375 6.75 45.894531 19.007812 62.746094 12.78125 17.574218 30.003907 27.253906 48.492188 27.253906 2.515625 0 5.015625-.199219 7.5-.5625v40.0625c0 9.777344 6.269531 18.113281 15 21.207031v83.386719l-24.871094 8.289062c-3.929687 1.308594-6.054687 5.558594-4.746094 9.488282 1.050782 3.140625 3.976563 5.128906 7.117188 5.128906.785156 0 1.585938-.125 2.371094-.386719l30-10c3.0625-1.019531 5.128906-3.886719 5.128906-7.113281v-88.792969c8.726562-3.09375 15-11.429687 15-21.207031v-40.054688c2.472656.355469 4.972656.554688 7.5.554688s5.027344-.199219 7.5-.554688v40.054688c0 9.777344 6.269531 18.113281 15 21.207031v88.792969c0 3.226562 2.0625 6.09375 5.128906 7.113281l30 10c.785156.261719 1.585938.386719 2.371094.386719 3.140625 0 6.066406-1.988281 7.113281-5.128906 1.3125-3.929688-.8125-8.179688-4.742187-9.488282l-24.871094-8.289062v-83.386719c8.726562-3.09375 15-11.429687 15-21.207031v-40.0625c2.480469.363281 4.984375.5625 7.5.5625 18.488281 0 35.710938-9.679688 48.492188-27.253906 12.253906-16.851563 19.007812-39.136719 19.007812-62.746094 0-20.15625-4.9375-39.332031-14-55h6.5c28.945312 0 52.5-23.550781 52.5-52.5zm-285 107.5c0-22.777344 7.152344-43.199219 18.40625-56.964844.488281-.445312.921875-.957031 1.277344-1.519531 8.996094-10.320313 20.40625-16.515625 32.816406-16.515625 6.09375 0 12.15625 1.558594 17.882812 4.558594-2.222656 2.371094-4.359374 4.921875-6.375 7.691406-12.257812 16.855469-19.007812 39.140625-19.007812 62.75s6.75 45.894531 19.007812 62.746094c2.015626 2.773437 4.152344 5.320312 6.375 7.691406-5.726562 3-11.792968 4.5625-17.882812 4.5625-28.949219 0-52.5-33.644531-52.5-75zm90 129.5c0 4.132812-3.363281 7.5-7.5 7.5s-7.5-3.367188-7.5-7.5v-44.605469c2.542969-1.191406 5.03125-2.59375 7.453125-4.1875 2.445313 1.617188 4.964844 3.027344 7.546875 4.230469zm10.453125-56.515625c-.351563-.152344-.714844-.269531-1.089844-.363281-4.03125-1.492188-7.875-3.660156-11.472656-6.398438-.445313-.460937-.941406-.847656-1.46875-1.171875-15.769531-12.953125-26.421875-37.25-26.421875-65.050781s10.652344-52.101562 26.421875-65.054688c.527344-.320312 1.023437-.707031 1.46875-1.167968 7.34375-5.59375 15.71875-8.777344 24.609375-8.777344 8.886719 0 17.261719 3.183594 24.609375 8.773438.445313.464843.941406.851562 1.472656 1.175781 15.765625 12.953125 26.417969 37.25 26.417969 65.050781s-10.652344 52.097656-26.425781 65.050781c-.527344.324219-1.019531.710938-1.46875 1.171875-3.671875 2.800782-7.601563 4.992188-11.726563 6.484375-.113281.035157-.226562.074219-.335937.113281-4.023438 1.414063-8.21875 2.179688-12.542969 2.179688-4.148438 0-8.175781-.710938-12.046875-2.015625zm49.546875 56.515625c0 4.132812-3.363281 7.5-7.5 7.5s-7.5-3.367188-7.5-7.5v-44.5625c2.582031-1.203125 5.097656-2.613281 7.546875-4.230469 2.421875 1.59375 4.910156 2.992188 7.453125 4.183594zm22.5-54.5c-6.09375 0-12.15625-1.5625-17.882812-4.5625 2.222656-2.371094 4.359374-4.921875 6.375-7.691406 12.257812-16.851563 19.007812-39.136719 19.007812-62.746094s-6.75-45.894531-19.007812-62.75c-2.015626-2.769531-4.152344-5.320312-6.378907-7.691406 5.726563-3 11.792969-4.558594 17.886719-4.558594 12.40625 0 23.816406 6.195312 32.8125 16.515625.359375.5625.789062 1.074219 1.28125 1.519531 11.253906 13.765625 18.402344 34.1875 18.402344 56.964844.003906 41.355469-23.550782 75-52.496094 75zm0 0"/><path d="m173 150c28.949219 0 52.5-23.550781 52.5-52.5 0-20.761719-12.117188-38.75-29.652344-47.257812.960938-3.035157 3.804688-5.242188 7.152344-5.242188 12.40625 0 22.5-10.09375 22.5-22.5s-10.09375-22.5-22.5-22.5c-28.125 0-51.152344 22.234375-52.4375 50.046875-17.753906 8.429687-30.0625 26.527344-30.0625 47.453125 0 28.949219 23.550781 52.5 52.5 52.5zm30-135c4.132812 0 7.5 3.363281 7.5 7.5s-3.363281 7.5-7.5 7.5c-10.039062 0-18.5625 6.609375-21.449219 15.707031-2.785156-.457031-5.636719-.707031-8.550781-.707031-2.316406 0-4.589844.167969-6.828125.457031 3.304687-17.320312 18.558594-30.457031 36.828125-30.457031zm-30 45c12.242188 0 23.132812 5.898438 29.980469 15h-59.960938c6.851563-9.101562 17.738281-15 29.980469-15zm-36.746094 30h73.492188c.492187 2.421875.753906 4.929688.753906 7.5 0 20.675781-16.820312 37.5-37.5 37.5-20.675781 0-37.5-16.824219-37.5-37.5 0-2.570312.261719-5.078125.753906-7.5zm0 0"/></svg>