<svg height="512pt" viewBox="0 0 512.00011 512" width="512pt" xmlns="http://www.w3.org/2000/svg"><path d="m166.007812 511.988281h-91c-41.351562 0-74.9960932-33.644531-74.9960932-74.996093v-62c0-8.289063 6.7070312-15 15.0000002-15 8.289062 0 15 6.710937 15 15v62c0 24.8125 20.183593 44.996093 44.996093 44.996093h91c8.289063 0 15 6.710938 15 15 0 8.292969-6.710937 15-15 15zm0 0" fill="#ffb99c"/><path d="m512 436.992188c0 8.398437-6.597656 15-15 15h-195.996094l-30-15-164.996094-137 30-59.996094h284.996094v119.996094h14.996094c41.402344 0 76 35.597656 76 77zm0 0" fill="#ffb99c"/><path d="m512 436.992188c0 8.398437-6.597656 15-15 15h-150.996094v-211.996094h75v119.996094h14.996094c41.402344 0 76 35.597656 76 77zm0 0" fill="#ff9468"/><path d="m301.003906 436.992188v15h-225.996094c-41.398437 0-74.9960932-35.601563-74.9960932-77v-57.601563c0-41.996094 32.6992192-75.894531 74.6992192-77.394531h61.296874v59.996094c36.300782 0 66.597657 25.800781 73.5 60h16.5c41.398438 0 74.996094 35.597656 74.996094 77zm0 0" fill="#ffcebf"/><path d="m204.6875 123.144531c-11.199219-35.671875-36.632812-66.167969-71.214844-82.773437l-81.972656-38.890625c-5.390625-2.578125-11.851562-1.714844-16.40625 2.269531-4.511719 3.972656-6.210938 10.269531-4.320312 15.980469l3.179687 9.523437c14.402344 43.226563 3.757813 89.910156-27.503906 122.792969l84.144531 17.667969zm0 0" fill="#68544f"/><path d="m209.070312 141.554688c-.28125.566406-.226562 1.226562-.582031 1.761718-18.84375 28.265625-64.761719 58.136719-77.714843 89.171875-13.039063 31.265625 6.9375 63.714844-.007813 96.902344 1.933594.15625 3.78125.601563 5.753906.601563 22.253907 0 43.8125-6.53125 63.722657-19.789063 32.238281-21.488281 75.480468-19.117187 105.15625 5.785156l12.523437 10.503907c2.8125 2.359374 6.226563 3.5 9.625 3.5zm0 0" fill="#68544f"/><path d="m204.6875 123.144531c-2.53125-1.855469-5.425781-3.148437-8.679688-3.148437-103.882812 0-185.351562 30.988281-189.5625 32.050781-8.621093 9.058594-7.859374 17.734375-2.039062 23.554687 3 3 44.367188 44.367188 41.363281 41.367188 9.011719 9.007812 14.0625 20.976562 14.238281 33.691406.429688 30.992188 16.839844 57 40.757813 70.109375 8.785156 4.816407 19.539063 7.792969 29.996094 8.621094 13.839843-66.132813 39.902343-129.332031 77.726562-186.074219.355469-.535156.296875-1.199218.582031-1.761718-1.042968-6.261719-2.5-12.402344-4.382812-18.410157zm0 0" fill="#53433f"/><path d="m499.398438 105.898438-34-65.398438c-12.296876-24.902344-37.496094-40.5-65.398438-40.5-16.5 0-31.496094 5.097656-44.996094 15.597656-2.699218 2.101563-6 3.003906-9 3.003906s-6.300781-.902343-9-3.003906c-13.5-10.496094-28.5-15.597656-45-15.597656-27.898437 0-53.101562 15.597656-65.398437 40.5l-33 65.398438c-8.097657 16.796874-12.597657 35.398437-12.597657 53.996093 0 45.902344 25.496094 87 68.398438 108.601563 35.695312 17.699218 65.398438 47.398437 83.097656 83.097656 2.699219 5.101562 7.800782 8.398438 13.5 8.398438 5.699219 0 10.796875-3.296876 13.5-8.398438 17.695313-35.699219 47.398438-65.398438 84.898438-84 41.097656-20.699219 67.597656-61.796875 67.597656-107.699219 0-18.597656-4.5-37.199219-12.601562-53.996093zm0 0" fill="#ff637b"/><path d="m512 159.894531c0 45.902344-26.5 87-67.597656 107.699219-37.5 18.601562-67.199219 48.300781-84.898438 84-2.703125 5.101562-7.800781 8.398438-13.5 8.398438v-341.390626c3 0 6.300782-.902343 9-3 13.5-10.5 28.5-15.601562 45-15.601562 27.898438 0 53.097656 15.601562 65.398438 40.5l34 65.398438c8.097656 16.796874 12.597656 35.398437 12.597656 53.996093zm0 0" fill="#e63950"/><path d="m439.300781 121.496094c0-10.496094-2.699219-20.699219-8.097656-29.996094-9.300781-15.601562-25.203125-25.800781-43.199219-28.203125-15.300781-1.796875-30 2.101563-42 11.101563-12.003906-9-26.699218-13.199219-42-11.398438-18 2.398438-33.902344 12.597656-43.199218 27.898438-13.199219 21.898437-10.800782 49.800781 6 69l4.199218 4.800781v30.296875c0 20.398437 13.5 37.5 31.796875 43.199218l43.199219-28.199218 43.199219 27.898437c6.898437-2.097656 13.203125-6 18.601562-11.398437 8.398438-8.402344 12.898438-19.796875 12.898438-32.097656l-.300781-28.800782 4.800781-5.699218c9.300781-11.101563 14.101562-24.601563 14.101562-38.402344zm0 0" fill="#ffcebf"/><path d="m389.203125 237.894531-43.199219-27.898437v-135.597656c12-9 26.699219-12.898438 42-11.101563 18 2.402344 33.898438 12.601563 43.199219 28.203125 5.398437 9.296875 8.097656 19.5 8.097656 29.996094 0 13.800781-4.796875 27.300781-14.097656 38.398437l-4.800781 5.699219.300781 28.800781c0 12.300781-4.5 23.699219-12.902344 32.101563-5.398437 5.398437-11.699219 9.300781-18.597656 11.398437zm0 0" fill="#ffb99c"/><path d="m389.203125 237.894531c-5.699219 18.601563-22.800781 32.101563-43.199219 32.101563-20.398437 0-37.5-13.5-43.199218-31.800782l43.199218-58.199218zm0 0" fill="#ffb99c"/><path d="m389.203125 237.894531c-5.699219 18.601563-22.800781 32.101563-43.199219 32.101563v-90zm0 0" fill="#ff9468"/><path d="m361.003906 164.996094v30c0 8.398437-6.597656 15-15 15s-15-6.601563-15-15v-30c0-8.402344 6.597656-15 15-15s15 6.601562 15 15zm0 0" fill="#ae774e"/><path d="m361.003906 164.996094v30c0 8.398437-6.597656 15-15 15v-60c8.402344 0 15 6.601562 15 15zm0 0" fill="#895d3c"/></svg>