<?xml version="1.0" encoding="iso-8859-1"?>
<!-- Generator: Adobe Illustrator 19.0.0, SVG Export Plug-In . SVG Version: 6.00 Build 0)  -->
<svg version="1.1" id="Capa_1" xmlns="http://www.w3.org/2000/svg" xmlns:xlink="http://www.w3.org/1999/xlink" x="0px" y="0px"
	 viewBox="0 0 512.002 512.002" style="enable-background:new 0 0 512.002 512.002;" xml:space="preserve">
<path style="fill:#9DB55F;" d="M181.001,7.5v45c0,16.568,13.431,30,30,30v-45C211.001,20.932,197.57,7.5,181.001,7.5z"/>
<path style="fill:#869E47;" d="M331.001,7.5v45c0,16.568-13.431,30-30,30v-45C301.001,20.932,314.432,7.5,331.001,7.5z"/>
<path style="fill:#9DB55F;" d="M256.001,27.5v116l45-61v-10C301.001,47.647,280.854,27.5,256.001,27.5z"/>
<path style="fill:#B9D171;" d="M256.001,27.5c-24.853,0-45,20.147-45,45v10l60,61v-71C271.001,47.647,264.285,27.5,256.001,27.5z"/>
<path style="fill:#85453D;" d="M274.71,82.5c-1.053-1.573-2.303-3.002-3.709-4.261l-15,69.261c24.853,0,45-20.147,45-45v-20H274.71z
	"/>
<path style="fill:#A45E43;" d="M271.001,102.5V78.239c-3.981-3.566-9.235-5.739-15-5.739c-7.801,0-14.672,3.971-18.709,10h-26.291
	v20c0,24.853,20.147,45,45,45C264.285,147.5,271.001,127.353,271.001,102.5z"/>
<path style="fill:#9DB55F;" d="M278.501,322.5c0,0,0,60.749,0,69.033s6.716,15,15,15s15-6.716,15-15s0-69.033,0-69.033H278.501z"/>
<path style="fill:#B9D171;" d="M203.501,322.5c0,0,0,60.749,0,69.033s6.716,15,15,15s15-6.716,15-15s0-69.033,0-69.033H203.501z"/>
<polygon style="fill:#60312C;" points="263.501,333.5 323.501,303.5 323.501,243.5 293.501,243.5 "/>
<g>
	<polygon style="fill:#85453D;" points="293.501,333.5 188.501,303.5 188.501,243.5 293.501,243.5 	"/>
	<polygon style="fill:#85453D;" points="293.501,357.5 323.501,357.5 323.501,303.5 293.501,303.5 263.501,330.5 	"/>
</g>
<rect x="188.5" y="303.5" style="fill:#A45E43;" width="105" height="54.03"/>
<path style="fill:#9DB55F;" d="M398.501,177.5c0-16.569-13.431-30-30-30h-60l-15,126h30c8.03-6.03,13.61-15.14,15-25.57V177.5
	H398.501z"/>
<path style="fill:#B9D171;" d="M143.501,147.5c-16.569,0-30,13.431-30,30h60v70.43c1.39,10.43,6.97,19.54,15,25.57h105
	c8.03-6.03,13.61-15.14,15-25.57V147.5H143.501z"/>
<circle style="fill:#9DB55F;" cx="203.5" cy="177.5" r="7.5"/>
<circle style="fill:#869E47;" cx="308.5" cy="177.5" r="7.5"/>
<g>
	<path style="fill:#FFF0D3;" d="M398.504,252.5h59.997v15c0,8.28-6.72,15-15,15h-59.997L398.504,252.5z"/>
	<path style="fill:#FFF0D3;" d="M443.501,132.5c8.28,0,15,6.72,15,15v15h-59.997l-15-30H443.501z"/>
</g>
<polygon style="fill:#FFCB63;" points="413.501,162.5 393.001,207.5 413.501,252.5 443.501,252.5 443.501,162.5 "/>
<path style="fill:#FFE2A8;" d="M398.504,162.5v-15c0-8.284-6.716-15-15-15s-15,6.716-15,15v120c0,8.284,6.716,15,15,15
	s15-6.716,15-15v-15h14.997v-90H398.504z"/>
<path d="M458.501,170c4.143,0,7.5-3.357,7.5-7.5v-15c0-12.406-10.094-22.5-22.5-22.5h-60c-9.777,0-18.114,6.271-21.21,15h-69.598
	c9.745-9.537,15.808-22.821,15.808-37.5V89.245c17.096-3.484,30-18.635,30-36.745v-45c0-4.143-3.357-7.5-7.5-7.5
	c-20.125,0-36.592,15.937-37.458,35.852C284.003,26.082,270.702,20,256.001,20c-14.701,0-28.002,6.082-37.542,15.852
	C217.593,15.937,201.126,0,181.001,0c-4.142,0-7.5,3.357-7.5,7.5v45c0,18.11,12.904,33.261,30,36.745V102.5
	c0,14.679,6.063,27.963,15.808,37.5h-75.808c-18.11,0-33.261,12.904-36.745,30h-8.255c-28.949,0-52.5,23.552-52.5,52.5v15
	c0,4.143,3.358,7.5,7.5,7.5s7.5-3.357,7.5-7.5v-15c0-20.678,16.822-37.5,37.5-37.5h67.5v62.929c0,0.331,0.022,0.662,0.066,0.991
	c1.44,10.804,6.817,20.857,14.934,28.119v80.493c0,4.143,3.358,7.5,7.5,7.5h7.5v26.501c0,9.777,6.271,18.114,15,21.21v76.352
	l-24.872,8.29c-3.93,1.31-6.053,5.558-4.744,9.487c1.048,3.143,3.974,5.13,7.114,5.13c0.786,0,1.586-0.125,2.373-0.387l30-10
	c3.062-1.021,5.128-3.887,5.128-7.115v-81.757c8.729-3.096,15-11.433,15-21.21v-26.5h30v26.5c0,9.777,6.271,18.114,15,21.21V494.5
	c0,3.229,2.065,6.095,5.128,7.115l30,10c0.787,0.262,1.587,0.387,2.373,0.387c3.14,0,6.066-1.987,7.114-5.13
	c1.31-3.93-0.813-8.178-4.743-9.487L301,489.095v-76.352c8.729-3.096,15-11.433,15-21.21v-26.5h7.5c1.989,0,3.896-0.79,5.304-2.196
	c1.406-1.407,2.196-3.314,2.196-5.304v-80.494c8.117-7.262,13.494-17.316,14.935-28.119c0.044-0.329,0.065-0.66,0.065-0.991V185h15
	v82.5c0,12.406,10.094,22.5,22.5,22.5h60c12.406,0,22.5-10.094,22.5-22.5v-15c0-4.143-3.357-7.5-7.5-7.5h-60
	c-4.143,0-7.5,3.357-7.5,7.5v15c0,4.136-3.364,7.5-7.5,7.5s-7.5-3.364-7.5-7.5v-120c0-4.136,3.364-7.5,7.5-7.5s7.5,3.364,7.5,7.5v15
	c0,4.143,3.357,7.5,7.5,7.5H436v15h-7.5c-4.143,0-7.5,3.357-7.5,7.5s3.357,7.5,7.5,7.5h7.5v22.5c0,4.143,3.357,7.5,7.5,7.5
	s7.5-3.357,7.5-7.5V200h7.5c4.143,0,7.5-3.357,7.5-7.5s-3.357-7.5-7.5-7.5H451v-15H458.501z M406.001,267.5V260h45v7.5
	c0,4.136-3.364,7.5-7.5,7.5h-38.785C405.548,272.653,406.001,270.128,406.001,267.5z M308.501,37.5c0-9.778,6.27-18.119,15-21.215
	V52.5c0,9.777-6.271,18.115-15,21.21V37.5z M256.001,35c20.678,0,37.5,16.822,37.5,37.5V75h-15.139
	c-5.653-6.324-13.747-10-22.361-10c-8.615,0-16.708,3.675-22.361,10h-15.139v-2.5C218.501,51.822,235.323,35,256.001,35z
	 M188.501,52.5V16.285c8.73,3.096,15,11.437,15,21.215v36.21C194.771,70.615,188.501,62.277,188.501,52.5z M218.501,102.5V90h18.792
	c2.502,0,4.84-1.248,6.232-3.328c2.797-4.178,7.461-6.672,12.476-6.672s9.68,2.494,12.477,6.673c1.393,2.079,3.73,3.327,6.232,3.327
	h18.791v12.5c0,20.678-16.822,37.5-37.5,37.5S218.501,123.178,218.501,102.5z M226.001,391.533c0,4.133-3.359,7.494-7.49,7.5
	c-4.151-0.005-7.51-3.367-7.51-7.5v-26.501h15V391.533z M301.001,391.533c0,4.136-3.364,7.5-7.5,7.5s-7.5-3.364-7.5-7.5v-26.5h15
	V391.533z M196.001,350.032V311h67.5c4.143,0,7.5-3.357,7.5-7.5s-3.357-7.5-7.5-7.5h-67.5v-15h120v15h-22.5
	c-4.143,0-7.5,3.357-7.5,7.5s3.357,7.5,7.5,7.5h22.5v39.033L196.001,350.032z M338.501,170c-4.143,0-7.5,3.357-7.5,7.5v69.903
	c-1.069,7.163-4.724,13.8-10.172,18.597H191.173c-5.447-4.796-9.103-11.434-10.172-18.597V177.5c0-4.143-3.358-7.5-7.5-7.5h-51.21
	c3.096-8.729,11.432-15,21.21-15h217.5v15H338.501z M404.716,140h38.785c4.136,0,7.5,3.364,7.5,7.5v7.5h-45v-7.5
	C406.001,144.872,405.548,142.347,404.716,140z"/>
<g>
</g>
<g>
</g>
<g>
</g>
<g>
</g>
<g>
</g>
<g>
</g>
<g>
</g>
<g>
</g>
<g>
</g>
<g>
</g>
<g>
</g>
<g>
</g>
<g>
</g>
<g>
</g>
<g>
</g>
</svg>
