<svg height="512pt" viewBox="-26 0 512 512.1055" width="512pt" xmlns="http://www.w3.org/2000/svg"><path d="m451.984375 409.585938-.257813 3.839843c-2.496093 25.042969-16.710937 47.421875-38.3125 60.332031-16.117187 9.351563-33.976562 15.304688-52.480468 17.492188-5.375.769531-10.753906 1.363281-16.042969 1.792969-4.4375.339843-9.046875.679687-13.738281.679687-4.839844.128906-9.6875-.042968-14.507813-.511718-9.214843-.515626-18.261719-2.683594-26.707031-6.398438-2.730469-1.195312-12.972656.597656-15.53125-1.109375-8.535156-4.644531-14.292969-13.136719-15.445312-22.785156-3.5-19.285157-5.632813-49.152344 4.949218-66.132813 10.601563-15.90625 24.125-29.660156 39.851563-40.53125 30.632812-22.359375 50.6875-40.277344 54.441406-81.066406 1.644531-22.914062-3.175781-45.828125-13.910156-66.136719-14.847657-33.109375-29.867188-76.628906-63.574219-92.242187-1.191406-.597656-2.472656-1.109375-3.667969-1.621094l17.066407-17.070312 2.730468.769531c20.394532 5.886719 147.285156 46.59375 155.136719 148.566406 2.09375 32.054687-6.292969 63.921875-23.894531 90.792969-7.195313 11.089844-15.152344 21.667968-23.808594 31.660156-9.898438 11.691406-23.039062 22.015625-27.988281 37.035156-1.042969 2.773438-1.421875 5.753906-1.109375 8.703125 1.570312 5.929688 5.742187 10.824219 11.351562 13.3125 3.152344 1.628907 6.46875 2.917969 9.898438 3.839844 8.289062 2.289063 17.039062 2.316406 25.34375.085937 3.53125-.929687 6.941406-2.273437 10.152344-4.011718 6.058593-3.328125 19.882812-11.433594 20.054687-19.285156zm0 0" fill="#a4c2f7"/><path d="m421.777344 432.882812c-6.488282 17.003907-18.433594 31.382813-33.964844 40.875-16.113281 9.351563-33.972656 15.304688-52.480469 17.492188-5.375.769531-10.75 1.363281-16.042969 1.792969-.875.101562-1.757812.15625-2.644531.167969-9.214843-.515626-18.261719-2.683594-26.707031-6.398438-2.730469-1.195312-12.972656.597656-15.53125-1.109375-8.535156-4.644531-14.292969-13.136719-15.445312-22.785156-3.5-19.285157-5.632813-49.152344 4.949218-66.132813 10.601563-15.90625 24.125-29.660156 39.851563-40.53125 30.632812-22.359375 50.6875-40.277344 54.441406-81.066406 1.644531-22.914062-3.175781-45.828125-13.910156-66.136719-14.847657-33.109375-29.867188-76.628906-63.574219-92.242187-1.191406-.597656-2.472656-1.109375-3.667969-1.621094l10.753907-10.753906c40.703124 14.59375 131.921874 57.003906 138.578124 143.019531 2.09375 32.054687-6.289062 63.921875-23.890624 90.792969-7.199219 11.089844-15.152344 21.667968-23.808594 31.660156-9.898438 11.691406-23.039063 22.015625-27.988282 37.035156-1.042968 2.773438-1.421874 5.753906-1.109374 8.703125 1.566406 5.929688 5.742187 10.824219 11.347656 13.3125 10.921875 5.714844 23.605468 7.089844 35.5 3.839844 8.289062 2.289063 17.039062 2.316406 25.34375.085937zm0 0" fill="#d4e1f4"/><path d="m303.785156 211.1875c.085938 37.375-40.8125 81.492188-90.734375 104.53125-6.207031 2.882812-12.21875 6.160156-18.003906 9.8125 19.964844-28.160156-5.460937-66.472656-7.425781-69.375 2.730468-.085938-2.226563-11.402344-.570313-13.652344 74.382813-102.445312 101.972657-9.558594 116.734375-31.316406zm0 0" fill="#a4c2f7"/><path d="m374.757812 274.589844c-3.753906 40.789062-32.257812 61.78125-62.890624 84.136718-15.269532 10.191407-28.378907 23.300782-38.570313 38.570313-9.429687 17.21875-12.050781 37.347656-7.339844 56.40625 1.234375 11.363281 7.023438 21.738281 16.042969 28.757813 2.511719 1.679687 5.167969 3.136718 7.9375 4.351562-9.238281 5.53125-19.425781 9.292969-30.039062 11.09375-9.789063 2.359375-19.746094 3.957031-29.78125 4.777344-.425782 0-.769532.085937-1.195313.085937-6.664063.644531-13.363281.8125-20.050781.511719-15.785156.085938-31.207032-4.746094-44.117188-13.824219-29.953125-22.953125-35.671875-66.902343-23.554687-99.582031 10.382812-26.789062 29.308593-49.402344 53.847656-64.34375 5.785156-3.652344 11.796875-6.929688 18.003906-9.8125 49.921875-23.039062 63.574219-63.316406 63.488281-100.691406-.085937-45.65625-45.996093-82.773438-45.996093-82.773438 10.582031-2.988281 43.949219-11.09375 50.175781-15.445312 35.273438 18.03125 63.53125 47.308594 80.300781 83.199218 10.730469 23.324219 15.453125 48.964844 13.738281 74.582032zm0 0" fill="#d4e1f4"/><path d="m296.847656 98.886719c-3.628906 7.339843-9.207031 13.542969-16.128906 17.921875-7.652344 5.089844-16.101562 8.867187-25 11.175781 12.808594 27.289063 19.894531 56.910156 20.820312 87.042969-19.675781 24.648437-49.046874 39.582031-80.554687 40.957031-2.816406 0-5.632813.085937-8.363281.171875-30.121094 1.449219-54.1875 11.179688-85.503906 42.496094-34.132813 34.132812-59.734376-17.066406-68.265626-34.132813-8.535156-17.066406-17.066406-25.601562 25.597657-51.199219 31.660156-19.03125 39.851562-47.359374 59.394531-71.253906 10.835938 14.761719-3.292969-23.324218 16.410156 1.5625-1.621094-.34375 3.8125-8.671875 3.558594-9.953125-1.792969-7.335937 6.296875-9.957031 9.539062-16.867187 13.140626-27.734375 14.507813-22.980469 41.003907-21.53125 1.023437 0 31.632812-4.351563 32.65625-4.265625 9.242187-3.398438 17.949219-8.101563 25.855469-13.96875 10.15625-7.167969 26.027343-12.289063 50.515624-8.789063 3.449219 10.027344 2.898438 21-1.535156 30.632813zm0 0" fill="#e3e7f2"/><path d="m115.070312 116.039062-104.984374-100.027343c-1.535157-1.429688-1.804688-3.757813-.636719-5.5 1.167969-1.738281 3.425781-2.375 5.328125-1.496094l133.574218 65.449219zm0 0" fill="#e3e7f2"/><path d="m247.867188 77.042969c-8.714844 6.09375-15 15.070312-17.75 25.34375-1.023438-.085938-2.046876-.171875-3.070313-.171875-26.539063-1.449219-62.292969.511718-75.4375 28.246094-3.148437 6.867187-3.84375 14.609374-1.960937 21.929687.253906 1.28125 2.046874 9.386719 3.667968 9.726563-13.269531-3.007813-25.296875-10.003907-34.472656-20.050782-5.550781-7.492187-6.960938-17.273437-3.753906-26.027344.046875 0 .082031-.039062.082031-.085937 4.554687-11.710937 11.769531-22.199219 21.078125-30.632813 3.765625-3.765624 7.753906-7.300781 11.949219-10.582031l.167969-.171875c29.03125-24.429687 71.722656-23.367187 99.5 2.476563zm0 0" fill="#e3e7f2"/><path d="m227.121094 160.492188c-4.128906-9.449219-19.511719-11.851563-34.359375-5.363282-14.847657 6.484375-23.539063 19.40625-19.410157 28.855469 4.128907 9.449219 19.511719 11.851563 34.359376 5.363281 14.847656-6.488281 23.539062-19.40625 19.410156-28.855468zm0 0" fill="#fff"/><path d="m210.773438 178.289062c0 8.101563-6.570313 14.667969-14.667969 14.667969-8.101563 0-14.671875-6.566406-14.671875-14.667969 0-8.101562 6.570312-14.667968 14.671875-14.667968 8.097656 0 14.667969 6.566406 14.667969 14.667968zm0 0" fill="#7fabfa"/><g fill="#fff"><path d="m210.003906 169.644531c0 4.714844-3.820312 8.535157-8.53125 8.535157-4.714844 0-8.535156-3.820313-8.535156-8.535157 0-4.710937 3.820312-8.53125 8.535156-8.53125 4.710938 0 8.53125 3.820313 8.53125 8.53125zm0 0"/><path d="m331.152344 493.722656c3.804687 0 7.535156-.238281 11.1875-.5h-.09375c-9.214844-.519531-18.261719-2.6875-26.710938-6.402344-3 1.964844-6.1875 3.625-9.511718 4.957032 3.507812.683594 7.054687 1.164062 10.621093 1.445312 4.820313.460938 9.667969.628906 14.507813.5zm0 0"/><path d="m164.753906 489.457031c12.910156 9.078125 28.332032 13.910157 44.117188 13.824219 6.339844.28125 12.691406.132812 19.011718-.453125-13.53125-.8125-26.550781-5.449219-37.546874-13.371094-29.953126-22.953125-35.671876-66.902343-23.554688-99.582031 10.382812-26.789062 29.308594-49.402344 53.847656-64.34375 19.96875-28.160156-5.460937-66.472656-7.425781-69.375-7.925781.328125-15.800781 1.441406-23.507813 3.320312 6.21875 10.339844 22.460938 41.898438 5.332032 66.054688-24.539063 14.941406-43.464844 37.554688-53.84375 64.34375-12.101563 32.679688-6.382813 76.628906 23.570312 99.582031zm0 0"/><path d="m431.929688 428.871094c-3.136719 1.6875-6.457032 3.003906-9.898438 3.925781 8.269531 2.277344 16.992188 2.3125 25.277344.101563 2.324218-6.269532 3.808594-12.816407 4.417968-19.472657l.257813-3.839843c-.171875 7.851562-13.996094 15.957031-20.054687 19.285156zm0 0"/><path d="m115.070312 116.039062.136719-.171874v.105468c0 .046875-.039062.082032-.085937.082032-3.207032 8.757812-1.796875 18.535156 3.757812 26.027343.570313.785157 1.203125 1.527344 1.839844 2.261719-.65625-.714844-1.273438-1.46875-1.839844-2.261719-19.542968 23.894531-27.734375 52.226563-59.394531 71.253907-42.667969 25.601562-34.132813 34.132812-25.597656 51.199218 7.679687 15.359375 29.0625 58.078125 58.023437 42.027344-15.8125-8.816406-27.304687-31.675781-32.425781-42.027344-8.53125-17.066406-17.066406-25.597656 25.601563-51.199218 31.65625-19.027344 39.851562-47.359376 59.390624-71.253907-5.550781-7.492187-6.960937-17.269531-3.753906-26.027343.046875 0 .085938-.035157.085938-.082032v-.105468l-.136719.171874-97.972656-93.335937-27.921875-13.65625c-1.902344-.875-4.160156-.242187-5.328125 1.5-1.167969 1.738281-.898438 4.070313.636719 5.5zm0 0"/><path d="m146.285156 144.328125c-.640625-.734375-1.269531-1.476563-1.84375-2.261719.570313.789063 1.183594 1.542969 1.84375 2.261719zm0 0"/><path d="m149.1875 392.828125c-11.347656 30.667969-5.035156 70.289063 20.734375 89.84375l-10.375 13.542969c-16-12.71875-26.878906-30.777344-30.644531-50.867188-3.996094-19.503906-2.519532-39.734375 4.269531-58.453125zm0 0"/></g><path d="m105.625 118.8125c-1.40625 6.886719-.730469 14.039062 1.945312 20.539062.289063.699219.75 1.28125 1.082032 1.953126-5.117188 6.777343-9.480469 13.722656-13.710938 20.480468-9.328125 17.878906-23.050781 33.09375-39.875 44.210938-40.109375 24.082031-41.875 37.128906-30.535156 59.042968l1.707031 3.285157c6.828125 13.738281 22.945313 45.894531 47.789063 49.921875 1.714844.28125 3.453125.421875 5.195312.425781 11.167969-.539063 21.640625-5.589844 29.011719-13.996094 27.121094-27.117187 48.027344-36.617187 70.957031-39.253906.125 1.613281.71875 3.15625 1.707032 4.4375.238281.300781 23.175781 29.433594 8.140624 49.496094-25.410156 15.863281-44.972656 39.566406-55.730468 67.523437-3.84375 10.660156-5.988282 21.855469-6.359375 33.175782-.042969 2.238281.855469 4.390624 2.480469 5.929687 1.625 1.535156 3.820312 2.320313 6.054687 2.152344 4.339844.03125 8.011719-3.199219 8.53125-7.507813.308594-9.492187 2.101563-18.875 5.308594-27.8125 9.703125-25.042968 27.429687-46.171875 50.40625-60.082031 5.464843-3.457031 11.148437-6.558594 17.015625-9.285156 28.621094-11.953125 50.914062-35.375 61.441406-64.554688 17.253906-49.175781-1.800781-104.445312-10.703125-125.773437 4.011719-1.503906 7.917969-3.273438 11.691406-5.296875 33.121094 15.359375 59.511719 42.257812 74.238281 75.664062 10.09375 22.007813 14.550782 46.179688 12.972657 70.339844-3.363281 37.164063-29.347657 56.082031-59.425781 77.988281-16.136719 10.863282-29.992188 24.777344-40.789063 40.957032-10.703125 18.964843-13.726563 41.3125-8.449219 62.441406 1.582032 11.503906 6.875 22.175781 15.070313 30.402344-4.804688 1.613281-9.796875 2.800781-14.71875 3.941406-9.40625 2.265625-18.972657 3.796875-28.613281 4.59375-1.144532.101562-2.195313.136718-3.3125.210937-10.613282-15.496093-45.226563-74.171875 2.050781-121.4375 3.230469-3.347656 3.1875-8.667969-.105469-11.960937-3.292969-3.292969-8.613281-3.339844-11.960938-.105469-48.574218 48.445313-24.84375 107.246094-9.898437 133.71875-13.023437-.285156-25.664063-4.445313-36.3125-11.945313-3.570313-2.824218-6.839844-6.011718-9.753906-9.507812-3.03125-2.957031-7.746094-3.316406-11.195313-.851562-1.949218 1.179687-3.285156 3.152343-3.664062 5.402343-.375 2.25.246094 4.550781 1.703125 6.304688 3.730469 4.492187 7.925781 8.574219 12.519531 12.183593 15.996094 11.273438 35.316406 16.847657 54.859375 15.820313 1.972656 0 4.164063-.230469 6.210937-.304687.460938.140624.933594.246093 1.410157.304687.984375-.007813 1.960937-.1875 2.882812-.527344 2.039063-.128906 3.925781-.101562 6.035157-.300781 10.40625-.847656 20.730468-2.503906 30.878906-4.957031 9.972656-1.929688 19.617187-5.273438 28.640625-9.933594 12.066406 4.265625 24.800781 6.320313 37.597656 6.058594 6.324219 0 12.296875-.363281 17.601563-.851563 25.375-1.050781 50.136718-8.085937 72.269531-20.53125 23.847656-14.328125 39.53125-39.070312 42.316406-66.746094.128906-1.453124.222656-2.902343.265625-4.363281v-.09375c.085938-4.6875-3.628906-8.570312-8.320312-8.6875-2.253907-.140625-4.46875.65625-6.121094 2.195313-1.652344 1.542968-2.597656 3.695312-2.617188 5.957031-.195312.527344-2.167968 4.792969-15.589844 12.167969-11.648437 6.179687-25.601562 6.199218-37.265624.050781-3.992188-2.167969-6.59375-4.8125-6.953126-7.082031-.113281-1.621094.140626-3.246094.742188-4.753906 4.078125-9.441407 10.15625-17.882813 17.816406-24.746094 2.953125-3.117188 5.898438-6.203125 8.601563-9.386719 8.949219-10.277344 17.152343-21.179687 24.550781-32.625 18.574219-28.441406 27.402344-62.148437 25.15625-96.042969-7.925781-103.074218-123.605469-142.453125-153.34375-150.910156 2.921875-10.109375 2.625-20.875-.851562-30.804688-1.136719-2.832031-3.695313-4.84375-6.71875-5.273437-26.496094-3.789063-44.175782 1.707031-55.902344 9.847656-12.3125-12.839843-28.984375-20.601562-46.734375-21.761719-17.921875-.324218-35.40625 5.550782-49.492188 16.632813l-128.855469-63.121094c-5.730468-2.9375-12.753906-1.101562-16.316406 4.265625-3.59375 5.203125-2.773437 12.265625 1.914063 16.511719zm105.472656 188.304688c.132813-15.253907-4.5-30.171876-13.253906-42.667969 24.777344-1.574219 48.480469-10.675781 67.941406-26.085938-.890625 5.050781-2.167968 10.027344-3.820312 14.882813-8.839844 24.179687-27.234375 43.660156-50.867188 53.871094zm232.363282-59.023438c1.953124 30.230469-5.96875 60.277344-22.570313 85.613281-6.96875 10.773438-14.691406 21.039063-23.109375 30.71875-2.5 2.945313-5.222656 5.804688-7.960938 8.679688-9.484374 8.621093-16.886718 19.285156-21.652343 31.179687-1.484375 4.070313-1.964844 8.4375-1.390625 12.734375 1.886718 8.566407 7.683594 15.75 15.660156 19.402344 16.78125 8.839844 36.851562 8.800781 53.597656-.101563l.855469-.476562c-6.238281 12.695312-15.980469 23.335938-28.078125 30.667969-9.171875 5.566406-19.136719 9.714843-29.550781 12.304687-1.777344-.917968-3.828125-1.167968-5.777344-.707031-11.253906 2.597656-23.082031.101563-32.324219-6.828125-10.808594-10.128906-13.71875-30.925781-8.402344-60.132812.542969-3-.550781-6.0625-2.878906-8.035157-2.324218-1.972656-5.523437-2.554687-8.394531-1.527343-2.871094 1.027343-4.976563 3.507812-5.523437 6.507812-6.492188 35.695312-1.933594 61.148438 13.535156 75.648438.597656.554687 1.230468.996093 1.835937 1.507812-15.527343 1.199219-31.066406-2.234375-44.636719-9.871094-7.078124-5.765625-11.527343-14.140625-12.339843-23.230468-4.40625-16.953126-2.207031-34.949219 6.152343-50.34375 9.667969-14.292969 22.011719-26.582032 36.34375-36.191407 30.632813-22.304687 62.292969-45.378906 66.386719-90.238281 1.917969-27.082031-3.035156-54.207031-14.394531-78.867188-15.246094-34.117187-41.320312-62.25-74.179688-80.042968 1.578126-1.609375 3.050782-3.320313 4.410157-5.121094 19.074219 5.25 137.046875 41.304688 144.386719 136.75zm-204.988282-144c.273438-1.367188 7.039063-32.164062 53.109375-28.015625 1.207031 6.695313.265625 13.597656-2.6875 19.726563-5.367187 10.71875-17.320312 18.773437-35.539062 24.007812-2.441407.695312-4.445313 2.445312-5.464844 4.769531-1.023437 2.324219-.957031 4.980469.179687 7.253907 11.730469 25.269531 18.457032 52.570312 19.816407 80.398437-18.089844 21.148437-44.105469 33.890625-71.902344 35.21875-33.792969 0-62.292969 7.550781-99.898437 45.167969-4.605469 5.953125-11.859376 9.246094-19.371094 8.789062-16.214844-2.628906-30.019532-30.292968-35.226563-40.707031l-1.792969-3.503906c-6.347656-12.253907-8.71875-16.847657 24.148438-36.566407 19.179688-12.449218 34.863281-29.582031 45.570312-49.785156 3.414063-5.460937 6.824219-10.65625 10.410157-15.726562 8.953125 7.066406 19.296875 12.160156 30.351562 14.949218.449219.15625.902344.285157 1.367188.386719v-.078125c.5625.132813 1.132812.222656 1.707031.265625 3.414062 0 6.5-2.035156 7.84375-5.171875 1.34375-3.140625.691406-6.777344-1.667969-9.25-.632812-1.925781-1.152343-3.882812-1.550781-5.871094-1.417969-5.402343-.929688-11.128906 1.382812-16.214843 8.402344-17.738281 30.386719-25.410157 67.71875-23.363281.785157 0 1.5625.070312 2.347657.136718 4.34375.398438 8.289062-2.542968 9.148437-6.816406zm-42.523437-39.167969c13.417969.941407 26.011719 6.808594 35.363281 16.476563-2.863281 3.730468-5.253906 7.796875-7.125 12.109375-18.945312-.90625-63.949219-1.238281-80.316406 33.277343-3.132813 6.691407-4.378906 14.109376-3.609375 21.453126-7.941407-3.15625-14.273438-9.382813-17.5625-17.269532-3.746094-12.867187 8.578125-28.671875 19.566406-39.664062 17.570313-17.570313 34.988281-26.453125 51.757813-26.453125.679687.027343 1.285156.042969 1.925781.070312zm-62.796875 11.59375c-.980469.941407-1.96875 1.777344-2.953125 2.757813-6.867188 6.675781-12.847657 14.214844-17.78125 22.425781l-76.433594-72.789063zm0 0" fill="#428dff"/><path d="m147.371094 448.71875c-.636719-1.839844-1.953125-3.363281-3.679688-4.265625l-1.449218-.570313c-.554688-.179687-1.128907-.289062-1.707032-.324218-.53125-.113282-1.074218-.152344-1.613281-.121094-.574219.03125-1.140625.097656-1.707031.195312-2.183594.445313-4.109375 1.730469-5.359375 3.578126-.570313.957031-.941407 2.019531-1.089844 3.121093-.417969 3.402344 1.355469 6.695313 4.425781 8.21875 1.046875.414063 2.164063.613281 3.285156.589844 1.117188.003906 2.222657-.203125 3.261719-.609375 2.011719-.84375 3.703125-2.316406 4.8125-4.195312 1.039063-1.679688 1.335938-3.710938.820313-5.617188zm0 0" fill="#428dff"/><path d="m67.96875 247.453125c-.003906-3.453125-2.082031-6.5625-5.269531-7.882813-3.1875-1.320312-6.859375-.589843-9.296875 1.847657-4.089844 3.679687-5.574219 9.449219-3.765625 14.644531 3.5 8.449219 14.667969 8.449219 18.339843 8.449219 4.710938 0 8.53125-3.820313 8.53125-8.535157 0-4.710937-3.820312-8.53125-8.53125-8.53125zm0 0" fill="#428dff"/><path d="m202.433594 145.292969c-12.019532 2.117187-22.570313 9.253906-29.011719 19.625-4.179687 7.824219-5.097656 16.980469-2.558594 25.480469.492188 1.464843 1.378907 2.765624 2.558594 3.761718 3.828125 2.992188 8.574219 4.5625 13.429687 4.449219 4.539063-.0625 9-1.1875 13.023438-3.277344 4.222656-2.136719 5.914062-7.289062 3.78125-11.511719-2.136719-4.222656-7.289062-5.917968-11.511719-3.78125-1.757812.886719-3.675781 1.40625-5.640625 1.527344-.171875-3.003906.496094-5.996094 1.9375-8.636718 4.289063-6 10.828125-10.003907 18.125-11.09375 4.574219-1.140626 7.355469-5.777344 6.210938-10.347657-1.140625-4.574219-5.777344-7.355469-10.351563-6.214843zm0 0" fill="#428dff"/><path d="m294.363281 299.898438c-4.03125 2.441406-5.320312 7.6875-2.878906 11.71875 2.441406 4.035156 7.6875 5.324218 11.722656 2.882812 1.976563-1.1875 48.21875-30.0625 20.769531-112.410156-.964843-2.898438-3.398437-5.058594-6.390624-5.671875-2.988282-.613281-6.078126.414062-8.105469 2.695312-2.027344 2.28125-2.679688 5.472657-1.71875 8.367188 22.871093 68.542969-11.75 91.386719-13.398438 92.417969zm0 0" fill="#428dff"/></svg>