<svg height="511pt" viewBox="-46 1 511 511.999" width="511pt" xmlns="http://www.w3.org/2000/svg"><path d="m255.488281 0c-90.898437 0-165 75.097656-165 166v161.699219c0 62.699219-31.195312 121.898437-83.398437 156.699219-5.402344 3.902343-7.796875 10.5-6 17.101562 2.101562 6.300781 7.800781 10.5 14.398437 10.5h210c10.203125 0 20.402344-.902344 30-2.402344 93.300781-14.398437 165-96.398437 165-193.597656v-150c0-90.902344-74.097656-166-165-166zm0 0" fill="#9bfcff"/><path d="m420.488281 166v150c0 97.199219-71.699219 179.199219-165 193.597656v-509.597656c90.902344 0 165 75.097656 165 166zm0 0" fill="#25d9f8"/><path d="m255.488281 181c-25.199219 0-45 26.398438-45 60s19.800781 60 45 60c25.203125 0 45-26.398438 45-60s-19.796875-60-45-60zm0 0" fill="#68544f"/><path d="m195.488281 181c-24.8125 0-45-20.1875-45-45 0-8.289062 6.710938-15 15-15 8.292969 0 15 6.710938 15 15 0 8.277344 6.726563 15 15 15 8.277344 0 15-6.722656 15-15 0-8.289062 6.710938-15 15-15 8.292969 0 15 6.710938 15 15 0 24.8125-20.183593 45-45 45zm0 0" fill="#68544f"/><path d="m315.488281 181c-24.8125 0-45-20.1875-45-45 0-8.289062 6.710938-15 15-15 8.292969 0 15 6.710938 15 15 0 8.277344 6.726563 15 15 15 8.277344 0 15-6.722656 15-15 0-8.289062 6.710938-15 15-15 8.292969 0 15 6.710938 15 15 0 24.8125-20.183593 45-45 45zm0 0" fill="#53433f"/><path d="m135.488281 361c-24.8125 0-45-20.1875-45-45v-60c0-8.289062 6.710938-15 15-15 8.292969 0 15 6.710938 15 15v60c0 8.277344 6.726563 15 15 15 8.277344 0 15-6.722656 15-15v-60c0-8.289062 6.710938-15 15-15 8.292969 0 15 6.710938 15 15v60c0 24.8125-20.183593 45-45 45zm0 0" fill="#00c0f1"/><path d="m375.488281 361c-24.8125 0-45-20.1875-45-45v-60c0-8.289062 6.710938-15 15-15 8.292969 0 15 6.710938 15 15v60c0 8.277344 6.726563 15 15 15 8.277344 0 15-6.722656 15-15v-60c0-8.289062 6.710938-15 15-15 8.292969 0 15 6.710938 15 15v60c0 24.8125-20.183593 45-45 45zm0 0" fill="#009ae4"/><path d="m300.488281 241c0 33.601562-19.796875 60-45 60v-120c25.203125 0 45 26.398438 45 60zm0 0" fill="#53433f"/></svg>