<svg height="512pt" viewBox="0 0 512 512.03072" width="512pt" xmlns="http://www.w3.org/2000/svg"><path d="m457.316406 167.15625c-4.851562 4.878906-6.296875 12.195312-3.667968 18.550781 2.628906 6.359375 8.820312 10.519531 15.699218 10.546875 9.058594-.011718 17.746094 3.582032 24.148438 9.984375 6.40625 6.40625 9.996094 15.09375 9.984375 24.148438v59.734375c0 18.851562-15.28125 34.132812-34.132813 34.132812h-81.917968l-28.84375-31.914062c2.539062-1.476563 5.425781-2.246094 8.363281-2.21875h76.800781c14.136719 0 25.597656-11.460938 25.597656-25.601563v-8.53125c0-14.140625-11.460937-25.601562-25.597656-25.601562-14.140625 0-25.601562-11.460938-25.601562-25.597657v-51.203124c0-14.136719 11.460937-25.597657 25.601562-25.597657 10.347656-.011719 19.671875-6.246093 23.628906-15.808593 3.957032-9.558594 1.773438-20.5625-5.539062-27.882813-2.671875-2.714844-5.945313-4.761719-9.558594-5.972656l-15.101562-17.835938 14.503906-17.066406.597656-.769531h17.066406c18.851563 0 34.132813 15.285156 34.132813 34.136718v51.199219c0 18.851563-15.28125 34.132813-34.132813 34.132813-4.527344-.023438-8.871094 1.792968-12.03125 5.035156zm0 0" fill="#2e7d32"/><path d="m432.484375 167.15625c-4.851563 4.878906-6.296875 12.195312-3.667969 18.550781 2.628906 6.359375 8.820313 10.519531 15.699219 10.546875 9.058594-.011718 17.746094 3.582032 24.148437 9.984375 6.40625 6.40625 9.996094 15.09375 9.984376 24.148438v59.734375c0 18.851562-15.28125 34.132812-34.132813 34.132812h-57.085937l-28.84375-31.914062c2.539062-1.476563 5.425781-2.246094 8.363281-2.21875h76.800781c14.136719 0 25.597656-11.460938 25.597656-25.601563v-8.53125c0-14.140625-11.460937-25.601562-25.597656-25.601562-14.140625 0-25.601562-11.460938-25.601562-25.597657v-51.203124c0-14.136719 11.460937-25.597657 25.601562-25.597657 10.347656-.011719 19.671875-6.246093 23.628906-15.808593 3.957032-9.558594 1.773438-20.5625-5.539062-27.882813-2.671875-2.714844-5.945313-4.761719-9.558594-5.972656l-15.101562-17.835938 14.503906-17.066406c15.730468 3.378906 26.964844 17.277344 26.964844 33.367187v51.199219c0 18.851563-15.28125 34.132813-34.132813 34.132813-4.527344-.023438-8.871094 1.792968-12.03125 5.035156zm0 0" fill="#4caf50"/><path d="m452.28125 42.652344v35.671875c-2.726562-1.035157-5.617188-1.554688-8.53125-1.535157h-8.535156c-9.414063-.03125-17.039063-7.65625-17.066406-17.066406.070312-9.398437 7.671874-17 17.066406-17.070312zm0 0" fill="#2e7d32"/><path d="m357.816406 179.820312c-42.664062 8.53125-66.730468 50.175782-66.730468 50.175782 4.695312-21.25 1.539062-48.386719-18.003907-81.921875l47.785157-3.019531zm0 0" fill="#f44335"/><path d="m145.082031 383.988281v93.867188c0 14.136719-11.460937 25.597656-25.601562 25.597656-14.136719 0-25.597657-11.460937-25.597657-25.597656v-93.867188zm0 0" fill="#ff5722"/><path d="m366.949219 383.988281v93.867188c0 14.136719-11.460938 25.597656-25.601563 25.597656-14.136718 0-25.597656-11.460937-25.597656-25.597656v-51.203125zm0 0" fill="#ff5722"/><path d="m418.148438 375.453125v101.035156c.238281 13.953125-10.335938 25.71875-24.234376 26.964844-7.011718.328125-13.847656-2.222656-18.9375-7.050781-5.089843-4.832032-7.988281-11.53125-8.027343-18.546875v-25.601563c0-14.136718-11.460938-25.601562-25.601563-25.601562h-119.464844c-14.140624 0-25.601562 11.464844-25.601562 25.601562v24.234375c.238281 13.953125-10.335938 25.71875-24.234375 26.964844-7.007813.328125-13.847656-2.222656-18.9375-7.050781-5.089844-4.832032-7.988281-11.53125-8.027344-18.546875v-51.203125c-28.664062-.007813-51.910156-23.21875-51.96875-51.882813v-1.191406c.359375-32.765625 4.335938-65.390625 11.863281-97.28125l105.554688-3.242187h105.21875c56.550781 0 102.398438 45.84375 102.398438 102.398437zm0 0" fill="#f57c00"/><path d="m393.316406 375.453125v101.035156c.007813 9.667969-5.039062 18.632813-13.3125 23.636719-8.085937-4.488281-13.085937-13.023438-13.054687-22.269531v-25.601563c0-14.136718-11.460938-25.601562-25.601563-25.601562h-144.296875c-14.140625 0-25.601562 11.464844-25.601562 25.601562v24.234375c.007812 9.667969-5.039063 18.632813-13.3125 23.636719-8.082031-4.488281-13.085938-13.023438-13.054688-22.269531v-51.203125c-28.664062-.007813-51.910156-23.21875-51.96875-51.882813v-1.191406c.359375-32.765625 4.335938-65.390625 11.863281-97.28125l105.554688-3.242187h80.386719c56.550781 0 102.398437 45.84375 102.398437 102.398437zm0 0" fill="#ff9801"/><path d="m93.882812 238.921875c-.394531 13.324219 3.496094 26.421875 11.09375 37.375 9.222657 13.21875 24.011719 21.460937 40.105469 22.355469 24.242188-.097656 47.574219-9.226563 65.449219-25.597656 23.8125-21.953126 37.234375-52.949219 36.949219-85.332032 0-61.269531-45.824219-110.933594-102.398438-110.933594-18.6875 0-51.199219 8.53125-51.199219 42.664063zm0 0" fill="#ff9801"/><path d="m93.882812 238.921875c34.132813 0 51.199219-10.070313 51.199219-51.199219 0-41.132812-20.652343-49.152344-51.199219-68.269531-7.082031 0-28.503906 39.082031-33.109374 43.691406-4.792969 4.808594-11.304688 7.511719-18.089844 7.507813-18.851563 0-34.136719 15.285156-34.136719 34.136718 0 18.851563 15.285156 34.132813 34.136719 34.132813zm0 0" fill="#fdd834"/><path d="m171.75 149.320312c-.753906-2.90625.097656-5.996093 2.234375-8.105468 5.777344-5.546875 18.304687-12.679688 30.832031 12.371094 12.917969 25.832031-8.378906 27.230468-19.507812 26.378906-3.628906-.304688-6.652344-2.898438-7.511719-6.433594zm0 0" fill="#fdd834"/><path d="m357.816406 185.296875c-11.605468-10.835937-36.351562-26.367187-84.734375-31.742187 41.300781-36.78125 75.265625-43.777344 97.792969-42.496094 3.34375.230468 6.675781.628906 9.984375 1.191406-33.964844 16.472656-25.601563 62.039062-23.042969 73.046875zm0 0" fill="#c52828"/><path d="m375.480469 112.285156c-39.925781-.765625-78.585938 14.046875-107.773438 41.300782 0 0 0-87.636719 76.96875-139.6875-7.621093 35.925781 4.058594 73.222656 30.804688 98.386718zm0 0" fill="#f44335"/><path d="m177.746094 149.839844c1.238281-1.800782 5.027344-5.628906 7.921875-5.460938 1.21875.085938 5.640625 1.273438 11.511719 13.023438 3.660156 7.304687 3.410156 10.835937 2.710937 11.777344-1.996094 2.625-11.859375 3.035156-19.003906 1.644531-4.535157-.746094-8.847657 2.238281-9.75 6.746093-.902344 4.511719 1.929687 8.921876 6.40625 9.980469 3.960937.765625 7.980469 1.15625 12.015625 1.167969 8.949218.761719 17.753906-2.625 23.890625-9.179688 5.574219-7.289062 5.234375-17.300781-.996094-29.765624-7.132813-14.269532-15.796875-21.8125-25.753906-22.425782-9.375.242188-18.027344 5.09375-23.117188 12.96875-2.628906 3.914063-1.589843 9.214844 2.320313 11.847656 3.914062 2.628907 9.214844 1.589844 11.84375-2.324218zm0 0"/><path d="m102.414062 170.652344c4.714844 0 8.535157-3.820313 8.535157-8.53125 0-4.714844-3.820313-8.535156-8.535157-8.535156h-8.53125c-4.714843 0-8.535156 3.820312-8.535156 8.535156 0 4.710937 3.820313 8.53125 8.535156 8.53125zm0 0"/><path d="m469.347656 34.121094h-34.132812c-10.035156.039062-19.125 5.921875-23.269532 15.0625-3.886718-.882813-7.839843-1.457032-11.820312-1.707032-.382812-.855468-.902344-1.640624-1.542969-2.320312-3.257812-2.921875-5.390625-6.886719-6.035156-11.214844-.046875-4.710937-3.910156-8.492187-8.621094-8.445312-4.710937.050781-8.492187 3.910156-8.445312 8.625.394531 6.125 2.496093 12.015625 6.070312 17.007812-1.289062.703125-2.488281 1.5625-3.570312 2.558594-2.214844 2.144531-3.105469 5.316406-2.324219 8.300781.78125 2.980469 3.109375 5.3125 6.09375 6.09375s6.15625-.109375 8.296875-2.328125c6.757813-1.972656 13.96875-1.730468 20.574219.691406 3.023437 11.105469 13.085937 18.828126 24.59375 18.875h8.535156c9.425781 0 17.066406 7.640626 17.066406 17.066407s-7.640625 17.066406-17.066406 17.066406c-18.851562 0-34.132812 15.28125-34.132812 34.132813v51.203124c0 18.851563 15.28125 34.132813 34.132812 34.132813 9.425781 0 17.066406 7.640625 17.066406 17.066406v8.53125c0 9.425781-7.640625 17.066407-17.066406 17.066407h-59.734375c-2.527344.027343-5.035156.429687-7.441406 1.195312-18.046875-11.921875-39.199219-18.269531-60.824219-18.261719h-27.265625c3.664063-6.054687 6.609375-12.519531 8.78125-19.257812.359375-1.117188.546875-2.277344.851563-3.414063 0-.085937.09375-.152344.128906-.238281.144531-.453125 15.035156-43.691406 49.988281-53.164063 4.34375 3.238282 8.097656 7.199219 11.09375 11.707032 2.230469 3.992187 7.210937 5.511718 11.289063 3.453125 4.082031-2.058594 5.816406-6.964844 3.933593-11.132813-2.425781-4.191406-5.445312-8.015625-8.957031-11.347656-2.75-13.246094-6.828125-46.449219 16.886719-59.894531 4.863281 1.050781 9.53125 2.855469 13.832031 5.359375 2.535156 1.691406 5.78125 1.902344 8.515625.550781s4.539063-4.058594 4.734375-7.101563c.199219-3.042968-1.242188-5.957031-3.777344-7.652343-7.960937-4.710938-16.789062-7.769531-25.960937-8.992188-43.519531-37.351562-23.277344-80.570312-22.332031-82.515625.234374-.589844.398437-1.203125.488281-1.828125 1.621093-1.050781 3.105469-2.167969 4.796875-3.183593 2.617187-1.5625 4.203125-4.40625 4.15625-7.457032-.042969-3.046875-1.710938-5.84375-4.375-7.328125-2.664063-1.488281-5.917969-1.4375-8.539063.125-53.429687 32.636719-87.007812 89.820313-89.472656 152.378907.007813.796874.125 1.585937.351563 2.347656l.078124.230468c.058594.1875.167969.351563.238282.539063.136718.40625.304687.800781.496094 1.183594 17.757812 30.441406 22.917968 58.027343 15.359374 82.039062-2.902343 8.949219-7.421874 17.285157-13.339843 24.59375h-37.859375c17.035156-21.96875 26.238281-49 26.144531-76.796875 0-65.878906-49.765625-119.46875-110.933594-119.46875-28.238281 0-56.652343 14.3125-59.453125 46.027344-9.121094 9.316406-16.933594 19.832031-23.21875 31.257812-2.953125 4.644532-6.621094 10.410157-7.679687 11.574219-3.183594 3.210938-7.523438 5.015625-12.046875 5.007813-23.566406 0-42.667969 19.101562-42.667969 42.667968 0 23.5625 19.101563 42.664063 42.667969 42.664063h43.238281c.917969 10.703125 4.324219 21.042969 9.949219 30.191406-7.171875 31.484375-10.957032 63.644531-11.289063 95.933594v1.191406c.019531 3.089844.273438 6.171875.765625 9.21875v93.867188c-.0625 14.230469 8.75 26.996093 22.082032 31.984375 13.332031 4.984375 28.359374 1.136718 37.652343-9.644532.683594.777344 1.253907 1.628907 2.015625 2.355469 6.820313 6.496094 16.011719 9.910157 25.417969 9.4375 18.464844-1.421875 32.625-16.984375 32.300781-35.5v-24.234375c0-9.425781 7.640625-17.066406 17.066406-17.066406h85.332032v42.667969c-.0625 14.230469 8.75 26.996093 22.082031 31.984375 13.332031 4.984375 28.359375 1.136718 37.652344-9.644532.683593.777344 1.253906 1.628907 2.011719 2.355469 6.390624 6.109375 14.910156 9.492188 23.75 9.4375h1.707031c18.449219-1.4375 32.589843-16.996093 32.265625-35.5v-101.035156c.015625-14.648437-2.886719-29.152344-8.535156-42.664063h51.199218c23.554688-.03125 42.640625-19.117187 42.667969-42.667968v-59.734375c.011719-11.320313-4.480469-22.175781-12.484375-30.183594-8.003906-8.003906-18.863281-12.492187-30.183594-12.480469-2.296875.003906-4.496094-.941406-6.074218-2.613281-1.59375-1.554687-2.480469-3.695313-2.457032-5.921875-.007812-2.300781.9375-4.5 2.609375-6.074219 1.558594-1.59375 3.695313-2.480469 5.921875-2.460937 23.554688-.027344 42.640625-19.113282 42.667969-42.664063v-51.199219c-.027344-23.554687-19.113281-42.640624-42.667969-42.667968zm-168.957031 168.703125c-2.0625-13.296875-6.089844-26.214844-11.949219-38.332031 14.375 2.378906 28.371094 6.667968 41.609375 12.75-11.664062 6.21875-21.796875 14.957031-29.660156 25.582031zm-7.050781-54.773438c18.699218-15.464843 41.394531-25.316406 65.460937-28.410156-9.371093 13.828125-13.648437 30.480469-12.109375 47.113281-16.59375-9.25-34.65625-15.578125-53.394531-18.703125zm42.667968-112.042969c-3.457031 24.03125 3.613282 48.386719 19.402344 66.832032-26.210937 3.628906-50.941406 14.335937-71.523437 30.96875 6.257812-37.398438 24.542969-71.734375 52.078125-97.800782zm99.207032 32.246094c-4.710938 0-8.53125-3.820312-8.53125-8.53125-.007813-2.300781.9375-4.5 2.609375-6.078125 1.558593-1.59375 3.695312-2.480469 5.921875-2.457031h8.535156v17.066406zm-290.132813 17.066406c51.753907 0 93.867188 45.933594 93.867188 102.402344.292969 29.964844-12.105469 58.660156-34.132813 78.984375-16.335937 14.914063-37.613281 23.257813-59.734375 23.414063-13.339843-.933594-25.542969-7.855469-33.195312-18.824219-5.003907-7.15625-8.085938-15.476563-8.941407-24.167969 35.8125-2.441406 50.671876-20.15625 50.671876-59.40625 0-41.816406-20.480469-54.308594-46.457032-70.121094-1.417968-.851562-2.9375-1.808593-4.410156-2.710937 3.386719-28.640625 38.175781-29.570313 42.332031-29.570313zm-128 119.46875c-.011719-6.796874 2.679688-13.316406 7.484375-18.117187 4.800782-4.804687 11.320313-7.5 18.117188-7.484375 9.054687.019531 17.742187-3.585938 24.121094-10.007812 3.738281-4.539063 7.085937-9.382813 10.011718-14.484376 5.285156-8.683593 11.066406-17.054687 17.3125-25.078124 1.382813.851562 2.824219 1.75 4.164063 2.558593 25.457031 15.523438 38.253906 23.316407 38.253906 55.546875 0 36.503906-13.15625 42.664063-42.664063 42.664063h-51.199218c-14.140625 0-25.601563-11.460938-25.601563-25.597657zm102.398438 290.132813c-9.425781 0-17.066407-7.640625-17.066407-17.066406v-60.347657c9.234376 9.230469 21.210938 15.21875 34.132813 17.066407v43.28125c0 9.425781-7.640625 17.066406-17.066406 17.066406zm221.867187 0c-9.425781 0-17.066406-7.640625-17.066406-17.066406v-42.667969h17.066406c9.425782 0 17.066406 7.640625 17.066406 17.066406v25.601563c0 9.425781-7.640624 17.066406-17.066406 17.066406zm68.269532-18.433594c.234374 9.390625-6.757813 17.398438-16.09375 18.433594-4.695313.265625-9.289063-1.414063-12.703126-4.640625-3.414062-3.230469-5.347656-7.726562-5.339843-12.425781v-93.867188c0-4.714843-3.820313-8.535156-8.53125-8.535156-4.714844 0-8.535157 3.820313-8.535157 8.535156v38.878907c-5.164062-3.074219-11.054687-4.710938-17.066406-4.746094h-119.464844c-18.851562 0-34.132812 15.28125-34.132812 34.132812v24.234375c.234375 9.390625-6.757812 17.398438-16.09375 18.433594-4.738281.269531-9.378906-1.441406-12.800781-4.730469-3.371094-3.214844-5.269531-7.679687-5.238281-12.335937v-93.867188c0-4.714843-3.824219-8.535156-8.535157-8.535156-4.710937 0-8.535156 3.820313-8.535156 8.535156v33.277344c-20.257813-4.054687-34.855469-21.824219-34.898437-42.484375v-.972656c.414062-26.921875 3.132812-53.757813 8.121093-80.214844 9.960938 8.28125 22.371094 13.058594 35.3125 13.59375 25.140625-.160156 49.40625-9.234375 68.488281-25.601562h36.601563c-4.617187 3.566406-9.5625 6.683593-14.773437 9.304687-.214844.101563-.347657.289063-.554688.40625-8.457031.320313-16.191406 4.851563-20.597656 12.074219-1.390625 2.675781-1.28125 5.882812.289062 8.453125 1.574219 2.574219 4.375 4.136719 7.390625 4.117187 3.144531.019532 6.027344-1.761718 7.421875-4.582031 2.066406-3.199219 11.308594-6.59375 31.414063 3.464844 2.726562 1.363281 5.976562 1.167969 8.519531-.515625 2.542969-1.679688 4-4.59375 3.8125-7.636719-.183594-3.042969-1.976562-5.757813-4.703125-7.121094-3.023437-1.511719-5.847656-2.722656-8.535156-3.789062 5.683593-4.234375 10.964843-8.980469 15.785156-14.175781h40.109375c51.816406.0625 93.804688 42.050781 93.867188 93.867187zm85.332031-348.5c0 14.136719-11.460938 25.597657-25.601563 25.597657-14.136718 0-25.597656 11.464843-25.597656 25.601562s11.460938 25.601562 25.597656 25.601562c6.792969-.015624 13.3125 2.675782 18.117188 7.480469 4.804687 4.804688 7.496094 11.324219 7.484375 18.117188v59.734375c0 14.136718-11.460938 25.601562-25.601563 25.601562h-60.269531c-3.921875-6.117187-8.433594-11.832031-13.464844-17.070312h48.136719c18.851562 0 34.132812-15.28125 34.132812-34.132813v-8.53125c0-18.851562-15.28125-34.132812-34.132812-34.132812-9.425781 0-17.066406-7.640625-17.066406-17.066407v-51.203124c0-9.425782 7.640625-17.066407 17.066406-17.066407 15.519531.210938 29.207031-10.136719 33.234375-25.128906s-2.632813-30.804687-16.167969-38.402344v-21.800781h8.53125c14.140625 0 25.601563 11.460938 25.601563 25.601562zm0 0"/></svg>